<svg width="16" height="16" viewBox="0 0 16 16" fill="none" xmlns="http://www.w3.org/2000/svg">
<path fill-rule="evenodd" clip-rule="evenodd" d="M4.625 1H13C13.2761 1 13.5 1.22386 13.5 1.5V12.875C13.5 12.944 13.444 13 13.375 13H12.5C12.431 13 12.375 12.944 12.375 12.875V2.125H4.625C4.556 2.125 4.5 2.069 4.5 2V1.125C4.5 1.05596 4.55596 1 4.625 1ZM3 3H11C11.2761 3 11.5 3.22386 11.5 3.5V14.5C11.5 14.7761 11.2761 15 11 15H5.708C5.648 15 5.591 14.989 5.536 14.969H5.47V14.939C5.42785 14.9158 5.38915 14.8869 5.355 14.853L2.647 12.145C2.55316 12.0515 2.50029 11.9245 2.5 11.792V3.5C2.5 3.22386 2.72386 3 3 3ZM5.469 13.378L4.123 12.031H5.47V13.378H5.469ZM6.469 13.875H10.375V4.125H3.625V11.031H5.844C6.18918 11.031 6.469 11.3108 6.469 11.656V13.875Z" fill="url(#paint0_linear_11441_93190)"/>
<defs>
<linearGradient id="paint0_linear_11441_93190" x1="6" y1="15" x2="6" y2="6.38628e-08" gradientUnits="userSpaceOnUse">
<stop stop-color="#87591B"/>
<stop offset="1" stop-color="#F2D891"/>
</linearGradient>
</defs>
</svg>
