<svg xmlns="http://www.w3.org/2000/svg" width="16" height="16" viewBox="0 0 16 16" fill="none">
  <path fill-rule="evenodd" clip-rule="evenodd" d="M8.05886 0.5C10.6377 0.5 12.7271 2.58941 12.7271 5.16824C12.7271 7.74706 10.6377 9.83647 8.05886 9.83647C6.55298 9.83647 5.14121 10.4238 4.07769 11.4911C3.04804 12.5226 2.46639 13.8835 2.42874 15.3367C2.42686 15.4176 2.3591 15.4835 2.27816 15.4835H1.15063C1.06592 15.4835 0.998156 15.4139 1.00004 15.3292C1.01886 14.4294 1.20521 13.5541 1.55345 12.7296C1.90921 11.8864 2.41745 11.1296 3.06686 10.4802C3.71627 9.82894 4.4711 9.31882 5.31251 8.96306C5.31407 8.96228 5.31595 8.9615 5.31816 8.96059C5.32127 8.95929 5.32504 8.95774 5.32945 8.95553C4.15486 8.10847 3.39063 6.72682 3.39063 5.16824C3.39063 2.58941 5.48004 0.5 8.05886 0.5ZM11.4911 14.8915C11.5658 15.0941 11.6324 15.2915 11.6911 15.4835H13.0271C12.8191 14.8861 12.6218 14.3341 12.4351 13.8275C12.2484 13.3208 12.0644 12.8435 11.8831 12.3955C11.7071 11.9475 11.5311 11.5235 11.3551 11.1235C11.1791 10.7181 11.0004 10.3235 10.8191 9.93945H9.6271C9.44043 10.3235 9.2591 10.7181 9.0831 11.1235C8.91243 11.5235 8.73643 11.9475 8.5551 12.3955C8.3791 12.8435 8.19776 13.3208 8.0111 13.8275C7.82443 14.3341 7.6271 14.8861 7.4191 15.4835H8.7151C8.77376 15.2915 8.83776 15.0941 8.9071 14.8915C8.98176 14.6888 9.05377 14.4861 9.1231 14.2835H11.2831L11.4911 14.8915ZM10.0751 11.5235C10.1284 11.3848 10.1684 11.2755 10.1951 11.1955C10.2271 11.2755 10.2698 11.3848 10.3231 11.5235C10.3764 11.6621 10.4378 11.8221 10.5071 12.0035C10.5818 12.1848 10.6591 12.3848 10.7391 12.6035C10.8191 12.8221 10.9018 13.0515 10.9871 13.2915H9.4111C9.49643 13.0515 9.5791 12.8221 9.6591 12.6035C9.74443 12.3848 9.82176 12.1848 9.8911 12.0035C9.96043 11.8221 10.0218 11.6621 10.0751 11.5235ZM14.9927 9.93945H13.7447V15.4835H14.9927V9.93945Z" fill="url(#paint0_linear_13582_26401)"/>
  <defs>
    <linearGradient id="paint0_linear_13582_26401" x1="7.99637" y1="0.5" x2="7.99637" y2="15.4835" gradientUnits="userSpaceOnUse">
      <stop stop-color="#1F71E0"/>
      <stop offset="1" stop-color="#D69AF5"/>
    </linearGradient>
  </defs>
</svg>