<svg width="16" height="16" viewBox="0 0 16 16" fill="none" xmlns="http://www.w3.org/2000/svg">
<path d="M2 9C2.00007 10.2885 2.49754 11.5272 3.38866 12.4578C4.27978 13.3884 5.49575 13.9391 6.783 13.995L7 14V15C5.4087 15 3.88258 14.3679 2.75736 13.2426C1.63214 12.1174 1 10.5913 1 9H2ZM12 8L15 15H14L13.143 13H9.857L9 15H8L11 8H12ZM11.5 9.167L10.286 12H12.714L11.5 9.167ZM5 1V2H7C7.26522 2 7.51957 2.10536 7.70711 2.29289C7.89464 2.48043 8 2.73478 8 3V5C8 5.26522 7.89464 5.51957 7.70711 5.70711C7.51957 5.89464 7.26522 6 7 6H5V7H4V6H2C1.73478 6 1.48043 5.89464 1.29289 5.70711C1.10536 5.51957 1 5.26522 1 5V3C1 2.73478 1.10536 2.48043 1.29289 2.29289C1.48043 2.10536 1.73478 2 2 2H4V1H5ZM9 1C10.5913 1 12.1174 1.63214 13.2426 2.75736C14.3679 3.88258 15 5.4087 15 7H14C13.9999 5.71154 13.5025 4.47284 12.6113 3.54222C11.7202 2.61161 10.5042 2.06092 9.217 2.005L9 2V1ZM4 3H2V5H4V3ZM7 3H5V5H7V3Z" fill="url(#paint0_linear_11441_93192)"/>
<defs>
<linearGradient id="paint0_linear_11441_93192" x1="5.45455" y1="15" x2="5.45455" y2="6.38628e-08" gradientUnits="userSpaceOnUse">
<stop stop-color="#87591B"/>
<stop offset="1" stop-color="#F2D891"/>
</linearGradient>
</defs>
</svg>
