<svg xmlns="http://www.w3.org/2000/svg" width="80" height="80" viewBox="0 0 80 80" fill="none">
  <rect opacity="0.01" width="80" height="80" fill="black"/>
  <path fill-rule="evenodd" clip-rule="evenodd" d="M4.28571 4.85718C4.28571 3.75261 5.18114 2.85718 6.28571 2.85718H68C69.1046 2.85718 70 3.75261 70 4.85718V49.4286C70 50.5332 69.1046 51.4286 68 51.4286H24.2215L14.6595 61.1315C14.0333 61.7669 12.9515 61.3265 12.9473 60.4343L12.9042 51.4286H6.28571C5.18114 51.4286 4.28571 50.5332 4.28571 49.4286V4.85718Z" fill="#E8EBEF"/>
  <path fill-rule="evenodd" clip-rule="evenodd" d="M7.14286 5.71423H67.1429V48.5714H22.8888L15.7416 55.7142L15.8012 48.5714H7.14286V5.71423Z" fill="#F6F7F8"/>
  <rect x="13" y="15" width="35" height="3" rx="1" fill="#C0C6D1"/>
  <rect x="13" y="23" width="20" height="3" rx="1" fill="#C0C6D1"/>
  <path fill-rule="evenodd" clip-rule="evenodd" d="M75.7144 35C75.7144 33.8954 74.8189 33 73.7144 33H34.8572C33.7526 33 32.8572 33.8954 32.8572 35V61.218C32.8572 62.3226 33.7526 63.218 34.8572 63.218H60.7625L67.4591 71.0863C68.0607 71.793 69.2168 71.3704 69.2207 70.4423L69.2505 63.218H73.7144C74.8189 63.218 75.7144 62.3226 75.7144 61.218V35Z" fill="#73B4FA"/>
  <circle cx="55" cy="48" r="2" fill="white"/>
  <circle cx="45" cy="48" r="2" fill="white"/>
  <circle cx="65" cy="48" r="2" fill="white"/>
</svg>