<svg xmlns="http://www.w3.org/2000/svg" width="16" height="16" viewBox="0 0 16 16" fill="none">
<path d="M12.8125 0.505593C12.8769 0.331469 13.1232 0.331469 13.1876 0.505593L13.7784 2.10217C13.7986 2.15691 13.8418 2.20008 13.8966 2.22033L15.4931 2.81112C15.6673 2.87555 15.6673 3.12183 15.4931 3.18626L13.8966 3.77705C13.8418 3.79731 13.7986 3.84047 13.7784 3.89521L13.1876 5.49179C13.1232 5.66591 12.8769 5.66591 12.8125 5.49179L12.2217 3.89521C12.2014 3.84047 12.1583 3.79731 12.1035 3.77705L10.5069 3.18626C10.3328 3.12183 10.3328 2.87555 10.5069 2.81112L12.1035 2.22033C12.1583 2.20008 12.2014 2.15691 12.2217 2.10217L12.8125 0.505593Z" fill="white"/>
<path d="M6.7967 7.64844C6.90716 7.64844 6.9967 7.73798 6.9967 7.84844L6.9967 8.74844C6.9967 8.85889 6.90716 8.94844 6.7967 8.94844L1.20004 8.94844C1.08958 8.94844 1.00004 8.85889 1.00004 8.74844L1.00004 7.84844C1.00004 7.73798 1.08958 7.64844 1.20004 7.64844L6.7967 7.64844Z" fill="white"/>
<path fill-rule="evenodd" clip-rule="evenodd" d="M6.79726 2C6.90772 2 6.99726 2.08954 6.99726 2.2V3.1C6.99726 3.21046 6.90772 3.3 6.79726 3.3L2.3 3.3V12.7031H6.79726C6.90772 12.7031 6.99726 12.7927 6.99726 12.9031V13.8031C6.99726 13.9136 6.90772 14.0031 6.79726 14.0031L2 14.0031C1.44771 14.0031 1 13.5554 1 13.0031V3.3L1 3C1 2.44772 1.44772 2 2 2L2.3 2L6.79726 2Z" fill="white"/>
<path fill-rule="evenodd" clip-rule="evenodd" d="M8.5 8.35156C8.5 7.79928 8.94771 7.35156 9.5 7.35156H13.0107C13.563 7.35156 14.0107 7.79928 14.0107 8.35156V13.8016C14.0107 13.912 13.9212 14.0016 13.8107 14.0016H12.9107C12.8002 14.0016 12.7107 13.912 12.7107 13.8016V8.65156H9.8V13.8016C9.8 13.912 9.71046 14.0016 9.6 14.0016H8.7C8.58954 14.0016 8.5 13.912 8.5 13.8016V8.35156Z" fill="white"/>
</svg>