<svg xmlns="http://www.w3.org/2000/svg" width="16" height="16" viewBox="0 0 16 16" fill="none">
  <path fill-rule="evenodd" clip-rule="evenodd" d="M1.6 1C1.26863 1 1 1.26863 1 1.6V14.4C1 14.7314 1.26863 15 1.6 15H11.4C11.6421 15 11.8508 14.8566 11.9456 14.65H14C14.9113 14.65 15.65 13.9113 15.65 13V7C15.65 6.08873 14.9113 5.35 14 5.35H12V1.6C12 1.26863 11.7314 1 11.4 1H1.6ZM12 6.65V13.35H14C14.1933 13.35 14.35 13.1933 14.35 13V7C14.35 6.8067 14.1933 6.65 14 6.65H12Z" fill="#86919C"/>
  <path d="M8.88576 12C8.77498 11.6845 8.66024 11.3728 8.54154 11.0649C8.42285 10.7571 8.30811 10.4416 8.19733 10.1183H4.73145C4.62067 10.4416 4.50593 10.7609 4.38724 11.0765C4.27646 11.3843 4.16568 11.6922 4.0549 12H2.5C2.80861 11.1457 3.10138 10.3569 3.37834 9.63348C3.65529 8.91005 3.92433 8.22511 4.18546 7.57864C4.4545 6.93218 4.71958 6.3165 4.98071 5.7316C5.24184 5.14671 5.51088 4.5695 5.78783 4H7.2003C7.47725 4.5695 7.74629 5.14671 8.00742 5.7316C8.26855 6.3165 8.52967 6.93218 8.7908 7.57864C9.05984 8.22511 9.33284 8.91005 9.60979 9.63348C9.89466 10.3569 10.1914 11.1457 10.5 12H8.88576ZM6.46439 5.5469C6.28239 5.95479 6.0727 6.45118 5.83531 7.03608C5.60584 7.62097 5.36449 8.25589 5.11128 8.94084H7.81751C7.56429 8.25589 7.31899 7.61712 7.0816 7.02453C6.84421 6.43194 6.63848 5.93939 6.46439 5.5469Z" fill="white"/>
</svg>