<svg xmlns="http://www.w3.org/2000/svg" width="16" height="16" viewBox="0 0 16 16" fill="none">
<path fill-rule="evenodd" clip-rule="evenodd" d="M13.1876 0.505593C13.1232 0.331469 12.8769 0.331469 12.8124 0.505593L12.2217 2.10217C12.2014 2.15691 12.1582 2.20008 12.1035 2.22033L10.5069 2.81112C10.3328 2.87555 10.3328 3.12183 10.5069 3.18626L12.1035 3.77705C12.1582 3.79731 12.2014 3.84047 12.2217 3.89521L12.8124 5.49179C12.8769 5.66591 13.1232 5.66591 13.1876 5.49179L13.7784 3.89521C13.7986 3.84047 13.8418 3.79731 13.8965 3.77705L15.4931 3.18626C15.6672 3.12183 15.6672 2.87555 15.4931 2.81112L13.8965 2.22033C13.8418 2.20008 13.7986 2.15691 13.7784 2.10217L13.1876 0.505593ZM9.6876 10.5069C9.62317 10.3328 9.3769 10.3328 9.31246 10.5069L8.85672 11.7385C8.83647 11.7933 8.7933 11.8364 8.73856 11.8567L7.50694 12.3124C7.33281 12.3769 7.33281 12.6231 7.50694 12.6876L8.73856 13.1433C8.7933 13.1636 8.83647 13.2067 8.85672 13.2615L9.31246 14.4931C9.3769 14.6672 9.62317 14.6672 9.6876 14.4931L10.1433 13.2615C10.1636 13.2067 10.2068 13.1636 10.2615 13.1433L11.4931 12.6876C11.6673 12.6231 11.6673 12.3769 11.4931 12.3124L10.2615 11.8567C10.2068 11.8364 10.1636 11.7933 10.1433 11.7385L9.6876 10.5069Z" fill="white"/>
<path d="M5 1.7C5 1.58954 5.08954 1.5 5.2 1.5H6.1C6.21046 1.5 6.3 1.58954 6.3 1.7V4.3C6.3 4.41046 6.21046 4.5 6.1 4.5H5.2C5.08954 4.5 5 4.41046 5 4.3V1.7Z" fill="white"/>
<path d="M9.8 4C9.91046 4 10 4.08954 10 4.2L10 5.1C10 5.21046 9.91046 5.3 9.8 5.3L1.2 5.3C1.08954 5.3 1 5.21046 1 5.1L1 4.2C1 4.08954 1.08954 4 1.2 4L9.8 4Z" fill="white"/>
<path d="M8 5C8 9.97056 4.86599 14 1 14" stroke="white" stroke-width="1.3" stroke-linecap="square"/>
<path d="M3 5C3 6.50819 3.36518 7.91891 4 9.12296C4.40062 9.8828 4.90862 10.5603 5.5 11.1281" stroke="white" stroke-width="1.3" stroke-linecap="round"/>
</svg>