<svg xmlns="http://www.w3.org/2000/svg" width="24" height="24" viewBox="0 0 24 24" fill="none">
	<path d="M21.8034 15.0625H20.1962C20.0784 15.0625 19.9819 15.1589 19.9819 15.2768V19.4018H4.01765V15.2768C4.01765 15.1589 3.92122 15.0625 3.80336 15.0625H2.19622C2.07836 15.0625 1.98193 15.1589 1.98193 15.2768V20.5804C1.98193 21.0545 2.36497 21.4375 2.83908 21.4375H21.1605C21.6346 21.4375 22.0176 21.0545 22.0176 20.5804V15.2768C22.0176 15.1589 21.9212 15.0625 21.8034 15.0625Z" fill="#E5E6EB" />
	<path d="M8.99975 6.80409H10.9792V15.8657C10.9792 15.9836 11.0756 16.08 11.1935 16.08H12.8006C12.9185 16.08 13.0149 15.9836 13.0149 15.8657V6.80409H14.9998C15.1792 6.80409 15.2783 6.59784 15.1685 6.45856L12.1685 2.66034C12.1485 2.63473 12.1228 2.61402 12.0936 2.59977C12.0644 2.58553 12.0323 2.57812 11.9998 2.57812C11.9672 2.57812 11.9351 2.58553 11.9059 2.59977C11.8767 2.61402 11.851 2.63473 11.831 2.66034L8.831 6.45588C8.72118 6.59784 8.82029 6.80409 8.99975 6.80409Z" fill="url(#paint0_linear_12770_12202)" />
	<defs>
		<linearGradient id="paint0_linear_12770_12202" x1="11.9998" y1="2.57812" x2="11.9998" y2="16.08" gradientUnits="userSpaceOnUse">
			<stop stop-color="#ED8FF7" />
			<stop offset="1" stop-color="#1F71E0" />
		</linearGradient>
	</defs>
</svg>
