<svg xmlns="http://www.w3.org/2000/svg" width="20" height="20" viewBox="0 0 20 20" fill="none">
	<path d="M16.6914 5.63867C16.8086 5.75586 16.875 5.91406 16.875 6.08008V18.125C16.875 18.4707 16.5957 18.75 16.25 18.75H3.75C3.4043 18.75 3.125 18.4707 3.125 18.125V1.875C3.125 1.5293 3.4043 1.25 3.75 1.25H12.0449C12.2109 1.25 12.3711 1.31641 12.4883 1.43359L16.6914 5.63867ZM15.4336 6.36719L11.7578 2.69141V6.36719H15.4336ZM10 11.0566L11.0314 14.9043C11.0448 14.9542 11.0742 14.9983 11.1152 15.0297C11.1562 15.0611 11.2064 15.0782 11.258 15.0781H11.8785C11.9301 15.0782 11.9803 15.0612 12.0212 15.0299C12.0622 14.9985 12.0917 14.9545 12.1051 14.9047L13.5576 9.51406C13.5629 9.49418 13.5655 9.47369 13.5654 9.45312C13.5654 9.39096 13.5407 9.33135 13.4968 9.2874C13.4528 9.24344 13.3932 9.21875 13.3311 9.21875H12.6363C12.5833 9.21873 12.5318 9.2367 12.4903 9.26973C12.4488 9.30276 12.4197 9.34889 12.4078 9.40059L11.5137 13.2893L10.5418 9.39629C10.5291 9.34558 10.4999 9.30057 10.4587 9.2684C10.4175 9.23624 10.3667 9.21876 10.3145 9.21875H9.68555C9.63326 9.21877 9.58247 9.23627 9.54128 9.26848C9.50008 9.30069 9.47084 9.34574 9.4582 9.39648L8.48828 13.2814L7.58789 9.40039C7.57594 9.34883 7.54689 9.30284 7.50547 9.26989C7.46404 9.23695 7.41269 9.21899 7.35977 9.21895H6.66855C6.64804 9.21895 6.62762 9.22164 6.60781 9.22695C6.54781 9.24311 6.49668 9.28242 6.46566 9.33626C6.43464 9.3901 6.42627 9.45405 6.44238 9.51406L7.89102 14.9047C7.90441 14.9544 7.93383 14.9984 7.97471 15.0297C8.01559 15.0611 8.06567 15.0781 8.11719 15.0781H8.74199C8.7936 15.0781 8.84376 15.0611 8.88469 15.0296C8.92562 14.9982 8.95503 14.9542 8.96836 14.9043L9.9998 11.0566H10Z" fill="#4E5969" />
</svg>
