<svg xmlns="http://www.w3.org/2000/svg" width="20" height="20" viewBox="0 0 20 20" fill="none">
	<g clip-path="url(#clip0_13403_16134)">
		<path d="M1.81333 2.34375C2.0075 2.69375 2.21083 2.99292 2.42167 3.25208H2.42C2.32154 3.23719 2.22208 3.22994 2.1225 3.23042C1.89861 3.23355 1.67645 3.27007 1.46333 3.33875C1.875 3.68458 2.22333 3.93625 2.53083 4.13042C3.285 4.37542 4.12417 4.78208 4.83917 5.23708C5.19667 5.46458 5.51583 5.68958 5.76667 5.88708C6.0175 6.08375 6.23917 6.27958 6.28417 6.36542C6.32917 6.45042 6.28333 6.48125 6.21583 6.41542C6.14833 6.35042 5.96417 6.14958 5.71583 5.95458C5.41876 5.72479 5.11091 5.50927 4.79333 5.30875C4.1475 4.90042 3.14167 4.50875 2.53083 4.13042C2.05583 3.97875 1.54583 3.95792 0.945833 4.24292C1.38417 4.51792 1.75167 4.71625 2.07333 4.86458C2.99333 4.99375 3.95583 5.44375 4.76083 5.95458C5.16333 6.21125 5.515 6.46792 5.7775 6.67792C5.90917 6.78208 6.01917 6.87542 6.1025 6.95125C6.18417 7.02625 6.24917 7.08042 6.2675 7.12625C6.2925 7.18792 6.25083 7.21292 6.19667 7.17375C6.17 7.15542 6.12583 7.08875 6.045 7.01458C5.94114 6.92044 5.83414 6.82984 5.72417 6.74292C5.46417 6.53458 5.11583 6.28208 4.71583 6.02792C3.97083 5.56042 2.855 5.18458 2.07 4.86458C1.56917 4.77292 1.05083 4.81458 0.483333 5.18875C0.8575 5.35542 1.18083 5.48042 1.46833 5.57542C0.996667 5.59208 0.528333 5.73958 0.0716667 6.17292C0.469167 6.27125 0.809167 6.33792 1.10833 6.38125C0.741667 6.45625 0.383333 6.63125 0.0341667 6.98125C0.304167 7.03958 0.5475 7.08375 0.77 7.11708C0.495833 7.24958 0.236667 7.45542 0 7.76958C0.310833 7.79458 0.585833 7.80458 0.833333 7.80542C0.533333 7.94375 0.253333 8.16208 0.00333334 8.51375C0.4475 8.53542 0.819167 8.53375 1.13917 8.51542C0.7875 8.65875 0.4625 8.90208 0.185833 9.32292C0.639276 9.33324 1.09289 9.3118 1.54333 9.25875L1.53667 9.26042C2.36167 9.19958 3.45333 9.36625 4.0075 9.96708C4.05083 10.0146 3.9875 10.0654 3.94667 10.0288C3.40667 9.54542 2.70167 9.33958 1.53667 9.26042C1.08333 9.38542 0.664167 9.63292 0.319167 10.1563C0.765 10.1621 1.13667 10.1471 1.45667 10.1171C1.065 10.3296 0.730833 10.6529 0.509167 11.2037C0.911667 11.1279 1.24917 11.0454 1.54 10.9596C1.2375 11.1804 0.9825 11.4896 0.8125 11.9546C1.0825 11.8946 1.32167 11.8329 1.5375 11.7704C1.32293 12.0356 1.1762 12.3491 1.11 12.6837C1.4025 12.5754 1.65583 12.4704 1.88167 12.3671H1.88333C2.11917 12.1754 2.475 11.9862 2.9575 11.8487C3.37917 11.7279 3.85917 11.6121 4.33417 11.5979C4.40193 11.5956 4.46974 11.5956 4.5375 11.5979C4.62083 11.6004 4.59 11.6846 4.5425 11.6837C3.93583 11.6771 3.4575 11.7937 2.98167 11.9296C2.60544 12.049 2.23837 12.1955 1.88333 12.3679C1.64463 12.652 1.48611 12.9946 1.42417 13.3604C1.83667 13.1954 2.17333 13.0371 2.45583 12.8871C2.19667 13.1646 2.00333 13.5204 1.92667 14.0179C2.34098 13.8391 2.74249 13.6319 3.12833 13.3979C2.76833 13.6996 2.49167 14.1013 2.39583 14.7213C2.91008 14.5017 3.40276 14.2347 3.8675 13.9237C3.71417 14.2338 3.63333 14.5962 3.67167 15.0487C4.30667 14.5612 4.70917 14.1687 5.00833 13.8212C4.98812 14.0689 5.00953 14.3182 5.07167 14.5587C5.44583 13.9154 5.81917 13.6479 6.19917 13.4271C5.73 13.7354 5.8125 13.9863 5.8125 14.2721C6.38167 13.6721 7.17583 13.0362 7.41833 12.6379C7.09333 13.1254 6.9625 13.5879 6.87667 13.9954C5.215 14.8746 4.20167 15.1038 3.06833 15.4554C3.50833 15.6171 3.98083 15.7746 3.78583 15.9987L3.265 16.5179C3.5975 16.4146 3.93583 16.2679 4.23 16.4696C4.20167 16.7421 3.85667 16.8804 3.56333 17.0388C4.08 16.8521 4.19333 16.8946 4.33 16.9388C4.39667 17.2646 4.16083 17.4404 4.0075 17.6554C5.31167 16.6637 7.0125 15.8821 8.21167 15.5546C9.89667 14.9871 12.0717 14.3963 12.6625 12.9571C12.8583 12.1688 13.0608 11.3696 13.2517 10.5887C13.1592 10.5596 13.0475 10.5363 12.96 10.4779C12.8718 10.4159 12.804 10.3292 12.765 10.2288C12.555 10.2838 12.3975 10.2546 12.2983 10.1554C12.2 10.0579 12.1583 9.91042 12.1292 9.74708C11.9592 9.78208 11.8258 9.76125 11.7375 9.68375C11.6425 9.59875 11.5958 9.46708 11.5725 9.31458L11.5675 9.28042L11.5983 9.26875C11.6924 9.23317 11.7776 9.17774 11.8483 9.10625C11.8725 9.08203 11.8905 9.05236 11.9008 9.01972C11.9111 8.98709 11.9134 8.95246 11.9075 8.91875L11.9025 8.88792L11.9275 8.87458C12.0633 8.79708 12.2158 8.73458 12.2858 8.64208C12.3041 8.61719 12.3173 8.58887 12.3244 8.55881C12.3316 8.52875 12.3326 8.49756 12.3275 8.46708C12.3076 8.35876 12.2638 8.25626 12.1992 8.16708L12.1758 8.13375L12.2092 8.11125C12.3075 8.03625 12.4142 7.96458 12.4675 7.89708C12.4942 7.86292 12.5058 7.83292 12.505 7.80542C12.505 7.77792 12.4925 7.74625 12.4508 7.70625L12.37 7.62792L12.4825 7.63292C12.6592 7.64042 12.8125 7.62792 12.9317 7.58875C13.0348 7.56048 13.1231 7.49365 13.1783 7.40208C13.1753 7.38168 13.1739 7.36105 13.1742 7.34042C13.1742 7.29062 13.184 7.24132 13.203 7.19532C13.2221 7.14931 13.25 7.10751 13.2852 7.07231C13.3204 7.0371 13.3622 7.00917 13.4082 6.99011C13.4542 6.97106 13.5035 6.96125 13.5533 6.96125C13.6031 6.96125 13.6524 6.97106 13.6984 6.99011C13.7444 7.00917 13.7862 7.0371 13.8214 7.07231C13.8567 7.10751 13.8846 7.14931 13.9036 7.19532C13.9227 7.24132 13.9325 7.29062 13.9325 7.34042C13.9318 7.37779 13.9257 7.41485 13.9142 7.45042C14.0675 7.46375 14.2133 7.45708 14.3508 7.39708L14.3817 7.38708C14.5783 7.31708 14.6592 7.42458 14.9817 7.00458C13.5733 5.17875 11.5167 6.47792 10.8333 8.35875C10.6583 8.83958 9.6625 8.83958 9.37333 8.35708C8.23167 5.89875 4.76417 3.30125 1.81333 2.34375ZM2.42333 3.25292C2.63333 3.24542 3.365 3.63042 3.515 3.68625C3.9606 3.93777 4.3962 4.20659 4.82083 4.49208C5.24167 4.77208 5.62167 5.04458 5.8825 5.24375C6.0125 5.34375 6.11333 5.42542 6.175 5.48125C6.20583 5.50958 6.22833 5.52875 6.24167 5.54958C6.24537 5.55523 6.24818 5.56141 6.25 5.56792C6.25208 5.57406 6.25286 5.58056 6.25228 5.58702C6.25171 5.59347 6.2498 5.59974 6.24667 5.60542C6.23833 5.62208 6.22167 5.63042 6.21083 5.63042C6.2034 5.63178 6.19577 5.63178 6.18833 5.63042C6.14083 5.63125 6.02 5.49458 5.775 5.28458C5.0457 4.72384 4.27767 4.21535 3.47667 3.76292C3.05667 3.52958 2.68 3.31292 2.42333 3.25292ZM1.47167 5.57542C2.14833 5.57542 3.04667 5.87958 3.91417 6.34208C4.78333 6.80625 5.61667 7.35792 6.01917 7.82458C6.07417 7.88792 6.00333 7.92708 5.955 7.88125C5.52167 7.46792 4.73667 6.87625 3.87333 6.41625C3.3425 6.13625 2.08333 5.57875 1.47167 5.57625V5.57542ZM1.115 6.38125C2.045 6.39375 3.07167 6.75292 3.975 7.21125C4.42583 7.44042 4.82833 7.68625 5.13833 7.90458C5.44833 8.12375 5.69917 8.34042 5.75 8.45208C5.80167 8.56292 5.73417 8.56042 5.67833 8.49708C5.50178 8.30238 5.30481 8.12721 5.09083 7.97458C4.72292 7.71901 4.33753 7.48956 3.9375 7.28792C3.135 6.88625 2.03417 6.51625 1.115 6.38125ZM1.25 7.06042C1.305 7.05792 1.36083 7.06042 1.4175 7.06542C2.1025 7.12458 2.85 7.37042 3.52833 7.68875C4.43417 8.11292 5.22417 8.65292 5.55667 9.07708C5.58583 9.11458 5.5475 9.18792 5.49167 9.13042C5.135 8.76375 4.39167 8.18708 3.49417 7.76625C2.73333 7.41625 1.59167 7.04125 0.775 7.11708C0.931667 7.09708 1.08583 7.06625 1.25 7.06042ZM15.0342 7.07125C14.73 7.46708 14.5925 7.42542 14.45 7.45875C14.5275 7.81792 14.7417 7.94792 14.9383 8.10208C16.6217 7.79208 18.5133 7.87375 20.005 7.91458L15.0358 7.07292L15.0342 7.07125ZM14.365 7.48292C14.2067 7.54708 14.0425 7.54875 13.8783 7.53292C13.845 7.58952 13.7975 7.63649 13.7405 7.66921C13.6835 7.70194 13.619 7.71929 13.5533 7.71958C13.4804 7.71946 13.4091 7.69832 13.348 7.65871C13.2868 7.6191 13.2383 7.5627 13.2083 7.49625C13.1444 7.57872 13.057 7.63976 12.9575 7.67125C12.8241 7.70783 12.6857 7.72302 12.5475 7.71625C12.5642 7.74542 12.5925 7.77208 12.5925 7.80208C12.5906 7.85576 12.57 7.90708 12.5342 7.94708C12.4733 8.02458 12.3775 8.09042 12.2883 8.15542C12.3502 8.24597 12.3925 8.34843 12.4125 8.45625C12.4247 8.53973 12.4037 8.62466 12.3542 8.69292C12.2658 8.80958 12.115 8.86875 11.9892 8.93875C11.9937 9.02009 11.9662 9.09995 11.9125 9.16125C11.842 9.23217 11.7578 9.28802 11.665 9.32542C11.6875 9.45625 11.7267 9.56125 11.7933 9.62042C11.865 9.68375 11.97 9.70708 12.1483 9.66125L12.1942 9.64792L12.2025 9.69375C12.2308 9.86625 12.2758 10.0154 12.3583 10.0971C12.4417 10.1796 12.5608 10.2096 12.7767 10.1429L12.8175 10.1296L12.83 10.1712C12.8599 10.2672 12.9216 10.3501 13.005 10.4062C13.0775 10.4563 13.2133 10.4996 13.305 10.5287C13.97 9.80542 14.5758 9.05208 14.875 8.14542C14.6875 7.99875 14.4517 7.86625 14.365 7.48292ZM1.2 7.78958C1.99879 7.79975 2.78605 7.98164 3.50833 8.32292C4.275 8.68125 4.89 9.10542 5.15417 9.41208C5.21583 9.48458 5.1375 9.51375 5.09333 9.47375C4.60666 9.03971 4.06027 8.67769 3.47083 8.39875C2.7175 8.05208 1.64083 7.86042 0.8375 7.80042C0.958333 7.79208 1.07917 7.78875 1.2 7.78958ZM1.56 8.46958C2.06833 8.48625 2.59333 8.59875 3.06583 8.76292C3.69583 8.98125 4.24917 9.27458 4.52083 9.57958C4.5575 9.62125 4.51667 9.68792 4.46083 9.63792C4.17 9.38458 3.65917 9.05958 3.03833 8.84375C2.55917 8.68125 1.69167 8.53792 1.14667 8.51375C1.31 8.49625 1.39083 8.46375 1.56 8.46958ZM2.30417 9.95375C2.34583 9.95375 2.39 9.95708 2.43417 9.96042C2.7875 9.98875 3.1725 10.0712 3.5525 10.2987C3.58833 10.3204 3.59333 10.4121 3.51083 10.3738C2.7975 10.0388 2.405 9.96625 1.4625 10.1171C1.74417 10.0229 2.00583 9.95125 2.30417 9.95375ZM2.65083 10.6071C2.90083 10.6104 3.16167 10.6588 3.4825 10.7871C3.51917 10.8021 3.54917 10.8921 3.455 10.8654C2.74083 10.6629 2.4825 10.5921 1.54833 10.9521C1.7825 10.7613 2.065 10.6462 2.4 10.6162C2.48333 10.6087 2.56667 10.6054 2.65 10.6071H2.65083ZM3.86667 11.1746C3.99667 11.1746 4.12583 11.1821 4.25 11.1962C4.29417 11.2004 4.29583 11.2812 4.24417 11.2796C3.73165 11.2514 3.21761 11.2833 2.7125 11.3746C2.51 11.4129 2.36083 11.4113 1.5425 11.7579C1.78083 11.5629 2.205 11.3821 2.6975 11.2913C3.0675 11.2246 3.47583 11.1729 3.86667 11.1746ZM4.98 11.9296C5.00917 11.9254 5.0675 11.9996 4.99417 12.0129C4.38583 12.1262 3.9575 12.2362 3.49833 12.3921C3.31833 12.4537 3.01583 12.5646 2.46333 12.8821C2.67917 12.6579 3.00917 12.4704 3.47417 12.3121C3.96396 12.1408 4.46784 12.0128 4.98 11.9296ZM5.23833 12.3529C5.30083 12.3429 5.32083 12.4254 5.25667 12.4379C4.2425 12.6379 3.79 12.9012 3.13917 13.3912C3.55833 12.9554 4.21917 12.5163 5.23917 12.3529H5.23833ZM5.735 12.7254C5.74328 12.7241 5.75172 12.7241 5.76 12.7254C5.81 12.7346 5.8175 12.7996 5.7525 12.8088C5.02583 12.9171 4.52 13.2713 3.87167 13.9188C4.1175 13.5071 4.71 12.8838 5.735 12.7254ZM6.04417 13.0513C6.0825 13.0471 6.14083 13.1121 6.065 13.1346C5.90417 13.1813 5.70417 13.2596 5.50667 13.3846C5.355 13.4829 5.255 13.5529 5.00667 13.8079C5.1 13.6038 5.25583 13.4454 5.46167 13.3154C5.66667 13.1846 5.88417 13.0712 6.04417 13.0513Z" fill="#4E5969" />
	</g>
	<defs>
		<clipPath id="clip0_13403_16134">
			<rect width="20" height="20" fill="white" />
		</clipPath>
	</defs>
</svg>
