<svg width="489" height="86" viewBox="0 0 489 86" fill="none" xmlns="http://www.w3.org/2000/svg">
<path d="M82.7091 85H68.0371C66.3945 85 65.0318 84.6267 63.9491 83.88C62.9038 83.096 62.1758 82.1067 61.7651 80.912L56.9491 66.688H25.9251L21.1091 80.912C20.7358 81.9573 20.0078 82.9093 18.9251 83.768C17.8425 84.5893 16.5171 85 14.9491 85H0.165131L31.7491 3.408H51.1251L82.7091 85ZM30.2931 53.808H52.5811L45.0771 31.464C44.5918 30.0453 44.0131 28.384 43.3411 26.48C42.7065 24.5387 42.0718 22.448 41.4371 20.208C40.8398 22.4853 40.2238 24.5947 39.5891 26.536C38.9545 28.4773 38.3571 30.1573 37.7971 31.576L30.2931 53.808ZM112.871 1.16799V85H95.5113V1.16799H112.871ZM178.673 57.728V85H159.745V3.408H188.529C194.278 3.408 199.206 4.09866 203.313 5.48C207.457 6.824 210.854 8.69066 213.505 11.08C216.193 13.4693 218.172 16.288 219.441 19.536C220.71 22.784 221.345 26.2933 221.345 30.064C221.345 34.1333 220.692 37.8667 219.385 41.264C218.078 44.6613 216.081 47.5733 213.393 50C210.705 52.4267 207.289 54.3307 203.145 55.712C199.038 57.056 194.166 57.728 188.529 57.728H178.673ZM178.673 43.448H188.529C193.457 43.448 197.004 42.272 199.169 39.92C201.334 37.568 202.417 34.2827 202.417 30.064C202.417 28.1973 202.137 26.4987 201.577 24.968C201.017 23.4373 200.158 22.1307 199.001 21.048C197.881 19.928 196.444 19.0693 194.689 18.472C192.972 17.8747 190.918 17.576 188.529 17.576H178.673V43.448ZM260.998 26.032C265.404 26.032 269.417 26.7227 273.038 28.104C276.66 29.4853 279.758 31.464 282.334 34.04C284.948 36.616 286.964 39.752 288.382 43.448C289.838 47.1067 290.566 51.232 290.566 55.824C290.566 60.4533 289.838 64.6347 288.382 68.368C286.964 72.064 284.948 75.2187 282.334 77.832C279.758 80.408 276.66 82.4053 273.038 83.824C269.417 85.2053 265.404 85.896 260.998 85.896C256.556 85.896 252.505 85.2053 248.846 83.824C245.225 82.4053 242.089 80.408 239.438 77.832C236.825 75.2187 234.79 72.064 233.334 68.368C231.916 64.6347 231.206 60.4533 231.206 55.824C231.206 51.232 231.916 47.1067 233.334 43.448C234.79 39.752 236.825 36.616 239.438 34.04C242.089 31.464 245.225 29.4853 248.846 28.104C252.505 26.7227 256.556 26.032 260.998 26.032ZM260.998 73.016C264.993 73.016 267.924 71.616 269.79 68.816C271.694 65.9787 272.646 61.6853 272.646 55.936C272.646 50.1867 271.694 45.912 269.79 43.112C267.924 40.312 264.993 38.912 260.998 38.912C256.892 38.912 253.886 40.312 251.982 43.112C250.078 45.912 249.126 50.1867 249.126 55.936C249.126 61.6853 250.078 65.9787 251.982 68.816C253.886 71.616 256.892 73.016 260.998 73.016ZM323.615 1.16799V85H306.255V1.16799H323.615ZM361.153 26.928V85H343.793V26.928H361.153ZM363.169 11.024C363.169 12.4053 362.889 13.712 362.329 14.944C361.769 16.1387 361.003 17.2027 360.033 18.136C359.062 19.032 357.923 19.76 356.617 20.32C355.347 20.8427 353.985 21.104 352.529 21.104C351.11 21.104 349.785 20.8427 348.553 20.32C347.321 19.76 346.219 19.032 345.249 18.136C344.315 17.2027 343.569 16.1387 343.009 14.944C342.486 13.712 342.225 12.4053 342.225 11.024C342.225 9.60533 342.486 8.28 343.009 7.048C343.569 5.816 344.315 4.73333 345.249 3.8C346.219 2.86666 347.321 2.13866 348.553 1.616C349.785 1.09333 351.11 0.831999 352.529 0.831999C353.985 0.831999 355.347 1.09333 356.617 1.616C357.923 2.13866 359.062 2.86666 360.033 3.8C361.003 4.73333 361.769 5.816 362.329 7.048C362.889 8.28 363.169 9.60533 363.169 11.024ZM416.274 39.64C415.826 40.3493 415.341 40.8533 414.818 41.152C414.333 41.4507 413.698 41.6 412.914 41.6C412.093 41.6 411.271 41.432 410.45 41.096C409.629 40.7227 408.733 40.3307 407.762 39.92C406.829 39.5093 405.765 39.136 404.57 38.8C403.375 38.4267 402.013 38.24 400.482 38.24C398.279 38.24 396.581 38.6693 395.386 39.528C394.229 40.3493 393.65 41.5067 393.65 43C393.65 44.0827 394.023 44.9787 394.77 45.688C395.554 46.3973 396.581 47.032 397.85 47.592C399.119 48.1147 400.557 48.6187 402.162 49.104C403.767 49.5893 405.41 50.1307 407.09 50.728C408.77 51.3253 410.413 52.0347 412.018 52.856C413.623 53.64 415.061 54.6293 416.33 55.824C417.599 56.9813 418.607 58.4 419.354 60.08C420.138 61.76 420.53 63.776 420.53 66.128C420.53 69.0027 420.007 71.6533 418.962 74.08C417.917 76.5067 416.349 78.5973 414.258 80.352C412.205 82.1067 409.647 83.4693 406.586 84.44C403.562 85.4107 400.071 85.896 396.114 85.896C394.135 85.896 392.157 85.7093 390.178 85.336C388.199 84.9627 386.277 84.4587 384.41 83.824C382.581 83.1893 380.882 82.4427 379.314 81.584C377.746 80.688 376.402 79.736 375.282 78.728L379.314 72.344C379.799 71.5973 380.378 71.0187 381.05 70.608C381.722 70.16 382.599 69.936 383.682 69.936C384.69 69.936 385.586 70.16 386.37 70.608C387.191 71.056 388.069 71.5413 389.002 72.064C389.935 72.5867 391.018 73.072 392.25 73.52C393.519 73.968 395.106 74.192 397.01 74.192C398.354 74.192 399.493 74.0613 400.426 73.8C401.359 73.5013 402.106 73.1093 402.666 72.624C403.226 72.1387 403.637 71.5973 403.898 71C404.159 70.4027 404.29 69.7867 404.29 69.152C404.29 67.9947 403.898 67.0427 403.114 66.296C402.33 65.5493 401.303 64.9147 400.034 64.392C398.765 63.832 397.309 63.328 395.666 62.88C394.061 62.3947 392.418 61.8533 390.738 61.256C389.058 60.6587 387.397 59.9493 385.754 59.128C384.149 58.2693 382.711 57.2053 381.442 55.936C380.173 54.6293 379.146 53.0427 378.362 51.176C377.578 49.3093 377.186 47.0507 377.186 44.4C377.186 41.936 377.653 39.6027 378.586 37.4C379.557 35.16 380.994 33.2 382.898 31.52C384.802 29.84 387.191 28.5147 390.066 27.544C392.941 26.536 396.301 26.032 400.146 26.032C402.237 26.032 404.253 26.2187 406.194 26.592C408.173 26.9653 410.021 27.488 411.738 28.16C413.455 28.832 415.023 29.6347 416.442 30.568C417.861 31.464 419.111 32.4533 420.194 33.536L416.274 39.64ZM435.698 85V1.16799H453.058V32.024C455.149 30.232 457.407 28.7947 459.834 27.712C462.298 26.592 465.229 26.032 468.626 26.032C471.799 26.032 474.599 26.592 477.026 27.712C479.49 28.7947 481.562 30.3253 483.242 32.304C484.922 34.2453 486.191 36.5787 487.05 39.304C487.909 41.992 488.338 44.9227 488.338 48.096V85H470.978V48.096C470.978 45.2587 470.325 43.056 469.018 41.488C467.711 39.8827 465.789 39.08 463.25 39.08C461.346 39.08 459.554 39.4907 457.874 40.312C456.194 41.1333 454.589 42.2347 453.058 43.616V85H435.698Z" fill="url(#paint0_linear_12832_22763)"/>
<defs>
<linearGradient id="paint0_linear_12832_22763" x1="81.849" y1="9.50002" x2="304.236" y2="224.91" gradientUnits="userSpaceOnUse">
<stop stop-color="#2072E1"/>
<stop offset="1" stop-color="#ED8FF7"/>
</linearGradient>
</defs>
</svg>
