<svg width="12" height="10" viewBox="0 0 12 10" fill="none" xmlns="http://www.w3.org/2000/svg">
<path fill-rule="evenodd" clip-rule="evenodd" d="M4.167 0.971985C1.935 0.971985 0.113 2.65598 0.005 4.77198L0 4.97198V8.97198C0 9.52427 0.447715 9.97198 1 9.97198H4C4.55228 9.97198 5 9.52427 5 8.97198V5.97198C5 5.4197 4.55228 4.97198 4 4.97198H1.667C1.667 3.64598 2.786 2.57198 4.167 2.57198C4.627 2.57198 5 2.21398 5 1.77198C5 1.32998 4.627 0.971985 4.167 0.971985ZM10.667 0.971985C8.435 0.971985 6.613 2.65598 6.505 4.77198L6.5 4.97198V8.97198C6.5 9.52427 6.94772 9.97198 7.5 9.97198H10.5C11.0523 9.97198 11.5 9.52427 11.5 8.97198V5.97198C11.5 5.4197 11.0523 4.97198 10.5 4.97198H8.167C8.167 3.64598 9.286 2.57198 10.667 2.57198C11.127 2.57198 11.5 2.21398 11.5 1.77198C11.5 1.32998 11.127 0.971985 10.667 0.971985Z" fill="#86919C"/>
</svg>
