<svg width="16" height="16" viewBox="0 0 16 16" fill="none" xmlns="http://www.w3.org/2000/svg">
<path d="M14.2858 12.0022C14.2858 10.0094 13.1179 8.28795 11.4286 7.48616V4.52545C11.4286 4.2558 11.334 3.99509 11.159 3.78973L8.43757 0.562946C8.32329 0.427232 8.16079 0.359375 8.00007 0.359375C7.83936 0.359375 7.67686 0.427232 7.56257 0.562946L4.84114 3.78973C4.66733 3.99551 4.57183 4.25609 4.5715 4.52545V7.48616C2.88221 8.28795 1.71436 10.0094 1.71436 12.0022H4.509C4.46793 12.1308 4.4465 12.2701 4.4465 12.4272C4.4465 12.8219 4.58221 13.2076 4.82864 13.5129C5.02979 13.7627 5.29619 13.9518 5.59828 14.0594C6.01078 15.0237 6.94828 15.6451 8.00007 15.6451C8.51971 15.6451 9.02329 15.4915 9.45364 15.2022C9.87507 14.9201 10.2019 14.5254 10.4001 14.0594C10.702 13.9525 10.9685 13.764 11.1697 13.5147C11.4165 13.2066 11.5512 12.8238 11.5519 12.429C11.5519 12.279 11.5322 12.1362 11.4965 12.004H14.2858V12.0022ZM12.4697 9.95581C12.6376 10.2165 12.7733 10.4969 12.8715 10.7879H11.3572V8.83616C11.8027 9.1269 12.1818 9.50844 12.4697 9.95581ZM5.78578 7.48616V4.55223L8.00007 1.92723L10.2144 4.55223V10.7879H5.78578V7.48616ZM3.12864 10.7879C3.22686 10.4969 3.36257 10.2165 3.53043 9.95581C3.8215 9.50581 4.20007 9.12545 4.64293 8.83616V10.7879H3.12864ZM10.0733 12.8629C9.98043 12.9165 9.87329 12.9379 9.76793 12.9237L9.41971 12.8808L9.36971 13.2272C9.27329 13.904 8.684 14.4147 8.00007 14.4147C7.31614 14.4147 6.72686 13.904 6.63043 13.2272L6.58043 12.879L6.23221 12.9237C6.12635 12.9363 6.01925 12.9144 5.92686 12.8612C5.7715 12.7719 5.67507 12.6058 5.67507 12.4254C5.67507 12.2362 5.78043 12.079 5.93578 12.0004H10.0661C10.2233 12.0808 10.3269 12.2379 10.3269 12.4254C10.3251 12.6076 10.2286 12.7754 10.0733 12.8629ZM7.14293 6.00223C7.14293 6.22956 7.23323 6.44758 7.39398 6.60832C7.55472 6.76907 7.77274 6.85938 8.00007 6.85938C8.2274 6.85938 8.44542 6.76907 8.60616 6.60832C8.76691 6.44758 8.85721 6.22956 8.85721 6.00223C8.85721 5.7749 8.76691 5.55689 8.60616 5.39614C8.44542 5.2354 8.2274 5.14509 8.00007 5.14509C7.77274 5.14509 7.55472 5.2354 7.39398 5.39614C7.23323 5.55689 7.14293 5.7749 7.14293 6.00223Z" fill="url(#paint0_linear_11441_93189)"/>
<defs>
<linearGradient id="paint0_linear_11441_93189" x1="5.71436" y1="15.6451" x2="5.71436" y2="-0.732462" gradientUnits="userSpaceOnUse">
<stop stop-color="#87591B"/>
<stop offset="1" stop-color="#F2D891"/>
</linearGradient>
</defs>
</svg>
