<svg width="16" height="16" viewBox="0 0 16 16" fill="none" xmlns="http://www.w3.org/2000/svg">
<path d="M14.763 14.063L13.763 13.063C14.6242 11.8326 14.4036 10.1483 13.2546 9.18125C12.1055 8.21418 10.4083 8.28437 9.34301 9.34301C8.28437 10.4083 8.21418 12.1055 9.18125 13.2546C10.1483 14.4036 11.8326 14.6242 13.063 13.763L14.063 14.763C14.2591 14.9591 14.5769 14.9591 14.773 14.763C14.9691 14.5669 14.9691 14.2491 14.773 14.053L14.763 14.063ZM10.043 12.743C9.30223 12.0006 9.30313 10.7983 10.045 10.057C10.7869 9.31567 11.9891 9.31567 12.731 10.057C13.4729 10.7983 13.4738 12.0006 12.733 12.743C11.9884 13.4815 10.7876 13.4815 10.043 12.743Z" fill="url(#paint0_linear_11441_93213)"/>
<path fill-rule="evenodd" clip-rule="evenodd" d="M13.1427 4.57031H10.4284V1.85603C10.4284 1.69888 10.2999 1.57031 10.1427 1.57031H1.857C1.69986 1.57031 1.57129 1.69888 1.57129 1.85603V10.1417C1.57129 10.2989 1.69986 10.4275 1.857 10.4275H4.57129V13.1417C4.57129 13.2989 4.69986 13.4275 4.857 13.4275H7V12.2132H5.78557V10.4275H5.79999V9.21317H5.78557V5.7846H9.21415V5.79997H10.4284V5.7846H12.2141V6.99997H13.4284V4.85603C13.4284 4.69888 13.2999 4.57031 13.1427 4.57031ZM4.57129 4.85603V9.21317H2.78557V2.7846H9.21415V4.57031H4.857C4.69986 4.57031 4.57129 4.69888 4.57129 4.85603Z" fill="url(#paint1_linear_11441_93213)"/>
<defs>
<linearGradient id="paint0_linear_11441_93213" x1="10.5427" y1="14.9101" x2="10.5427" y2="8.04214" gradientUnits="userSpaceOnUse">
<stop stop-color="#87591B"/>
<stop offset="1" stop-color="#F2D891"/>
</linearGradient>
<linearGradient id="paint1_linear_11441_93213" x1="5.34402" y1="13.4275" x2="5.34402" y2="0.723374" gradientUnits="userSpaceOnUse">
<stop stop-color="#87591B"/>
<stop offset="1" stop-color="#F2D891"/>
</linearGradient>
</defs>
</svg>
