<svg width="16" height="16" viewBox="0 0 16 16" fill="none" xmlns="http://www.w3.org/2000/svg">
<path d="M12.7728 2.37098C11.0907 0.688839 8.35138 0.688839 6.67103 2.37098L2.01031 7.02812C1.97996 7.05848 1.96388 7.09955 1.96388 7.14241C1.96388 7.18527 1.97996 7.22634 2.01031 7.2567L2.66924 7.91563C2.69936 7.94561 2.74013 7.96245 2.78263 7.96245C2.82514 7.96245 2.86591 7.94561 2.89603 7.91563L7.55674 3.25848C8.13531 2.67991 8.90496 2.36205 9.72281 2.36205C10.5407 2.36205 11.3103 2.67991 11.8871 3.25848C12.4657 3.83705 12.7835 4.6067 12.7835 5.42277C12.7835 6.24062 12.4657 7.00848 11.8871 7.58705L7.1371 12.3353L6.36746 13.1049C5.64781 13.8246 4.47817 13.8246 3.75853 13.1049C3.41031 12.7567 3.21924 12.2942 3.21924 11.8013C3.21924 11.3085 3.41031 10.846 3.75853 10.4978L8.47103 5.78705C8.59067 5.6692 8.74781 5.60313 8.91567 5.60313H8.91746C9.08531 5.60313 9.24067 5.6692 9.35853 5.78705C9.47817 5.9067 9.54246 6.06384 9.54246 6.2317C9.54246 6.39777 9.47638 6.55491 9.35853 6.67277L5.50674 10.521C5.47638 10.5513 5.46031 10.5924 5.46031 10.6353C5.46031 10.6781 5.47638 10.7192 5.50674 10.7496L6.16567 11.4085C6.19579 11.4385 6.23656 11.4553 6.27906 11.4553C6.32156 11.4553 6.36234 11.4385 6.39246 11.4085L10.2425 7.55848C10.5978 7.20312 10.7925 6.7317 10.7925 6.22991C10.7925 5.72813 10.596 5.25491 10.2425 4.90134C9.50853 4.16741 8.31567 4.1692 7.58174 4.90134L7.1246 5.36027L2.87103 9.61205C2.58233 9.89905 2.35349 10.2405 2.19777 10.6166C2.04205 10.9928 1.96255 11.396 1.96388 11.8031C1.96388 12.6299 2.2871 13.4067 2.87103 13.9906C3.47638 14.5942 4.26924 14.896 5.0621 14.896C5.85496 14.896 6.64781 14.5942 7.25138 13.9906L12.7728 8.47277C13.5853 7.65848 14.0353 6.57455 14.0353 5.42277C14.0371 4.2692 13.5871 3.18527 12.7728 2.37098Z" fill="url(#paint0_linear_11553_94553)"/>
<defs>
<linearGradient id="paint0_linear_11553_94553" x1="5.80478" y1="14.896" x2="5.80478" y2="0.124617" gradientUnits="userSpaceOnUse">
<stop stop-color="#87591B"/>
<stop offset="1" stop-color="#F2D891"/>
</linearGradient>
</defs>
</svg>
