<svg width="16" height="16" viewBox="0 0 16 16" fill="none" xmlns="http://www.w3.org/2000/svg">
<g id="edit">
<path id="Union" fill-rule="evenodd" clip-rule="evenodd" d="M6.0429 1.14817C6.10733 0.974047 6.35361 0.974047 6.41804 1.14817L6.93603 2.54802C6.95629 2.60276 6.99945 2.64592 7.05419 2.66618L8.45404 3.18417C8.62816 3.2486 8.62816 3.49488 8.45404 3.55931L7.05419 4.0773C6.99945 4.09756 6.95629 4.14072 6.93603 4.19546L6.41804 5.59531C6.35361 5.76943 6.10733 5.76943 6.0429 5.59531L5.52491 4.19546C5.50465 4.14072 5.46149 4.09756 5.40675 4.0773L4.0069 3.55931C3.83278 3.49488 3.83278 3.2486 4.0069 3.18417L5.40675 2.66618C5.46149 2.64592 5.50465 2.60276 5.52491 2.54802L6.0429 1.14817ZM3.75317 5.2468C3.02364 6.16325 2.58806 7.32283 2.58806 8.58565C2.58806 11.549 4.9903 13.9512 7.95361 13.9512C10.9169 13.9512 13.3192 11.549 13.3192 8.58565H14.4072C14.4072 12.1499 11.5178 15.0393 7.95361 15.0393C4.38938 15.0393 1.5 12.1499 1.5 8.58565C1.5 7.06794 2.02458 5.67125 2.9019 4.56915L3.75317 5.2468ZM12.0518 2.5026C11.9737 2.42449 11.8471 2.42449 11.769 2.5026L6.09116 8.18042L5.45088 11.0368C5.41895 11.1792 5.54543 11.3068 5.68813 11.276L8.56699 10.6562L14.2448 4.97843C14.3229 4.90032 14.3229 4.77369 14.2448 4.69558L12.0518 2.5026Z" fill="url(#paint0_linear_11376_91961)"/>
</g>
<defs>
<linearGradient id="paint0_linear_11376_91961" x1="10.182" y1="10.8147" x2="-4.55627" y2="-4.71167" gradientUnits="userSpaceOnUse">
<stop stop-color="#1F71E0"/>
<stop offset="0.669311" stop-color="#ED8FF7"/>
</linearGradient>
</defs>
</svg>
