<svg width="16" height="16" viewBox="0 0 16 16" fill="none" xmlns="http://www.w3.org/2000/svg">
<path fill-rule="evenodd" clip-rule="evenodd" d="M11.5652 1.05371C11.815 1.05372 12.0265 1.23818 12.0605 1.48571L12.0652 1.55371V3.88704H10.8663V2.25006H2.26377V9.86621H3.00449V11.0537H1.56519C1.31533 11.0537 1.10383 10.8692 1.06985 10.6217L1.06519 10.5537V1.55371C1.0652 1.30385 1.24965 1.09236 1.49719 1.05838L1.56519 1.05371H11.5652ZM14.8575 5.50067C14.8575 5.22453 14.6365 5.00067 14.3639 5.00067H4.35108C4.07847 5.00067 3.85748 5.22453 3.85748 5.50067V14.5007C3.85748 14.7768 4.07847 15.0007 4.35108 15.0007H14.3639C14.6365 15.0007 14.8575 14.7768 14.8575 14.5007V5.50067ZM5.05748 6.1965H13.6575V13.8015H5.05748V6.1965ZM9.42671 10.649C8.37737 10.649 7.52671 9.79832 7.52671 8.74898H6.32671C6.32671 10.4611 7.71463 11.849 9.42671 11.849C11.1388 11.849 12.5267 10.4611 12.5267 8.74898H11.3267C11.3267 9.79832 10.4761 10.649 9.42671 10.649Z" fill="url(#paint0_linear_11441_93219)"/>
<defs>
<linearGradient id="paint0_linear_11441_93219" x1="5.45364" y1="15.0007" x2="5.45364" y2="0.0574995" gradientUnits="userSpaceOnUse">
<stop stop-color="#87591B"/>
<stop offset="1" stop-color="#F2D891"/>
</linearGradient>
</defs>
</svg>
