<svg width="16" height="16" viewBox="0 0 16 16" fill="none" xmlns="http://www.w3.org/2000/svg">
<path fill-rule="evenodd" clip-rule="evenodd" d="M2.2 14.8V1.2H13.8V14.8H2.2ZM1 0.4C1 0.179086 1.17909 0 1.4 0H14.6C14.8209 0 15 0.179086 15 0.4V15.6C15 15.8209 14.8209 16 14.6 16H1.4C1.17909 16 1 15.8209 1 15.6V0.4ZM5.168 5.96C5.016 5.56 4.616 4.928 4.288 4.464L5.016 4C5.36 4.432 5.776 5.032 5.96 5.424L5.168 5.96ZM6.448 9.94978C5.33258 10.8899 5.11259 11.0996 4.992 11.288C4.904 11.088 4.648 10.744 4.496 10.608C4.672 10.456 4.904 10.144 4.904 9.72V7.256H4V6.336H4.904H5.536H5.832V9.35767L6.304 8.968C6.35095 9.10457 6.41839 9.27074 6.48809 9.424H8.328V8.816H6.896V7.984H8.328V7.36H9.28V7.984H10.8V8.816H9.28V9.424H11.344V10.264H9.28V11.408H8.328V10.264H6.448V9.94978ZM6.472 5.04V4.208H10.144H10.32L10.472 4.168L11.096 4.512C10.7598 5.20031 10.2687 5.78485 9.67734 6.2733C10.2337 6.54386 10.8642 6.74977 11.544 6.88C11.344 7.064 11.08 7.44 10.952 7.688C10.1867 7.50015 9.49397 7.21397 8.88834 6.83539C8.16878 7.27829 7.35888 7.61259 6.528 7.848C6.432 7.608 6.208 7.224 6.032 7.024C6.75781 6.85979 7.47553 6.59851 8.11265 6.25786C7.71182 5.90373 7.36607 5.49689 7.0819 5.04H6.472ZM8.03926 5.04C8.26897 5.31498 8.54562 5.5668 8.86165 5.79213C9.17741 5.56345 9.4576 5.31166 9.68906 5.04H8.03926Z" fill="url(#paint0_linear_11441_93193)"/>
<defs>
<linearGradient id="paint0_linear_11441_93193" x1="5.45455" y1="16" x2="5.45455" y2="-1.14286" gradientUnits="userSpaceOnUse">
<stop stop-color="#87591B"/>
<stop offset="1" stop-color="#F2D891"/>
</linearGradient>
</defs>
</svg>
