<svg width="234" height="56" viewBox="0 0 234 56" fill="none" xmlns="http://www.w3.org/2000/svg">
<path d="M81.6105 29.0453C81.6105 30.464 81.7847 31.7582 82.1332 32.928C82.4816 34.0729 82.9794 35.056 83.6265 35.8773C84.2985 36.6738 85.1074 37.296 86.0532 37.744C86.9989 38.192 88.0692 38.416 89.2638 38.416C90.4336 38.416 91.4914 38.192 92.4372 37.744C93.3829 37.296 94.1794 36.6738 94.8265 35.8773C95.4985 35.056 96.0087 34.0729 96.3572 32.928C96.7056 31.7582 96.8798 30.464 96.8798 29.0453C96.8798 27.6267 96.7056 26.3449 96.3572 25.2C96.0087 24.0302 95.4985 23.0471 94.8265 22.2507C94.1794 21.4293 93.3829 20.7947 92.4372 20.3467C91.4914 19.8987 90.4336 19.6747 89.2638 19.6747C88.0692 19.6747 86.9989 19.8987 86.0532 20.3467C85.1074 20.7947 84.2985 21.4293 83.6265 22.2507C82.9794 23.072 82.4816 24.0551 82.1332 25.2C81.7847 26.3449 81.6105 27.6267 81.6105 29.0453ZM101.808 29.0453C101.808 31.2604 101.472 33.2142 100.8 34.9067C100.153 36.5991 99.2567 38.0178 98.1118 39.1627C96.9918 40.2827 95.6727 41.1289 94.1545 41.7013C92.6363 42.2738 91.0185 42.56 89.3012 42.56C87.5838 42.56 85.9536 42.2738 84.4105 41.7013C82.8923 41.1289 81.5607 40.2827 80.4158 39.1627C79.2958 38.0178 78.3998 36.5991 77.7278 34.9067C77.0558 33.2142 76.7198 31.2604 76.7198 29.0453C76.7198 26.8302 77.0558 24.8889 77.7278 23.2213C78.3998 21.5289 79.3083 20.1102 80.4532 18.9653C81.6229 17.8204 82.9669 16.9618 84.4852 16.3893C86.0034 15.8169 87.6087 15.5307 89.3012 15.5307C90.9936 15.5307 92.599 15.8169 94.1172 16.3893C95.6354 16.9618 96.9545 17.8204 98.0745 18.9653C99.2194 20.1102 100.128 21.5289 100.8 23.2213C101.472 24.8889 101.808 26.8302 101.808 29.0453ZM111.672 38.1173C111.946 38.1422 112.307 38.1671 112.755 38.192C113.203 38.192 113.813 38.192 114.584 38.192C117.745 38.192 120.097 37.3956 121.64 35.8027C123.208 34.1849 123.992 31.9324 123.992 29.0453C123.992 26.1084 123.233 23.856 121.715 22.288C120.197 20.72 117.845 19.936 114.659 19.936C113.265 19.936 112.27 19.9733 111.672 20.048V38.1173ZM128.92 29.0453C128.92 31.2853 128.572 33.2391 127.875 34.9067C127.178 36.5493 126.183 37.9307 124.888 39.0507C123.619 40.1458 122.076 40.9671 120.259 41.5147C118.467 42.0373 116.476 42.2987 114.286 42.2987C113.24 42.2987 112.058 42.2489 110.739 42.1493C109.42 42.0747 108.163 41.9004 106.968 41.6267V16.5013C108.163 16.2276 109.432 16.0533 110.776 15.9787C112.12 15.904 113.315 15.8667 114.36 15.8667C116.526 15.8667 118.504 16.128 120.296 16.6507C122.088 17.1484 123.619 17.9449 124.888 19.04C126.183 20.1102 127.178 21.4791 127.875 23.1467C128.572 24.7893 128.92 26.7556 128.92 29.0453ZM137.902 29.0453C137.902 30.464 138.076 31.7582 138.425 32.928C138.773 34.0729 139.271 35.056 139.918 35.8773C140.59 36.6738 141.399 37.296 142.345 37.744C143.291 38.192 144.361 38.416 145.556 38.416C146.725 38.416 147.783 38.192 148.729 37.744C149.675 37.296 150.471 36.6738 151.118 35.8773C151.79 35.056 152.3 34.0729 152.649 32.928C152.997 31.7582 153.172 30.464 153.172 29.0453C153.172 27.6267 152.997 26.3449 152.649 25.2C152.3 24.0302 151.79 23.0471 151.118 22.2507C150.471 21.4293 149.675 20.7947 148.729 20.3467C147.783 19.8987 146.725 19.6747 145.556 19.6747C144.361 19.6747 143.291 19.8987 142.345 20.3467C141.399 20.7947 140.59 21.4293 139.918 22.2507C139.271 23.072 138.773 24.0551 138.425 25.2C138.076 26.3449 137.902 27.6267 137.902 29.0453ZM158.1 29.0453C158.1 31.2604 157.764 33.2142 157.092 34.9067C156.444 36.5991 155.548 38.0178 154.404 39.1627C153.284 40.2827 151.964 41.1289 150.446 41.7013C148.928 42.2738 147.31 42.56 145.593 42.56C143.876 42.56 142.245 42.2738 140.702 41.7013C139.184 41.1289 137.852 40.2827 136.708 39.1627C135.588 38.0178 134.692 36.5991 134.02 34.9067C133.348 33.2142 133.012 31.2604 133.012 29.0453C133.012 26.8302 133.348 24.8889 134.02 23.2213C134.692 21.5289 135.6 20.1102 136.745 18.9653C137.915 17.8204 139.259 16.9618 140.777 16.3893C142.295 15.8169 143.9 15.5307 145.593 15.5307C147.285 15.5307 148.891 15.8169 150.409 16.3893C151.927 16.9618 153.246 17.8204 154.366 18.9653C155.511 20.1102 156.42 21.5289 157.092 23.2213C157.764 24.8889 158.1 26.8302 158.1 29.0453ZM174.759 42.56C172.817 42.56 171.075 42.2613 169.532 41.664C167.989 41.0667 166.682 40.1956 165.612 39.0507C164.542 37.8809 163.72 36.4622 163.148 34.7947C162.576 33.1271 162.289 31.2107 162.289 29.0453C162.289 26.88 162.613 24.9636 163.26 23.296C163.932 21.6284 164.84 20.2222 165.985 19.0773C167.13 17.9076 168.474 17.024 170.017 16.4267C171.56 15.8293 173.216 15.5307 174.983 15.5307C176.053 15.5307 177.024 15.6178 177.895 15.792C178.766 15.9413 179.525 16.1156 180.172 16.3147C180.819 16.5138 181.354 16.7253 181.777 16.9493C182.2 17.1733 182.499 17.3351 182.673 17.4347L181.292 21.28C180.695 20.9067 179.836 20.5582 178.716 20.2347C177.621 19.8862 176.426 19.712 175.132 19.712C174.012 19.712 172.967 19.9111 171.996 20.3093C171.025 20.6827 170.179 21.2551 169.457 22.0267C168.76 22.7982 168.213 23.7689 167.815 24.9387C167.416 26.1084 167.217 27.4649 167.217 29.008C167.217 30.3769 167.367 31.6338 167.665 32.7787C167.989 33.9236 168.474 34.9191 169.121 35.7653C169.768 36.5867 170.59 37.2338 171.585 37.7067C172.581 38.1547 173.776 38.3787 175.169 38.3787C176.837 38.3787 178.193 38.2169 179.239 37.8933C180.284 37.5449 181.093 37.2213 181.665 36.9227L182.935 40.768C182.636 40.9671 182.225 41.1662 181.703 41.3653C181.205 41.5644 180.608 41.7636 179.911 41.9627C179.214 42.1369 178.43 42.2738 177.559 42.3733C176.688 42.4978 175.754 42.56 174.759 42.56ZM192.613 39.536C192.613 40.4071 192.315 41.1164 191.717 41.664C191.145 42.2116 190.448 42.4853 189.627 42.4853C188.78 42.4853 188.071 42.2116 187.499 41.664C186.926 41.1164 186.64 40.4071 186.64 39.536C186.64 38.6649 186.926 37.9556 187.499 37.408C188.071 36.8356 188.78 36.5493 189.627 36.5493C190.448 36.5493 191.145 36.8356 191.717 37.408C192.315 37.9556 192.613 38.6649 192.613 39.536ZM215.689 42C215.34 40.9796 214.979 39.9716 214.606 38.976C214.233 37.9804 213.872 36.96 213.523 35.9147H202.622C202.273 36.96 201.913 37.9929 201.539 39.0133C201.191 40.0089 200.842 41.0044 200.494 42H195.603C196.574 39.2373 197.495 36.6862 198.366 34.3467C199.237 32.0071 200.083 29.792 200.905 27.7013C201.751 25.6107 202.585 23.6196 203.406 21.728C204.227 19.8364 205.073 17.9698 205.945 16.128H210.387C211.258 17.9698 212.105 19.8364 212.926 21.728C213.747 23.6196 214.569 25.6107 215.39 27.7013C216.236 29.792 217.095 32.0071 217.966 34.3467C218.862 36.6862 219.795 39.2373 220.766 42H215.689ZM208.073 21.1307C207.5 22.4498 206.841 24.0551 206.094 25.9467C205.372 27.8382 204.613 29.8916 203.817 32.1067H212.329C211.532 29.8916 210.761 27.8258 210.014 25.9093C209.267 23.9929 208.62 22.4 208.073 21.1307ZM224.036 16.128H228.74V42H224.036V16.128Z" fill="#F0F0F0"/>
<path d="M51.3335 51.335H46.1479V34.0283C48.0914 33.1049 49.8451 31.8473 51.3335 30.3281V51.335ZM17.6294 4.66602C20.355 4.66608 22.883 5.50921 24.9702 6.94629C25.0312 6.98825 25.0907 7.03222 25.1509 7.0752C25.2558 7.15012 25.3608 7.22479 25.4634 7.30273C25.5168 7.34328 25.5689 7.38541 25.6216 7.42676C25.7249 7.50785 25.8284 7.58872 25.9292 7.67285C25.9967 7.72919 26.0621 7.78803 26.1284 7.8457C26.2087 7.9155 26.2901 7.98394 26.3687 8.05566C26.4727 8.1507 26.5734 8.24932 26.6743 8.34766C26.7142 8.38655 26.756 8.42349 26.7954 8.46289L26.813 8.48047C27.2313 8.9003 27.6201 9.34953 27.978 9.82324C27.985 9.83249 27.9925 9.84132 27.9995 9.85059C30.1207 7.02683 33.3679 5.09728 37.0747 4.72949V4.66602H39.6665V4.72949C46.217 5.37994 51.3335 10.9072 51.3335 17.6289C51.3332 24.7877 45.5294 30.5915 38.3706 30.5918H38.3696L37.9702 30.6016C33.8606 30.8097 30.5923 34.2078 30.5923 38.3691C30.5925 42.6643 34.0745 46.1472 38.3696 46.1475H40.9624V51.332H38.3696C34.2206 51.3319 30.5303 49.3794 28.1577 46.3467C26.0338 49.2029 22.7069 51.1105 18.9253 51.3154V51.332H18.4058L18.2466 51.334H16.3335V51.2666C9.78294 50.6163 4.66675 45.0907 4.6665 38.3691C4.66654 31.21 10.4702 25.4063 17.6294 25.4062H18.9253V25.2979C21.2524 24.9073 23.2281 23.4834 24.3667 21.5146H24.3657C25.0219 20.3795 25.4012 19.0642 25.4067 17.6602V17.6045C25.4002 15.5298 24.5804 13.6477 23.2505 12.2568C22.9716 11.9653 22.6712 11.6946 22.3501 11.4492C21.8011 11.0293 21.1947 10.6811 20.5444 10.418C20.0384 10.2134 19.5059 10.0606 18.9536 9.96582C18.5232 9.89195 18.0809 9.85158 17.6294 9.85156H9.85205V21.9688C7.90828 22.8921 6.15515 24.1516 4.6665 25.6709V4.66602H17.6294ZM37.9702 9.86133C33.8606 10.0695 30.5923 13.4675 30.5923 17.6289C30.5923 17.8478 30.6029 18.065 30.6206 18.2793H30.5757C30.5741 18.3106 30.5706 18.3418 30.5688 18.373C30.5614 18.5051 30.5519 18.6366 30.5405 18.7676C30.5364 18.8148 30.5334 18.8621 30.5288 18.9092C30.5118 19.0828 30.4911 19.2553 30.4673 19.4268C30.4605 19.4754 30.4531 19.5238 30.4458 19.5723C30.4272 19.6959 30.4064 19.8189 30.3843 19.9414C30.3704 20.0184 30.3565 20.0953 30.3413 20.1719C30.3111 20.3235 30.2791 20.4743 30.2437 20.624C30.2269 20.695 30.2079 20.7654 30.1899 20.8359C30.1646 20.9353 30.1385 21.0343 30.1108 21.1328C30.0889 21.2113 30.0659 21.2893 30.0425 21.3672C30.0148 21.4592 29.9852 21.5505 29.9556 21.6416C29.9189 21.7542 29.8819 21.8663 29.8423 21.9775C29.8066 22.0777 29.77 22.1774 29.7319 22.2764C29.6988 22.3625 29.6643 22.4479 29.6294 22.5332C29.5976 22.6108 29.5649 22.6878 29.5317 22.7646C29.499 22.8403 29.4672 22.9163 29.4331 22.9912C29.3696 23.1307 29.3031 23.2685 29.2349 23.4053C29.2025 23.4702 29.1687 23.5343 29.1353 23.5986C29.0895 23.6867 29.0433 23.7745 28.9956 23.8613C28.9587 23.9284 28.9213 23.9951 28.8833 24.0615C28.8741 24.0776 28.8662 24.0943 28.8569 24.1104L28.855 24.1094C26.8178 27.6302 23.1747 30.1055 18.9253 30.5273V30.5918H17.6294C13.3339 30.5918 9.85209 34.0736 9.85205 38.3691C9.85231 42.6644 13.334 46.1474 17.6294 46.1475H18.2876C22.2233 46.1254 25.4067 42.9292 25.4067 38.9883C25.4067 38.7798 25.3959 38.5731 25.3784 38.3691H25.4067C25.4068 31.6471 30.5237 26.1197 37.0747 25.4697V25.4072H38.2856C38.3136 25.407 38.3416 25.4063 38.3696 25.4062V25.4072H38.3706C42.6657 25.4069 46.1477 21.924 46.1479 17.6289C46.1479 13.3336 42.6659 9.85185 38.3706 9.85156H38.3696L37.9702 9.86133Z" fill="#5A7CE7"/>
</svg>
