<svg xmlns="http://www.w3.org/2000/svg" width="16" height="16" viewBox="0 0 16 16" fill="url(#default)">
	<path fill-rule="evenodd" clip-rule="evenodd" d="M12.0508 2.4747C12.3138 2.34284 12.37 1.98501 12.129 1.81627C11.9977 1.72428 11.8615 1.63741 11.7204 1.556C8.67008 -0.205133 4.53164 1.25214 2.47699 4.8109C1.17363 7.06838 1.02186 9.62921 1.86375 11.6497C1.94128 11.8357 2.15201 11.9241 2.33971 11.8506C3.9202 11.2317 5.61619 9.94106 7.0522 7.45381C8.50763 4.93293 10.2657 3.36984 12.0508 2.4747ZM3.95146 13.5262C3.6885 13.6581 3.6324 14.016 3.87348 14.1847C4.00417 14.2761 4.13966 14.3625 4.27989 14.4434C7.33026 16.2046 11.4687 14.7473 13.5234 11.1885C14.8262 8.93188 14.9784 6.37211 14.1375 4.35199C14.0601 4.16587 13.8493 4.07745 13.6616 4.15092C12.0807 4.76966 10.3842 6.06036 8.94778 8.54822C7.49296 11.068 5.73578 12.6309 3.95146 13.5262Z" />
	<defs>
		<linearGradient id="default" x1="11.7204" y1="1.556" x2="4.27989" y2="14.4434" gradientUnits="userSpaceOnUse">
			<stop stop-color="#6DDED6" />
			<stop offset="1" stop-color="#47CCC7" />
		</linearGradient>
	</defs>
</svg>
