<svg width="84" height="81" viewBox="0 0 84 81" fill="none" xmlns="http://www.w3.org/2000/svg">
<path d="M66.7535 16.3761L66.7551 16.3779C67.7225 17.4697 68.2178 19.0694 68.0187 20.8007L64.4861 41.0013L64.4793 41.0396L64.4746 41.0783C64.1836 43.4669 62.0361 45.3708 59.6033 45.3708H59.5463L59.4895 45.3751L23.7868 48.0909L22.1904 48.2124L22.4154 49.7975L22.7292 52.0072C22.9489 53.7596 24.4849 55.3276 26.3468 55.3276H62.8157C63.166 55.3276 63.4516 55.6152 63.4516 55.9614C63.4516 56.3107 63.1651 56.5973 62.8157 56.5973H26.3468C23.9451 56.5973 21.77 54.6676 21.469 52.1851L21.4672 52.1698L21.465 52.1547L17.6572 25.3415L17.654 25.3191L17.6502 25.2967L15.4894 12.8046C15.248 11.0246 13.6756 9.44758 11.7905 9.44758H8.93003C8.58072 9.44758 8.29413 9.16099 8.29413 8.81168C8.29413 8.46234 8.58068 8.17578 8.93003 8.17578H11.7905C14.2448 8.17578 16.4406 10.1197 16.7426 12.5936L16.7472 12.6308L16.7536 12.6679L16.9267 13.6669L17.1422 14.9108H18.4047H63.522C64.7727 14.9108 65.9123 15.4237 66.7535 16.3761Z" fill="#F6F7F8" stroke="#E8EBEF" stroke-width="3"/>
<path fill-rule="evenodd" clip-rule="evenodd" d="M28.2232 22C27.9062 22 27.7152 22.351 27.8872 22.6172L42.328 44.9558C42.6432 45.4434 43.3565 45.4434 43.6717 44.9558L58.1124 22.6172C58.2845 22.351 58.0934 22 57.7765 22H49.2031C49.0673 22 48.9408 22.0688 48.8671 22.1828L42.9998 31.2591L37.1325 22.1828C37.0588 22.0688 36.9323 22 36.7966 22H28.2232Z" fill="url(#paint0_linear_14797_3816)"/>
<path fill-rule="evenodd" clip-rule="evenodd" d="M49.1874 22C49.0524 22 48.9265 22.0681 48.8526 22.1812L38.1719 38.5234L42.3279 44.9558C42.6431 45.4434 43.3563 45.4434 43.6715 44.9558L58.1123 22.6172C58.2843 22.351 58.0933 22 57.7764 22H49.1874Z" fill="#E8EBEF"/>
<path d="M26.9282 60.5625C24.5134 60.5625 22.5476 62.5284 22.5476 64.9442C22.5476 67.3579 24.5135 69.3237 26.9282 69.3237C29.3429 69.3237 31.3087 67.3578 31.3087 64.9442C31.3087 62.5283 29.3429 60.5625 26.9282 60.5625Z" fill="#E8EBEF"/>
<path d="M58.363 60.5625C55.9472 60.5625 53.9814 62.5284 53.9814 64.9442C53.9814 67.3579 55.9472 69.3237 58.363 69.3237C60.7767 69.3237 62.7425 67.3578 62.7425 64.9442C62.7425 62.5283 60.7767 60.5625 58.363 60.5625Z" fill="#E8EBEF"/>
<path fill-rule="evenodd" clip-rule="evenodd" d="M79.7144 41C79.7144 39.8954 78.8189 39 77.7144 39H38.8572C37.7526 39 36.8572 39.8954 36.8572 41V67.218C36.8572 68.3226 37.7526 69.218 38.8572 69.218H64.7625L71.4591 77.0863C72.0607 77.793 73.2168 77.3704 73.2207 76.4423L73.2505 69.218H77.7144C78.8189 69.218 79.7144 68.3226 79.7144 67.218V41Z" fill="#73B4FA"/>
<path d="M58 45.25C53.168 45.25 49.25 49.168 49.25 54C49.25 58.832 53.168 62.75 58 62.75C62.832 62.75 66.75 58.832 66.75 54C66.75 49.168 62.832 45.25 58 45.25ZM61.75 54.4688C61.75 54.5547 61.6797 54.625 61.5938 54.625H54.4062C54.3203 54.625 54.25 54.5547 54.25 54.4688V53.5312C54.25 53.4453 54.3203 53.375 54.4062 53.375H61.5938C61.6797 53.375 61.75 53.4453 61.75 53.5312V54.4688Z" fill="white"/>
<defs>
<linearGradient id="paint0_linear_14797_3816" x1="42.9998" y1="20" x2="42.9998" y2="45.3215" gradientUnits="userSpaceOnUse">
<stop stop-color="#E8EBEF"/>
<stop offset="1" stop-color="#E8EBEF" stop-opacity="0"/>
</linearGradient>
</defs>
</svg>
