<svg width="16" height="16" viewBox="0 0 16 16" fill="white" xmlns="http://www.w3.org/2000/svg">
	<path fill-rule="evenodd" clip-rule="evenodd" d="M6.24307 12.3799H5.28235C5.20735 12.3799 5.14485 12.4406 5.14485 12.5174V14.3067C5.14485 14.6103 5.38949 14.8549 5.69307 14.8549H13.9776C14.2812 14.8549 14.5258 14.6103 14.5258 14.3067V1.68884C14.5258 1.38527 14.2812 1.14062 13.9776 1.14062H5.69128C5.38771 1.14062 5.14307 1.38527 5.14307 1.68884V3.47813C5.14307 3.55491 5.20557 3.61563 5.28057 3.61563H6.24128C6.31628 3.61563 6.37878 3.55313 6.37878 3.47813V2.37455H13.2919V13.621H6.38057V12.5174C6.38057 12.4424 6.31807 12.3799 6.24307 12.3799ZM7.5173 5.88494L10.0512 7.88494C10.0683 7.89831 10.0821 7.91538 10.0916 7.93487C10.1011 7.95436 10.106 7.97576 10.106 7.99744C10.106 8.01913 10.1011 8.04052 10.0916 8.06002C10.0821 8.07951 10.0683 8.09658 10.0512 8.10994L7.5173 10.1099C7.42444 10.1849 7.28516 10.1171 7.28516 9.99745V8.6403H1.67801C1.59944 8.6403 1.53516 8.57602 1.53516 8.49744V7.49744C1.53516 7.41887 1.59944 7.35459 1.67801 7.35459H7.28516V5.99744C7.28516 5.8778 7.42266 5.80994 7.5173 5.88494Z" fill-opacity="0.85" />
</svg>
