<svg xmlns="http://www.w3.org/2000/svg" width="21" height="21" viewBox="0 0 21 21" fill="none">
  <path fill-rule="evenodd" clip-rule="evenodd" d="M3.86091 8.81682C3.72688 9.35577 3.65575 9.91958 3.65575 10.5C3.65575 11.0375 3.71674 11.5607 3.83219 12.0631H5.90871C5.85189 11.5559 5.82233 11.0332 5.82233 10.5C5.82233 9.92462 5.85675 9.36143 5.92271 8.81682H3.86091ZM4.30953 7.55293H6.13912C6.36731 6.53378 6.71179 5.60878 7.14965 4.82856C7.2546 4.64155 7.36629 4.46079 7.48443 4.28773C6.09436 4.98783 4.97147 6.14081 4.30953 7.55293ZM10.6709 2.28497C10.6496 2.28481 10.6282 2.28473 10.6068 2.28473C6.06953 2.28473 2.39157 5.96298 2.39157 10.5C2.39157 15.037 6.06953 18.7153 10.6068 18.7153C10.6282 18.7153 10.6496 18.7152 10.6709 18.715C10.684 18.7152 10.6971 18.7153 10.7102 18.7153C10.7647 18.7153 10.8189 18.7139 10.8727 18.7111C15.287 18.5707 18.8221 14.9481 18.8221 10.5C18.8221 6.05194 15.287 2.42929 10.8727 2.28895C10.8189 2.28615 10.7647 2.28473 10.7102 2.28473C10.6971 2.28473 10.684 2.28481 10.6709 2.28497ZM9.97097 3.7043C9.36338 3.96062 8.76352 4.53579 8.25215 5.447C7.91781 6.04276 7.63927 6.75537 7.43841 7.55293H9.97097V3.7043ZM9.97097 8.81682H7.19705C7.12505 9.35434 7.08651 9.91786 7.08651 10.5C7.08651 11.039 7.11954 11.5619 7.18158 12.0631H9.97097V8.81682ZM11.2351 12.0631V8.81682H14.2233C14.2953 9.35434 14.3338 9.91786 14.3338 10.5C14.3338 11.039 14.3008 11.5619 14.2388 12.0631H11.2351ZM9.97097 13.327H7.40891C7.61161 14.1732 7.90112 14.9275 8.25215 15.553C8.76352 16.4642 9.36338 17.0394 9.97097 17.2957V13.327ZM7.48443 16.7123C7.36629 16.5392 7.2546 16.3585 7.14965 16.1715C6.69466 15.3607 6.34049 14.3936 6.11287 13.327H4.25463C4.90835 14.7938 6.05517 15.9924 7.48443 16.7123ZM14.0496 16.5403C15.3297 15.809 16.3549 14.6825 16.9591 13.327H15.3075C15.0798 14.3936 14.7257 15.3607 14.2707 16.1715C14.2 16.2974 14.1263 16.4205 14.0496 16.5403ZM14.0114 13.327H11.2351V17.3728C11.9149 17.1698 12.5968 16.5712 13.1682 15.553C13.5192 14.9275 13.8087 14.1732 14.0114 13.327ZM15.5116 12.0631H17.3815C17.497 11.5607 17.5579 11.0375 17.5579 10.5C17.5579 9.91958 17.4868 9.35577 17.3528 8.81682H15.4976C15.5636 9.36143 15.598 9.92462 15.598 10.5C15.598 11.0332 15.5684 11.5559 15.5116 12.0631ZM15.2812 7.55293C15.053 6.53378 14.7085 5.60878 14.2707 4.82856C14.2 4.70265 14.1263 4.57956 14.0496 4.45975C15.2917 5.1693 16.2939 6.25097 16.9042 7.55293H15.2812ZM13.9819 7.55293H11.2351V3.62717C11.9149 3.83018 12.5968 4.42879 13.1682 5.447C13.5025 6.04276 13.7811 6.75537 13.9819 7.55293Z" fill="#000000" class="nv-transition-colors"/>
</svg>
