<svg xmlns="http://www.w3.org/2000/svg" class="icon-premium" width="16" height="16" viewBox="0 0 16 16" fill="url(#default)">
	<style>svg.icon-premium { fill: url(#default); } svg.icon-premium path+path { fill: white; } svg.icon-premium.standard { fill: url(#standard); } svg.icon-premium.standard path+path { fill: #6AA9EC; } svg.icon-premium.profession { fill: url(#profession); } svg.icon-premium.profession path+path { fill: #3A57E6; } svg.icon-premium.enterprise,svg.icon-premium.outstanding { fill: url(#enterprise); } svg.icon-premium.enterprise path+path,svg.icon-premium.outstanding path+path { fill: #24304B; }</style>
  <path fill-rule="evenodd" clip-rule="evenodd" d="M0.97902 2C0.662096 2 0.471044 2.351 0.643099 2.61716L7.66399 13.4779C7.82159 13.7217 8.17823 13.7217 8.33583 13.4779L15.3567 2.61715C15.5288 2.351 15.3377 2 15.0208 2H11.2104C11.0746 2 10.9482 2.06884 10.8745 2.18284L7.99991 6.62955L5.12535 2.18284C5.05166 2.06884 4.92518 2 4.78943 2H0.97902Z" />
	<path fill-rule="evenodd" clip-rule="evenodd" d="M11.2019 2C11.0669 2 10.941 2.06813 10.8671 2.18117L5.58594 10.2617L7.66393 13.4779C7.82153 13.7217 8.17817 13.7217 8.33577 13.4779L15.3567 2.61715C15.5287 2.351 15.3377 2 15.0207 2H11.2019Z" />
	<defs>
		<linearGradient id="default" x1="7.99988" y1="1" x2="7.99988" y2="13.6607" gradientUnits="userSpaceOnUse">
			<stop stop-color="white" />
			<stop offset="1" stop-color="white" stop-opacity="0" />
		</linearGradient>
		<linearGradient id="standard" x1="7.99988" y1="-1" x2="7.99988" y2="11.6607" gradientUnits="userSpaceOnUse">
			<stop stop-color="#6AA9EC" />
			<stop offset="1" stop-color="#6AA9EC" stop-opacity="0" />
		</linearGradient>
		<linearGradient id="profession" x1="7.99988" y1="1" x2="7.99988" y2="13.6607" gradientUnits="userSpaceOnUse">
			<stop stop-color="#3A57E6" />
			<stop offset="1" stop-color="#3A57E6" stop-opacity="0" />
		</linearGradient>
		<linearGradient id="enterprise" x1="7.99988" y1="3" x2="7.99988" y2="15.6607" gradientUnits="userSpaceOnUse">
			<stop stop-color="#24304B" />
			<stop offset="1" stop-color="#24304B" stop-opacity="0" />
		</linearGradient>
	</defs>
</svg>
