<svg width="20" height="20" viewBox="0 0 20 20" fill="none" xmlns="http://www.w3.org/2000/svg">
<path d="M4.69141 6.5498C3.77951 7.69533 3.23538 9.14515 3.23535 10.7236C3.23535 14.4278 6.23824 17.4307 9.94238 17.4307C13.6464 17.4305 16.6494 14.4277 16.6494 10.7236H18.0088C18.0088 15.1788 14.3975 18.7908 9.94238 18.791C5.48709 18.791 1.875 15.1789 1.875 10.7236C1.87503 8.82663 2.53042 7.08069 3.62695 5.70312L4.69141 6.5498ZM14.7109 3.12598C14.8085 3.0284 14.9668 3.02852 15.0645 3.12598L17.8057 5.86719C17.9033 5.96482 17.9033 6.12307 17.8057 6.2207L10.709 13.3184L7.11035 14.0928C6.93206 14.1312 6.77377 13.9719 6.81348 13.7939L7.61426 10.2236L14.7109 3.12598ZM7.55371 1.43457C7.63425 1.21692 7.94192 1.21692 8.02246 1.43457L8.66992 3.18457C8.69525 3.25278 8.74918 3.3067 8.81738 3.33203L10.5674 3.97949C10.785 4.06003 10.785 4.3677 10.5674 4.44824L8.81738 5.0957C8.74918 5.12103 8.69525 5.17496 8.66992 5.24316L8.02246 6.99316C7.94192 7.21082 7.63425 7.21082 7.55371 6.99316L6.90625 5.24316C6.88092 5.17496 6.827 5.12103 6.75879 5.0957L5.00879 4.44824C4.79113 4.3677 4.79113 4.06003 5.00879 3.97949L6.75879 3.33203C6.827 3.3067 6.88092 3.25278 6.90625 3.18457L7.55371 1.43457Z" fill="#5C6B7A"/>
</svg>
