<svg width="20" height="20" viewBox="0 0 20 20" fill="none" xmlns="http://www.w3.org/2000/svg">
<mask id="path-1-inside-1_182_16023" fill="white">
<path fill-rule="evenodd" clip-rule="evenodd" d="M7.70875 4.96484C4.91875 4.96484 2.64125 7.06984 2.50625 9.71484L2.5 9.96484V14.9648C2.5 15.6552 3.05964 16.2148 3.75 16.2148H7.5C8.19036 16.2148 8.75 15.6552 8.75 14.9648V11.2148C8.75 10.5245 8.19036 9.96484 7.5 9.96484H4.58375C4.58375 8.30734 5.9825 6.96484 7.70875 6.96484C8.28375 6.96484 8.75 6.51734 8.75 5.96484C8.75 5.41234 8.28375 4.96484 7.70875 4.96484ZM15.8337 4.96484C13.0437 4.96484 10.7662 7.06984 10.6313 9.71484L10.625 9.96484V14.9648C10.625 15.6552 11.1846 16.2148 11.875 16.2148H15.625C16.3154 16.2148 16.875 15.6552 16.875 14.9648V11.2148C16.875 10.5245 16.3154 9.96484 15.625 9.96484H12.7087C12.7087 8.30734 14.1075 6.96484 15.8337 6.96484C16.4087 6.96484 16.875 6.51734 16.875 5.96484C16.875 5.41234 16.4087 4.96484 15.8337 4.96484Z"/>
</mask>
<path d="M2.50625 9.71484L1.0082 9.63838L1.00721 9.65786L1.00672 9.67736L2.50625 9.71484ZM2.5 9.96484L1.00047 9.92736L1 9.9461V9.96484H2.5ZM4.58375 9.96484H3.08375V11.4648H4.58375V9.96484ZM10.6313 9.71484L9.1332 9.63838L9.13221 9.65786L9.13172 9.67735L10.6313 9.71484ZM10.625 9.96484L9.12547 9.92735L9.125 9.9461V9.96484H10.625ZM12.7087 9.96484H11.2087V11.4648H12.7087V9.96484ZM2.50625 9.71484L4.0043 9.7913C4.09607 7.9933 5.66712 6.46484 7.70875 6.46484V4.96484V3.46484C4.17038 3.46484 1.18643 6.14639 1.0082 9.63838L2.50625 9.71484ZM2.5 9.96484L3.99953 10.0023L4.00578 9.75233L2.50625 9.71484L1.00672 9.67736L1.00047 9.92736L2.5 9.96484ZM2.5 14.9648H4V9.96484H2.5H1V14.9648H2.5ZM3.75 16.2148V14.7148C3.88807 14.7148 4 14.8268 4 14.9648H2.5H1C1 16.4836 2.23122 17.7148 3.75 17.7148V16.2148ZM7.5 16.2148V14.7148H3.75V16.2148V17.7148H7.5V16.2148ZM8.75 14.9648H7.25C7.25 14.8268 7.36193 14.7148 7.5 14.7148V16.2148V17.7148C9.01878 17.7148 10.25 16.4836 10.25 14.9648H8.75ZM8.75 11.2148H7.25V14.9648H8.75H10.25V11.2148H8.75ZM7.5 9.96484V11.4648C7.36193 11.4648 7.25 11.3529 7.25 11.2148H8.75H10.25C10.25 9.69606 9.01878 8.46484 7.5 8.46484V9.96484ZM4.58375 9.96484V11.4648H7.5V9.96484V8.46484H4.58375V9.96484ZM7.70875 6.96484V5.46484C5.21247 5.46484 3.08375 7.4217 3.08375 9.96484H4.58375H6.08375C6.08375 9.19299 6.75253 8.46484 7.70875 8.46484V6.96484ZM8.75 5.96484H7.25C7.25 5.63208 7.51332 5.46484 7.70875 5.46484V6.96484V8.46484C9.05417 8.46484 10.25 7.40261 10.25 5.96484H8.75ZM7.70875 4.96484V6.46484C7.51332 6.46484 7.25 6.29761 7.25 5.96484H8.75H10.25C10.25 4.52708 9.05417 3.46484 7.70875 3.46484V4.96484ZM10.6313 9.71484L12.1293 9.7913C12.2211 7.9933 13.7921 6.46484 15.8337 6.46484V4.96484V3.46484C12.2954 3.46484 9.31143 6.14639 9.1332 9.63838L10.6313 9.71484ZM10.625 9.96484L12.1245 10.0023L12.1308 9.75233L10.6313 9.71484L9.13172 9.67735L9.12547 9.92735L10.625 9.96484ZM10.625 14.9648H12.125V9.96484H10.625H9.125V14.9648H10.625ZM11.875 16.2148V14.7148C12.0131 14.7148 12.125 14.8268 12.125 14.9648H10.625H9.125C9.125 16.4836 10.3562 17.7148 11.875 17.7148V16.2148ZM15.625 16.2148V14.7148H11.875V16.2148V17.7148H15.625V16.2148ZM16.875 14.9648H15.375C15.375 14.8268 15.4869 14.7148 15.625 14.7148V16.2148V17.7148C17.1438 17.7148 18.375 16.4836 18.375 14.9648H16.875ZM16.875 11.2148H15.375V14.9648H16.875H18.375V11.2148H16.875ZM15.625 9.96484V11.4648C15.4869 11.4648 15.375 11.3529 15.375 11.2148H16.875H18.375C18.375 9.69606 17.1438 8.46484 15.625 8.46484V9.96484ZM12.7087 9.96484V11.4648H15.625V9.96484V8.46484H12.7087V9.96484ZM15.8337 6.96484V5.46484C13.3375 5.46484 11.2087 7.4217 11.2087 9.96484H12.7087H14.2087C14.2087 9.19299 14.8775 8.46484 15.8337 8.46484V6.96484ZM16.875 5.96484H15.375C15.375 5.63208 15.6383 5.46484 15.8337 5.46484V6.96484V8.46484C17.1792 8.46484 18.375 7.40261 18.375 5.96484H16.875ZM15.8337 4.96484V6.46484C15.6383 6.46484 15.375 6.29761 15.375 5.96484H16.875H18.375C18.375 4.52708 17.1792 3.46484 15.8337 3.46484V4.96484Z" fill="#5C6B7A" mask="url(#path-1-inside-1_182_16023)"/>
</svg>
