<svg width="20" height="20" viewBox="0 0 20 20" fill="none" xmlns="http://www.w3.org/2000/svg">
<path d="M18.3925 13.7486H17.1872V10.6236H10.7586V8.57003H16.0711C16.2675 8.57003 16.4282 8.40932 16.4282 8.21289V2.32003C16.4282 2.1236 16.2675 1.96289 16.0711 1.96289H3.92822C3.73179 1.96289 3.57108 2.1236 3.57108 2.32003V8.21289C3.57108 8.40932 3.73179 8.57003 3.92822 8.57003H9.24072V10.6236H2.81215V13.7486H1.60679C1.50858 13.7486 1.42822 13.829 1.42822 13.9272V17.8557C1.42822 17.954 1.50858 18.0343 1.60679 18.0343H5.53537C5.63358 18.0343 5.71394 17.954 5.71394 17.8557V13.9272C5.71394 13.829 5.63358 13.7486 5.53537 13.7486H4.33001V12.1415H9.24072V13.7486H8.03537C7.93715 13.7486 7.8568 13.829 7.8568 13.9272V17.8557C7.8568 17.954 7.93715 18.0343 8.03537 18.0343H11.9639C12.0622 18.0343 12.1425 17.954 12.1425 17.8557V13.9272C12.1425 13.829 12.0622 13.7486 11.9639 13.7486H10.7586V12.1415H15.6693V13.7486H14.4639C14.3657 13.7486 14.2854 13.829 14.2854 13.9272V17.8557C14.2854 17.954 14.3657 18.0343 14.4639 18.0343H18.3925C18.4907 18.0343 18.5711 17.954 18.5711 17.8557V13.9272C18.5711 13.829 18.4907 13.7486 18.3925 13.7486ZM4.28537 16.5455C4.28537 16.579 4.25858 16.6057 4.2251 16.6057H2.91483C2.88135 16.6057 2.85456 16.579 2.85456 16.5455V15.2352C2.85456 15.2017 2.88135 15.1749 2.91483 15.1749H4.2251C4.25858 15.1749 4.28537 15.2017 4.28537 15.2352V16.5455ZM10.7139 16.5455C10.7139 16.579 10.6872 16.6057 10.6537 16.6057H9.3434C9.30992 16.6057 9.28313 16.579 9.28313 16.5455V15.2352C9.28313 15.2017 9.30992 15.1749 9.3434 15.1749H10.6537C10.6872 15.1749 10.7139 15.2017 10.7139 15.2352V16.5455ZM4.99965 7.14146V3.39146H14.9997V7.14146H4.99965ZM17.1425 16.5455C17.1425 16.579 17.1157 16.6057 17.0822 16.6057H15.772C15.7385 16.6057 15.7117 16.579 15.7117 16.5455V15.2352C15.7117 15.2017 15.7385 15.1749 15.772 15.1749H17.0822C17.1157 15.1749 17.1425 15.2017 17.1425 15.2352V16.5455ZM6.6068 5.26646C6.6068 5.50326 6.70086 5.73036 6.86831 5.89781C7.03575 6.06525 7.26285 6.15932 7.49965 6.15932C7.73645 6.15932 7.96355 6.06525 8.131 5.89781C8.29844 5.73036 8.39251 5.50326 8.39251 5.26646C8.39251 5.02966 8.29844 4.80256 8.131 4.63512C7.96355 4.46767 7.73645 4.37361 7.49965 4.37361C7.26285 4.37361 7.03575 4.46767 6.86831 4.63512C6.70086 4.80256 6.6068 5.02966 6.6068 5.26646Z" fill="#5A7CE7"/>
</svg>
