<svg width="20" height="20" viewBox="0 0 20 20" fill="none" xmlns="http://www.w3.org/2000/svg">
<g clip-path="url(#clip0_195_426)">
<path d="M17.1429 10C17.2367 10 17.3297 10.0188 17.4163 10.0547C17.5028 10.0906 17.5816 10.1428 17.6478 10.209L19.7903 12.3525C19.8567 12.4188 19.9097 12.4973 19.9456 12.584C19.9815 12.6706 20.0003 12.7637 20.0003 12.8574C20.0003 12.9511 19.9815 13.0443 19.9456 13.1309C19.9097 13.2174 19.8566 13.2961 19.7903 13.3623L13.1526 20H10.0003V16.8467L16.638 10.209C16.7042 10.1428 16.783 10.0906 16.8694 10.0547C16.9561 10.0188 17.0491 10 17.1429 10ZM16.6663 0C17.0613 0 17.3809 0.318971 17.3812 0.713867V8.03613C17.3809 8.13412 17.3005 8.21381 17.2025 8.21387H15.9525C15.8544 8.21387 15.774 8.13416 15.7737 8.03613V1.60742H3.27374V17.3213H8.45245C8.55062 17.3213 8.63116 17.4018 8.63116 17.5V18.75C8.63116 18.8482 8.55062 18.9287 8.45245 18.9287H2.38116C1.98608 18.9287 1.66632 18.609 1.66632 18.2139V0.713867C1.66655 0.318971 1.98621 0 2.38116 0H16.6663ZM11.429 17.4385V18.5713H12.5618L16.1331 15L15.0003 13.8672L11.429 17.4385ZM16.0101 12.8574L17.1429 13.9902L18.2757 12.8574L17.1429 11.7246L16.0101 12.8574ZM9.34503 7.23242C9.44325 7.23242 9.52374 7.31292 9.52374 7.41113V8.48242C9.52359 8.58051 9.44315 8.66113 9.34503 8.66113H5.23761C5.1397 8.66088 5.06003 8.58036 5.05988 8.48242V7.41113C5.05988 7.31307 5.13961 7.23267 5.23761 7.23242H9.34503ZM13.8099 4.01758C13.9079 4.01778 13.9875 4.09826 13.9876 4.19629V5.26758C13.9876 5.36567 13.9079 5.44608 13.8099 5.44629H5.23761C5.13961 5.44604 5.05988 5.36564 5.05988 5.26758V4.19629C5.05995 4.09829 5.13965 4.01783 5.23761 4.01758H13.8099Z" fill="#5C6B7A"/>
</g>
<defs>
<clipPath id="clip0_195_426">
<rect width="20" height="20" fill="white"/>
</clipPath>
</defs>
</svg>
