<svg width="20" height="20" viewBox="0 0 20 20" fill="none" xmlns="http://www.w3.org/2000/svg">
<path d="M17.9647 14.3896H17.9628C17.9629 14.3951 17.9647 14.4008 17.9647 14.4062C17.9645 14.7651 17.6732 15.0566 17.3143 15.0566H5.07312C4.11311 15.0569 3.33485 15.8349 3.33484 16.7949C3.33505 17.7548 4.11323 18.533 5.07312 18.5332H17.3143C17.6733 18.5332 17.9647 18.8246 17.9647 19.1836C17.9645 19.5424 17.6732 19.834 17.3143 19.834H5.07312C3.39526 19.8337 2.03427 18.4728 2.03406 16.7949C2.03406 16.7012 2.03942 16.6082 2.04773 16.5166H2.03406V1.21777C2.03408 0.638046 2.50516 0.167243 3.08484 0.166992H17.9647V14.3896ZM17.2499 16C17.6641 16 17.9999 16.3358 17.9999 16.75C17.9999 17.1642 17.6641 17.5 17.2499 17.5H4.74988C4.33572 17.4999 3.99988 17.1642 3.99988 16.75C3.99988 16.3358 4.33572 16.0001 4.74988 16H17.2499ZM3.33484 14.3037C3.82758 13.9591 4.42633 13.756 5.07312 13.7559H16.6649V1.46777H3.33484V14.3037ZM14.2577 2.49512C14.4235 2.52809 14.5756 2.61013 14.6942 2.73047C14.8139 2.85094 14.8958 3.00425 14.9286 3.1709C14.9613 3.33753 14.943 3.51021 14.8778 3.66699L11.3524 12.1758C11.2902 12.3317 11.1828 12.4654 11.0438 12.5596C10.9049 12.6536 10.7409 12.7042 10.5731 12.7041C10.5301 12.7041 10.4868 12.7006 10.4442 12.6943C10.2557 12.668 10.0815 12.5791 9.95007 12.4414C9.81864 12.3037 9.738 12.1251 9.72058 11.9355L9.32312 8.14062L5.55457 7.74023C5.36604 7.71889 5.18988 7.6359 5.05359 7.50391C4.91734 7.37189 4.828 7.19847 4.80066 7.01074C4.7734 6.82306 4.80928 6.63113 4.90222 6.46582C4.99535 6.30041 5.14152 6.16981 5.31628 6.0957L13.7645 2.5459C13.9202 2.48013 14.0919 2.46215 14.2577 2.49512ZM6.77917 6.7207L9.67078 7.02734C9.86487 7.04934 10.0458 7.13683 10.1835 7.27539C10.3212 7.41414 10.408 7.59658 10.4286 7.79102L10.7333 10.7031L13.5643 3.86914L6.77917 6.7207Z" fill="#5C6B7A"/>
</svg>
