<svg width="20" height="20" viewBox="0 0 20 20" fill="none" xmlns="http://www.w3.org/2000/svg">
<g clip-path="url(#clip0_183_16242)">
<path d="M1.69643 2.77065H14.7321V6.43136H16.4286V1.7885C16.4286 1.39342 16.1094 1.07422 15.7143 1.07422H0.714286C0.319196 1.07422 0 1.39342 0 1.7885V18.2171C0 18.6122 0.319196 18.9314 0.714286 18.9314H12.8571V17.2349H1.69643V2.77065Z" fill="#5A7CE7"/>
<path d="M7.81923 4.27765H6.46655C6.39066 4.27765 6.3237 4.32676 6.29691 4.39819L3.45986 12.6125C3.45316 12.6303 3.45093 12.6504 3.45093 12.6705C3.45093 12.7687 3.53128 12.8491 3.6295 12.8491H4.85941C4.9353 12.8491 5.00227 12.8 5.02905 12.7285L5.75896 10.6169H10.1384L7.99111 4.39819C7.9777 4.36328 7.95418 4.33316 7.92357 4.31169C7.89295 4.29022 7.85662 4.27837 7.81923 4.27765ZM8.09602 9.36694H6.18753L7.14289 6.60355L8.09602 9.36694ZM19.4643 10.3491H16.4286V8.27319C16.4286 8.17498 16.3483 8.09462 16.25 8.09462H15C14.9018 8.09462 14.8215 8.17498 14.8215 8.27319V10.3491H11.7857C11.4889 10.3491 11.25 10.5879 11.25 10.8848V14.8134C11.25 15.1102 11.4889 15.3491 11.7857 15.3491H14.8215V18.7419C14.8215 18.8402 14.9018 18.9205 15 18.9205H16.25C16.3483 18.9205 16.4286 18.8402 16.4286 18.7419V15.3491H19.4643C19.7612 15.3491 20 15.1102 20 14.8134V10.8848C20 10.5879 19.7612 10.3491 19.4643 10.3491ZM14.8215 13.7419H12.8572V11.9562H14.8215V13.7419ZM18.3929 13.7419H16.4286V11.9562H18.3929V13.7419Z" fill="#5A7CE7"/>
</g>
<defs>
<clipPath id="clip0_183_16242">
<rect width="20" height="20" fill="white"/>
</clipPath>
</defs>
</svg>
