<svg width="20" height="20" viewBox="0 0 20 20" fill="none" xmlns="http://www.w3.org/2000/svg">
<path d="M11.7581 4.32812C12.3997 3.06154 13.4328 3.06118 14.0745 4.33594L15.2493 6.68652C15.4077 7.01147 15.8334 7.31909 16.1917 7.38574L18.3167 7.73633C19.6746 7.96147 19.9908 8.94451 19.0159 9.92773L17.3577 11.5859C17.0827 11.8609 16.9242 12.4033 17.0159 12.7949L17.4915 14.8447C17.8663 16.4612 16.9994 17.0941 15.5745 16.2441L13.5833 15.0615C13.2249 14.8449 12.6242 14.8449 12.2659 15.0615L10.2747 16.2441C8.84973 17.0858 7.9828 16.4612 8.35767 14.8447L8.83325 12.7949C8.90823 12.3951 8.74968 11.8532 8.47485 11.5781L6.81665 9.91992C5.84172 8.94499 6.15777 7.96096 7.51587 7.72754L9.64087 7.37793C9.9992 7.3196 10.4249 7.00273 10.5833 6.67773L11.7581 4.32812ZM6.04126 16.25H2.29126V15H6.04126V16.25ZM4.79126 10H2.29126V8.75H4.79126V10ZM8.54126 4.78516H2.29126V3.53516H8.54126V4.78516Z" fill="#5C6B7A"/>
</svg>
