<svg width="20" height="20" viewBox="0 0 20 20" fill="none" xmlns="http://www.w3.org/2000/svg">
<g clip-path="url(#clip0_195_420)">
<path d="M5.53881 11.7738C5.60801 11.843 5.72184 11.843 5.79104 11.7738L8.06336 9.50144L9.98524 11.4255C10.0544 11.4947 10.1683 11.4947 10.2375 11.4255L15.2888 6.36974C15.358 6.30054 15.358 6.1867 15.2888 6.11751L14.4674 5.29608C14.4338 5.26285 14.3885 5.2442 14.3413 5.2442C14.294 5.2442 14.2487 5.26285 14.2151 5.29608L10.1125 9.40322L8.19059 7.47912C8.15703 7.44588 8.11171 7.42724 8.06448 7.42724C8.01725 7.42724 7.97192 7.44588 7.93836 7.47912L4.71738 10.7001C4.68415 10.7337 4.6655 10.779 4.6655 10.8262C4.6655 10.8734 4.68415 10.9188 4.71738 10.9523L5.53881 11.7738Z" fill="#5A7CE7"/>
<path d="M18.749 2.14425H10.8026V0.715681C10.8026 0.617467 10.7222 0.537109 10.624 0.537109H9.37399C9.27577 0.537109 9.19541 0.617467 9.19541 0.715681V2.14425H1.24898C0.853895 2.14425 0.534698 2.46345 0.534698 2.85854V14.4657C0.534698 14.8608 0.853895 15.18 1.24898 15.18H9.20434V15.8943L5.52577 18.3072C5.50622 18.3199 5.48937 18.3363 5.47619 18.3556C5.46302 18.3748 5.45378 18.3965 5.44901 18.4193C5.44424 18.4421 5.44403 18.4656 5.44839 18.4886C5.45275 18.5115 5.4616 18.5333 5.47443 18.5527L6.15077 19.6063V19.6085C6.20434 19.6911 6.31595 19.7134 6.39854 19.6599L9.99899 17.2983L13.5994 19.6599C13.682 19.7134 13.7936 19.6911 13.8472 19.6085V19.6063L14.5235 18.5527C14.549 18.5133 14.5579 18.4654 14.5482 18.4194C14.5386 18.3735 14.5113 18.3332 14.4722 18.3072L10.8026 15.9009V15.18H18.749C19.1441 15.18 19.4633 14.8608 19.4633 14.4657V2.85854C19.4633 2.46345 19.1441 2.14425 18.749 2.14425ZM17.8561 13.5728H2.14184V3.7514H17.8561V13.5728Z" fill="#5A7CE7"/>
</g>
<defs>
<clipPath id="clip0_195_420">
<rect width="20" height="20" fill="white"/>
</clipPath>
</defs>
</svg>
