<svg width="20" height="20" viewBox="0 0 20 20" fill="none" xmlns="http://www.w3.org/2000/svg">
<path d="M17.6784 6.96289H13.0355V2.32003C13.0355 2.1236 12.8748 1.96289 12.6784 1.96289H2.32126C2.12483 1.96289 1.96412 2.1236 1.96412 2.32003V12.6772C1.96412 12.8736 2.12483 13.0343 2.32126 13.0343H6.96412V17.6772C6.96412 17.8736 7.12483 18.0343 7.32126 18.0343H17.6784C17.8748 18.0343 18.0355 17.8736 18.0355 17.6772V7.32003C18.0355 7.12361 17.8748 6.96289 17.6784 6.96289ZM6.96412 7.32003V11.5165H3.48198V3.48075H11.5177V6.96289H7.32126C7.12483 6.96289 6.96412 7.12361 6.96412 7.32003ZM11.5177 8.48075V11.5165H8.48198V8.48075H11.5177ZM16.5177 16.5165H8.48198V13.0343H12.6784C12.8748 13.0343 13.0355 12.8736 13.0355 12.6772V8.48075H16.5177V16.5165Z" fill="#5C6B7A"/>
</svg>
