<svg width="20" height="20" viewBox="0 0 20 20" fill="none" xmlns="http://www.w3.org/2000/svg">
<path d="M11.6433 5.5791C11.7273 5.36989 12.0233 5.36983 12.1072 5.5791L14.0271 10.3682C14.0542 10.4357 14.1096 10.4882 14.1785 10.5117L19.3074 12.2637C19.5329 12.3407 19.5328 12.6592 19.3074 12.7363L14.1785 14.4893C14.1095 14.5128 14.0542 14.5652 14.0271 14.6328L12.1072 19.4209C12.0233 19.6302 11.7272 19.6302 11.6433 19.4209L9.72339 14.6328C9.69632 14.5653 9.64085 14.5128 9.57202 14.4893L4.44312 12.7363C4.21753 12.6593 4.21753 12.3407 4.44312 12.2637L9.57202 10.5117C9.64092 10.4882 9.69629 10.4357 9.72339 10.3682L11.6433 5.5791ZM4.14526 3.03223C4.23213 2.83101 4.51738 2.83101 4.60425 3.03223L5.51147 5.13281C5.54021 5.19925 5.59676 5.2496 5.66577 5.27148L7.99878 6.01172C8.23124 6.08549 8.23116 6.41442 7.99878 6.48828L5.66577 7.22852C5.59671 7.25042 5.54019 7.30164 5.51147 7.36816L4.60425 9.46875C4.51725 9.66965 4.23214 9.66977 4.14526 9.46875L3.23901 7.36816C3.21031 7.30167 3.15375 7.25043 3.08472 7.22852L0.751709 6.48828C0.519152 6.41452 0.519152 6.08548 0.751709 6.01172L3.08472 5.27148C3.15369 5.24955 3.21032 5.19927 3.23901 5.13281L4.14526 3.03223ZM9.25757 0.942383C9.29784 0.833556 9.45167 0.833556 9.49194 0.942383L9.86108 1.93945C9.87374 1.97365 9.90111 2.001 9.9353 2.01367L10.9333 2.38281C11.042 2.42311 11.0419 2.5768 10.9333 2.61719L9.9353 2.98633C9.90109 2.99899 9.87374 3.02633 9.86108 3.06055L9.49194 4.05859C9.45153 4.16711 9.29787 4.16722 9.25757 4.05859L8.88843 3.06055C8.87576 3.02634 8.84842 2.99899 8.81421 2.98633L7.81714 2.61719C7.70831 2.57692 7.70831 2.42308 7.81714 2.38281L8.81421 2.01367C8.84842 2.00101 8.87577 1.97367 8.88843 1.93945L9.25757 0.942383Z" fill="#5A7CE7"/>
</svg>
