<svg width="20" height="20" viewBox="0 0 20 20" fill="none" xmlns="http://www.w3.org/2000/svg">
<path d="M17.6726 3.2726L16.7261 2.32617C16.6926 2.29294 16.6472 2.2743 16.6 2.2743C16.5528 2.2743 16.5075 2.29294 16.4739 2.32617L2.3288 16.4668C2.29557 16.5004 2.27692 16.5457 2.27692 16.5929C2.27692 16.6401 2.29557 16.6855 2.3288 16.719L3.27523 17.6655C3.34442 17.7347 3.45826 17.7347 3.52746 17.6655L17.6703 3.5226C17.7417 3.45564 17.7417 3.3418 17.6726 3.2726ZM5.35782 8.56724C7.13014 8.56724 8.5721 7.12528 8.5721 5.35296C8.5721 3.58064 7.13014 2.13867 5.35782 2.13867C3.5855 2.13867 2.14353 3.58064 2.14353 5.35296C2.14353 7.12528 3.5855 8.56724 5.35782 8.56724ZM5.35782 3.74581C6.24398 3.74581 6.96496 4.4668 6.96496 5.35296C6.96496 6.23912 6.24398 6.9601 5.35782 6.9601C4.47166 6.9601 3.75067 6.23912 3.75067 5.35296C3.75067 4.4668 4.47166 3.74581 5.35782 3.74581ZM14.6435 11.4244C12.8712 11.4244 11.4292 12.8664 11.4292 14.6387C11.4292 16.411 12.8712 17.853 14.6435 17.853C16.4159 17.853 17.8578 16.411 17.8578 14.6387C17.8578 12.8664 16.4159 11.4244 14.6435 11.4244ZM14.6435 16.2458C13.7574 16.2458 13.0364 15.5248 13.0364 14.6387C13.0364 13.7525 13.7574 13.0315 14.6435 13.0315C15.5297 13.0315 16.2507 13.7525 16.2507 14.6387C16.2507 15.5248 15.5297 16.2458 14.6435 16.2458Z" fill="#5C6B7A"/>
</svg>
