<svg width="20" height="20" viewBox="0 0 20 20" fill="none" xmlns="http://www.w3.org/2000/svg">
<path d="M2.5 11.25C2.50009 12.8606 3.12193 14.409 4.23582 15.5722C5.34972 16.7355 6.86969 17.4239 8.47875 17.4937L8.75 17.5V18.75C6.76088 18.75 4.85322 17.9598 3.4467 16.5533C2.04018 15.1468 1.25 13.2391 1.25 11.25H2.5ZM15 10L18.75 18.75H17.5L16.4287 16.25H12.3213L11.25 18.75H10L13.75 10H15ZM14.375 11.4587L12.8575 15H15.8925L14.375 11.4587ZM6.25 1.25V2.5H8.75C9.08152 2.5 9.39946 2.6317 9.63388 2.86612C9.8683 3.10054 10 3.41848 10 3.75V6.25C10 6.58152 9.8683 6.89946 9.63388 7.13388C9.39946 7.3683 9.08152 7.5 8.75 7.5H6.25V8.75H5V7.5H2.5C2.16848 7.5 1.85054 7.3683 1.61612 7.13388C1.3817 6.89946 1.25 6.58152 1.25 6.25V3.75C1.25 3.41848 1.3817 3.10054 1.61612 2.86612C1.85054 2.6317 2.16848 2.5 2.5 2.5H5V1.25H6.25ZM11.25 1.25C13.2391 1.25 15.1468 2.04018 16.5533 3.4467C17.9598 4.85322 18.75 6.76088 18.75 8.75H17.5C17.4999 7.13942 16.8781 5.59105 15.7642 4.42778C14.6503 3.26451 13.1303 2.57615 11.5212 2.50625L11.25 2.5V1.25ZM5 3.75H2.5V6.25H5V3.75ZM8.75 3.75H6.25V6.25H8.75V3.75Z" fill="#5C6B7A"/>
</svg>
