<svg width="20" height="20" viewBox="0 0 20 20" fill="none" xmlns="http://www.w3.org/2000/svg">
<path d="M18.0203 4.5451L16.6946 3.21945C16.4506 2.9754 16.0543 2.9754 15.8102 3.21945L5.69639 13.4757L3.77681 17.6459L7.90518 15.6831L18.0184 5.42757C18.2643 5.18547 18.2643 4.78914 18.0203 4.5451ZM16.64 5.04295L14.2718 7.41117L13.8305 6.96993L16.1987 4.60172C16.23 4.57048 16.2788 4.57048 16.31 4.60172L16.6419 4.93362C16.6712 4.96291 16.6712 5.01171 16.64 5.04295ZM11.4291 4.48458L8.84225 5.89809L7.42874 8.48302L6.01523 5.89809L3.4303 4.48458L6.01523 3.07107L7.42874 0.484186L8.84225 3.07107L11.4291 4.48458ZM11.4896 1.02889L12.5381 0.722374L12.2315 1.77079L12.5381 2.81921L11.4896 2.51074L10.4412 2.81921L10.7497 1.77079L10.4412 0.722374L11.4896 1.02889ZM4.8809 0.230379L5.66575 0L5.43537 0.78485L5.66575 1.5697L4.8809 1.33932L4.09605 1.5697L4.32643 0.78485L4.09605 0L4.8809 0.230379ZM16.9075 12.0539L17.5361 11.8704L17.3526 12.499L17.5361 13.1277L16.9075 12.9422L16.2788 13.1277L16.4643 12.499L16.2788 11.8704L16.9075 12.0539Z" fill="#5C6B7A"/>
</svg>
