<svg xmlns="http://www.w3.org/2000/svg" width="122" height="76" viewBox="0 0 122 76" fill="none">
<path fill-rule="evenodd" clip-rule="evenodd" d="M0 -9.94087L39.6576 54.3895C47.8408 67.6659 62.1944 75.7307 77.6361 75.7307C112.813 75.7307 134.258 36.5026 115.615 6.2603L106.973 -7.75729L157 -95.6046H131.776L93.861 -29.0262L66.4203 -73.5377H106.852L118.094 -95.5976H52.8207L52.8127 -95.6106L0 -9.94087ZM81.5562 -7.36489H81.5254L81.5402 -7.39089L52.8176 -53.981L25.6642 -9.93465L58.1141 42.704C62.3499 49.5757 69.65 53.677 77.641 53.677C89.884 53.677 95.8043 45.2648 97.7807 41.6488C99.759 38.031 103.656 28.4827 97.1679 17.9583L81.5562 -7.36489Z" fill="white" fill-opacity="0.2"/>
</svg>