<svg xmlns="http://www.w3.org/2000/svg" width="96" height="96" viewBox="0 0 96 96" fill="none">
<path fill-rule="evenodd" clip-rule="evenodd" d="M2.19972 12C1.8828 12 1.69175 12.351 1.8638 12.6172L45.9839 80.8674C46.9295 82.3302 49.0694 82.3302 50.015 80.8674L94.1352 12.6172C94.3072 12.351 94.1161 12 93.7992 12H66.1738C66.038 12 65.9115 12.0688 65.8378 12.1828L47.9995 39.7773L30.1611 12.1828C30.0874 12.0688 29.9609 12 29.8252 12H2.19972Z" fill="url(#paint0_linear_24_3112)"/>
<path fill-rule="evenodd" clip-rule="evenodd" d="M66.1295 11.999C65.9944 11.999 65.8685 12.0672 65.7946 12.1802L33.5154 61.5698L45.9835 80.8671C46.9291 82.3298 49.0689 82.3298 50.0145 80.8671L94.1351 12.6162C94.3072 12.35 94.1161 11.999 93.7992 11.999H66.1295Z" fill="#E8F5FF"/>
<defs>
<linearGradient id="paint0_linear_24_3112" x1="47.9993" y1="6" x2="47.9993" y2="81.9645" gradientUnits="userSpaceOnUse">
<stop stop-color="#E8F5FF"/>
<stop offset="1" stop-color="white" stop-opacity="0"/>
</linearGradient>
</defs>
</svg>