<svg width="36" height="36" viewBox="0 0 36 36" fill="none" xmlns="http://www.w3.org/2000/svg">
<path d="M30.477 5.97305L18.5309 1.90195C18.3867 1.85273 18.1934 1.82812 18 1.82812C17.8066 1.82812 17.6133 1.85273 17.4691 1.90195L5.52305 5.97305C5.23125 6.07148 4.99219 6.40898 4.99219 6.71836V23.6777C4.99219 23.9871 5.19258 24.3949 5.43516 24.5883L17.5535 34.0312C17.6766 34.1262 17.8348 34.1754 17.9965 34.1754C18.1582 34.1754 18.3199 34.1262 18.4395 34.0312L30.5578 24.5883C30.8004 24.3984 31.0008 23.9906 31.0008 23.6777V6.71836C31.0078 6.40898 30.7688 6.075 30.477 5.97305ZM22.7918 11.7L19.7086 17.3637H21.3152C21.5086 17.3637 21.6668 17.5219 21.6668 17.7152V18.4641C21.6668 18.6574 21.5086 18.8156 21.3152 18.8156H19.0863V19.8598H21.3152C21.5086 19.8598 21.6668 20.018 21.6668 20.2113V20.9602C21.6668 21.1535 21.5086 21.3117 21.3152 21.3117H19.0863V23.1328C19.0863 23.3262 18.9281 23.4844 18.7348 23.4844H17.2828C17.0895 23.4844 16.9313 23.3262 16.9313 23.1328V21.3117H14.7129C14.5195 21.3117 14.3613 21.1535 14.3613 20.9602V20.2113C14.3613 20.018 14.5195 19.8598 14.7129 19.8598H16.9313V18.8156H14.7129C14.5195 18.8156 14.3613 18.6574 14.3613 18.4641V17.7152C14.3613 17.5219 14.5195 17.3637 14.7129 17.3637H16.302L13.2082 11.7C13.1168 11.5312 13.1766 11.3168 13.3488 11.2219C13.4016 11.1938 13.4578 11.1797 13.5176 11.1797H15.1348C15.2684 11.1797 15.3879 11.2535 15.4477 11.373L18.0105 16.4461L20.584 11.373C20.6132 11.3151 20.6579 11.2663 20.7131 11.2322C20.7684 11.1981 20.832 11.1799 20.8969 11.1797H22.4789C22.6723 11.1797 22.8305 11.3379 22.8305 11.5312C22.834 11.591 22.8199 11.6473 22.7918 11.7Z" fill="url(#paint0_linear_16262_2772)" fill-opacity="0.85"/>
<defs>
<linearGradient id="paint0_linear_16262_2772" x1="17.9966" y1="1.82812" x2="17.9966" y2="34.1754" gradientUnits="userSpaceOnUse">
<stop stop-color="#2572E1"/>
<stop offset="1" stop-color="#E98FF7"/>
</linearGradient>
</defs>
</svg>
