<svg width="36" height="36" viewBox="0 0 36 36" fill="none" xmlns="http://www.w3.org/2000/svg">
<path d="M31.6268 9.72086L24.7854 13.9361L18.2252 5.1857C18.1988 5.15048 18.1646 5.1219 18.1252 5.10221C18.0859 5.08252 18.0425 5.07227 17.9985 5.07227C17.9544 5.07227 17.911 5.08252 17.8717 5.10221C17.8323 5.1219 17.7981 5.15048 17.7717 5.1857L11.2151 13.9361L4.37014 9.72086C4.16975 9.59782 3.90959 9.76305 3.94123 9.9986L6.62717 30.4103C6.66584 30.6881 6.9049 30.9025 7.18967 30.9025H28.8143C29.0955 30.9025 29.3381 30.6916 29.3733 30.4103L32.0592 9.9986C32.0873 9.76305 31.8307 9.59782 31.6268 9.72086ZM18.0002 25.8119C15.817 25.8119 14.0416 24.0365 14.0416 21.8533C14.0416 19.6701 15.817 17.8947 18.0002 17.8947C20.1834 17.8947 21.9588 19.6701 21.9588 21.8533C21.9588 24.0365 20.1834 25.8119 18.0002 25.8119ZM18.0002 20.1552C17.0651 20.1552 16.3057 20.9146 16.3057 21.8533C16.3057 22.7885 17.0651 23.5513 18.0002 23.5513C18.9354 23.5513 19.6947 22.792 19.6947 21.8533C19.6947 20.9181 18.9354 20.1552 18.0002 20.1552Z" fill="url(#paint0_linear_16262_2373)" fill-opacity="0.85"/>
<defs>
<linearGradient id="paint0_linear_16262_2373" x1="18" y1="5.07227" x2="18" y2="30.9025" gradientUnits="userSpaceOnUse">
<stop stop-color="#2572E1"/>
<stop offset="1" stop-color="#E98FF7"/>
</linearGradient>
</defs>
</svg>
