<svg width="36" height="36" viewBox="0 0 36 36" fill="none" xmlns="http://www.w3.org/2000/svg">
<path d="M21.382 14.8816L18 11.4645L14.618 14.8816H21.382ZM20.4715 21.9937L25.6711 16.1473H23.4422L20.4715 21.9937ZM23.6355 14.8816H25.8328L22.5949 10.8352L23.6355 14.8816ZM30.9375 3.9375H5.0625C4.44023 3.9375 3.9375 4.44023 3.9375 5.0625V30.9375C3.9375 31.5598 4.44023 32.0625 5.0625 32.0625H30.9375C31.5598 32.0625 32.0625 31.5598 32.0625 30.9375V5.0625C32.0625 4.44023 31.5598 3.9375 30.9375 3.9375ZM28.0793 15.6164L18.1336 26.7996C18.0984 26.8383 18.0492 26.8594 18 26.8594C17.9508 26.8594 17.9016 26.8383 17.8664 26.7996L7.9207 15.6164C7.89247 15.5847 7.87629 15.5441 7.875 15.5017C7.87372 15.4592 7.88741 15.4177 7.91367 15.3844L12.8531 9.21094C12.8883 9.16875 12.9375 9.14414 12.9938 9.14414H22.9992C23.0555 9.14414 23.1047 9.16875 23.1398 9.21094L28.0793 15.3844C28.1082 15.4161 28.1242 15.4575 28.1242 15.5004C28.1242 15.5433 28.1082 15.5847 28.0793 15.6164ZM13.9781 16.1473L18 24.0645L22.0219 16.1473H13.9781ZM13.4051 10.8352L10.1672 14.8816H12.3645L13.4051 10.8352ZM10.3289 16.1473L15.5285 21.9937L12.5578 16.1473H10.3289ZM14.7762 10.5855L13.9641 13.7426L17.0859 10.5855H14.7762ZM21.2238 10.5855H18.9141L22.0359 13.7426L21.2238 10.5855Z" fill="url(#paint0_linear_16262_2374)" fill-opacity="0.85"/>
<defs>
<linearGradient id="paint0_linear_16262_2374" x1="18" y1="3.9375" x2="18" y2="32.0625" gradientUnits="userSpaceOnUse">
<stop stop-color="#2572E1"/>
<stop offset="1" stop-color="#E98FF7"/>
</linearGradient>
</defs>
</svg>
