<svg xmlns="http://www.w3.org/2000/svg" width="16" height="16" viewBox="0 0 16 16" fill="none">
<path fill-rule="evenodd" clip-rule="evenodd" d="M0.97902 2C0.662096 2 0.471044 2.351 0.643099 2.61716L7.66399 13.4779C7.82159 13.7217 8.17823 13.7217 8.33583 13.4779L15.3567 2.61715C15.5288 2.351 15.3377 2 15.0208 2H11.2104C11.0746 2 10.9482 2.06884 10.8745 2.18284L7.99991 6.62955L5.12535 2.18284C5.05166 2.06884 4.92518 2 4.78943 2H0.97902Z" fill="url(#paint0_linear_24_2513)"/>
<path fill-rule="evenodd" clip-rule="evenodd" d="M11.2019 2C11.0669 2 10.941 2.06813 10.8671 2.18117L5.58594 10.2617L7.66393 13.4779C7.82153 13.7217 8.17817 13.7217 8.33577 13.4779L15.3567 2.61715C15.5287 2.351 15.3377 2 15.0207 2H11.2019Z" fill="#1F71E0"/>
<defs>
<linearGradient id="paint0_linear_24_2513" x1="7.99988" y1="1" x2="7.99988" y2="13.6607" gradientUnits="userSpaceOnUse">
<stop stop-color="#1F71E0"/>
<stop offset="1" stop-color="white" stop-opacity="0"/>
<stop offset="1.0001" stop-color="white" stop-opacity="0"/>
</linearGradient>
</defs>
</svg>