<svg width="280" height="23" viewBox="0 0 280 23" fill="none" xmlns="http://www.w3.org/2000/svg">
<path fill-rule="evenodd" clip-rule="evenodd" d="M179.958 2.69984L179.313 3.63165V22.7217H176.04V8.26678L174.51 10.2976L174.104 10.8233L173.626 10.2737C174.869 8.64906 176.028 7.07216 177.103 5.55499C178.178 4.03782 179.456 2.18616 180.938 0L181.583 0.310601C181.117 0.967643 180.579 1.75609 179.958 2.69984ZM194.341 8.57738C194.317 8.64187 193.999 9.64204 193.384 11.5779C193.087 12.5108 192.722 13.6609 192.286 15.0283C193.612 17.5609 195.022 19.9382 196.539 22.1483L195.966 22.6261C194.568 20.5594 193.23 18.3135 191.976 15.9124C191.116 18.5525 190.447 20.5594 189.969 21.9094L186.552 22.2916L187.58 19.3529H180.221V11.5878H182.443V6.71377H179.838V6.04478H182.443V0.88402H185.477V6.04478H187.866L187.651 6.71377H185.477V11.5878H187.866V18.4927C188.715 16.0079 189.431 13.8218 190.017 11.9223C189.491 10.7635 188.965 9.54502 188.44 8.26678C188.117 9.07912 187.759 9.96314 187.341 10.9188L186.791 10.4171C188.046 7.40665 189.336 4.00198 190.662 0.215032L191.379 0.334494L191.092 1.09905C190.805 1.92334 190.375 3.11796 189.802 4.68291H196.659L196.444 5.3519H195.369L194.341 8.57738ZM184.928 12.2568H182.992V18.66H184.928V12.2568ZM190.303 11.0144C190.913 9.10301 191.486 7.21551 192.024 5.3519H189.563L188.75 7.45444C189.216 8.58932 189.73 9.772 190.303 11.0144ZM26.6164 4.58793L25.2785 6.45154L24.6095 7.38335H37.5353V22.9851L32.8285 21.456L33.7364 20.787V16.2474H27.596V22.555H23.8688V8.38683C22.0649 10.8119 20.1655 13.2489 18.1585 15.6979L17.6807 15.2917C20.3208 11.9826 22.9848 8.41072 25.6607 4.58793H18.278V3.91895H26.1386L28.8145 0.0722656L29.5791 0.239513L28.8623 1.29078L27.0704 3.91895H39.6378L39.375 4.58793H26.6164ZM27.596 8.05233V11.469H33.7364V8.05233H27.596ZM33.7364 15.5784V12.1379H27.596V15.5784H33.7364ZM3.82333 4.94356C4.11004 5.32584 4.2534 5.7559 4.2534 6.23375C4.2534 6.85495 4.01447 7.38059 3.54857 7.7987C3.08267 8.21682 2.54509 8.39602 1.93583 8.33628V8.36018C1.45798 8.30044 1.05181 8.1332 0.729264 7.87038C0.406716 7.60756 0.179738 7.24918 0.0722224 6.80717C0.0124914 6.56824 -0.0114011 6.30543 0.000545146 6.01872C0.000545146 5.87536 0.000545145 5.76785 0.0244376 5.68423C0.167792 4.38209 0.693425 3.33082 1.61328 2.53043C2.53314 1.73003 3.81139 1.29997 5.47191 1.24023C4.7193 1.58667 4.13393 1.99285 3.70387 2.4468C3.27381 2.90076 2.95126 3.47418 2.72428 4.179C3.16629 4.31041 3.53662 4.56128 3.82333 4.94356ZM8.55403 4.94356C8.84074 5.32584 8.98409 5.7559 8.98409 6.23375C8.98409 6.85495 8.74517 7.38059 8.27927 7.7987C7.81337 8.21682 7.26384 8.39602 6.64264 8.33628V8.36018C5.84224 8.26461 5.29272 7.89427 4.97017 7.26112C4.76708 6.84301 4.68346 6.43684 4.73124 6.01872C4.73124 5.87536 4.73124 5.76785 4.75514 5.68423C4.89849 4.38209 5.42412 3.33082 6.34398 2.53043C7.26384 1.73003 8.54208 1.29997 10.1787 1.24023C9.4261 1.58667 8.84074 1.99285 8.41068 2.45875C7.98061 2.92465 7.65807 3.49807 7.43109 4.20289C7.89699 4.31041 8.26732 4.56128 8.55403 4.94356ZM56.4344 15.7943H62.6942L64.2472 20.4055H68.7151L62.288 2.05616C62.1088 1.59026 61.7265 1.36328 61.1173 1.36328H58.0829L50.3418 20.4055H54.6185L56.4344 15.7943ZM59.8032 7.26471L61.5473 12.4494H57.7484L59.8032 7.26471ZM75.9548 20.4535V1.05288H79.9448V20.4535H75.9548ZM94.9126 20.8936C95.8803 19.8303 96.3581 18.5282 96.3581 16.9632C96.3581 16.7363 96.3462 16.569 96.3342 16.4615C96.2984 16.0912 96.2028 15.7447 96.0475 15.4102C95.6653 14.6337 95.0202 14.1917 94.1123 14.0962C94.0525 14.0723 93.945 14.0723 93.8016 14.0723H93.7539C93.0729 14.0842 92.4876 14.347 91.9978 14.8368C91.508 15.3266 91.2691 15.9239 91.2691 16.6049C91.281 17.2261 91.496 17.7636 91.8903 18.2295C92.2845 18.6954 92.7862 18.9822 93.3955 19.0897C93.2402 19.9379 92.9296 20.6546 92.4876 21.2519C92.0456 21.8493 91.4005 22.4107 90.5762 22.9364C92.4995 22.6377 93.945 21.9568 94.9126 20.8936ZM114.875 15.5066V22.4115H111.53V16.1756L106.943 17.1074L106.751 16.3906L111.53 15.4588V11.9944H108.4C107.552 11.9944 107.134 11.6957 107.134 11.0865C107.134 10.8595 107.193 10.5728 107.325 10.2264L109.356 4.70721H107.277V4.03822H109.595C110.204 2.41354 110.658 1.15918 110.957 0.287109L113.895 0.836635C113.788 1.13529 113.692 1.41005 113.632 1.64898L112.796 4.03822H117.24L117.025 4.70721H112.557C111.422 7.90879 110.634 10.0949 110.168 11.2776H112.056V6.33189H114.923V11.2776H116.523L116.308 11.9944H114.875V14.7898L117.073 14.3597L117.192 15.0287L114.875 15.5066ZM129.617 20.5479L129.378 21.2169H115.377V20.5479H120.155V13.4518H117.216V12.8067H127.825L127.586 13.4518H124.097V20.5479H129.617ZM124.456 3.05863H117.001V2.38964H127.275C127.657 2.38964 127.956 2.48521 128.171 2.67635C128.386 2.86749 128.494 3.10642 128.494 3.39312C128.494 3.71567 128.35 4.00238 128.064 4.27714C126.618 5.57928 125.137 6.84558 123.643 8.05215C122.15 9.25871 120.239 10.7639 117.909 12.5439L115.711 10.4175C118.686 8.12382 121.601 5.67485 124.456 3.05863ZM128.243 8.87644C128.589 9.22288 128.756 9.64099 128.756 10.1308C128.756 10.6206 128.589 11.0387 128.243 11.3851C127.896 11.7316 127.478 11.8988 126.988 11.8988C126.499 11.8988 126.104 11.7316 125.758 11.3851C125.411 11.0387 125.244 10.6206 125.244 10.1308C125.244 9.64099 125.411 9.22288 125.758 8.87644C126.104 8.52999 126.51 8.36275 126.988 8.36275C127.466 8.36275 127.896 8.52999 128.243 8.87644ZM147.99 13.4984C148.324 13.4984 148.611 13.3789 148.838 13.14C149.065 12.9011 149.185 12.6383 149.185 12.3038C149.185 11.9693 149.065 11.6826 148.838 11.4556C148.611 11.2286 148.324 11.1091 147.99 11.1091C147.763 11.1091 147.56 11.1689 147.381 11.2764C147.201 11.3839 147.058 11.5392 146.963 11.7303V6.59348H149.28L149.495 5.94838H146.963V0.453125H143.641V5.94838H141.037V6.59348H143.522C142.566 10.0698 141.527 13.4148 140.392 16.6283L140.966 17.0823C141.838 14.705 142.734 11.9812 143.641 8.88715V22.3625H146.963V12.8772C147.058 13.0683 147.201 13.2236 147.381 13.3311C147.56 13.4387 147.763 13.4984 147.99 13.4984ZM161.68 19.8299C161.68 19.352 161.513 18.9459 161.167 18.6114C160.82 18.2769 160.414 18.1096 159.936 18.1096C159.458 18.1096 159.052 18.2769 158.718 18.6114C158.383 18.9459 158.216 19.352 158.216 19.8299C158.216 19.9732 158.228 20.0807 158.24 20.1644H151.86C153.378 17.7154 155.193 14.6452 157.308 10.9658L154.154 9.89063C152.338 12.9011 150.534 15.8398 148.731 18.7069C148.456 19.1489 148.324 19.5312 148.324 19.8538C148.324 20.1524 148.444 20.4033 148.695 20.5825C148.946 20.7617 149.316 20.8573 149.806 20.8573H158.55C158.706 21.0842 158.909 21.2515 159.148 21.3709C159.387 21.4904 159.649 21.5501 159.936 21.5501C160.414 21.5501 160.82 21.3829 161.167 21.0484C161.513 20.7139 161.68 20.3077 161.68 19.8299ZM151.323 6.77267C150.57 8.0987 149.698 9.54419 148.731 11.0853L149.256 11.5631C150.224 10.0698 151.084 8.66017 151.825 7.34609C152.565 6.03201 153.449 4.40732 154.489 2.48398L153.748 2.34063C152.888 3.96531 152.075 5.44664 151.323 6.77267ZM155.014 2.34063C156.926 6.0559 158.837 9.34111 160.748 12.2082L163.257 9.9862C160.76 7.10716 158.634 4.31175 156.878 1.62385L155.014 2.34063ZM214.89 22.4349V8.57732H217.852L218.091 7.90834H214.89V1.74409L217.542 1.02732L217.374 0.358332C214.28 1.2543 211.21 1.99496 208.152 2.60422L208.367 3.17764C209.836 2.90287 210.876 2.69979 211.497 2.55643V7.90834H207.985V8.57732H211.162C209.92 11.7311 208.713 14.5146 207.555 16.9397L208.08 17.4653C208.713 16.1632 209.275 14.9447 209.753 13.8337C210.231 12.7227 210.816 11.325 211.497 9.65248V22.4349H214.89ZM216.395 13.9292C216.777 13.9292 217.1 13.7978 217.363 13.535C217.625 13.2722 217.757 12.9377 217.757 12.5674C217.757 12.197 217.625 11.8864 217.363 11.6117C217.1 11.3369 216.765 11.2055 216.395 11.2055C216.025 11.2055 215.714 11.3369 215.439 11.6117C215.164 11.8864 215.033 12.1851 215.033 12.5674C215.033 12.9496 215.164 13.2722 215.439 13.535C215.714 13.7978 216.013 13.9292 216.395 13.9292ZM227.72 13.762L230.133 13.2125V12.5435L227.72 13.093V0.310547H223.993V13.977L217.351 15.5061V16.1751L223.993 14.646V22.6739H227.72V13.762ZM218.426 9.84362C218.426 10.2378 218.569 10.5843 218.868 10.8829C219.166 11.1816 219.489 11.325 219.907 11.325C220.325 11.325 220.672 11.1816 220.97 10.8949C221.269 10.6082 221.412 10.2617 221.412 9.84362C221.412 9.42551 221.269 9.07907 220.97 8.78041C220.672 8.48176 220.325 8.3384 219.907 8.3384C219.489 8.3384 219.143 8.48176 218.856 8.78041C218.569 9.07907 218.426 9.4494 218.426 9.84362ZM220.003 4.75454C220.003 5.14876 220.146 5.4952 220.433 5.76996C220.719 6.04473 221.066 6.18808 221.46 6.18808C221.854 6.18808 222.201 6.04473 222.475 5.76996C222.75 5.4952 222.894 5.14876 222.894 4.75454C222.894 4.36031 222.75 4.01387 222.475 3.72716C222.201 3.44045 221.854 3.2971 221.46 3.2971C221.066 3.2971 220.719 3.44045 220.433 3.71522C220.146 3.98998 220.003 4.36031 220.003 4.75454ZM244.037 8.72067L250.01 8.69678V18.2299H243.32V10.4648C242.496 12.424 241.731 14.1681 241.027 15.6973L240.549 15.2433C241.505 13.093 242.424 10.9307 243.296 8.76846C243.877 7.32995 244.325 6.22983 244.633 5.47162L244.636 5.46431C244.79 5.08637 244.909 4.79388 244.993 4.58728C245.148 4.15722 245.256 3.88246 245.303 3.77494H241.457V3.10595H250.727L250.512 3.77494H246.068L244.037 8.72067ZM245.757 17.5131H247.406V9.38966H245.757V17.5131ZM263.318 10.8471H260.595V22.3871H256.867V10.8471H253.045L252.949 12.0656C252.531 16.653 252.232 20.1174 252.041 22.4588L251.253 22.2916L252.304 10.8471H250.154V10.1781H252.352C252.364 9.95113 252.531 8.03974 252.853 4.42004L252.997 2.72368H250.727V2.05469H262.387L262.171 2.72368H260.595V10.1781H263.533L263.318 10.8471ZM256.867 10.1781V2.72368H253.785C253.582 4.87399 253.355 7.35881 253.116 10.1781H256.867ZM273.652 7.1916C274.572 6.3912 275.098 5.33994 275.241 4.01391C275.265 3.95418 275.265 3.85861 275.265 3.7272C275.313 3.34492 275.265 2.98653 275.121 2.65204C274.918 2.06668 274.476 1.66051 273.807 1.45742C273.727 1.42283 273.601 1.39937 273.421 1.36556L273.401 1.36185C272.78 1.27823 272.231 1.45742 271.741 1.87554C271.251 2.29365 271.012 2.83123 271.012 3.46438C271.012 3.94223 271.155 4.3723 271.442 4.75457C271.729 5.13685 272.099 5.38772 272.565 5.51913C272.338 6.22396 272.015 6.79738 271.585 7.25133C271.155 7.70529 270.57 8.11146 269.817 8.4579C271.454 8.41011 272.732 7.992 273.652 7.1916ZM279.972 4.01391C279.996 3.95418 279.996 3.84666 279.996 3.70331C280.008 3.47633 279.996 3.23741 279.948 2.98653C279.852 2.55647 279.661 2.19808 279.374 1.92332C279.088 1.64856 278.741 1.46937 278.323 1.38574L278.108 1.36185C277.487 1.27823 276.937 1.45742 276.459 1.87554C275.982 2.29365 275.743 2.83123 275.743 3.46438C275.743 3.94223 275.886 4.3723 276.173 4.75457C276.459 5.13685 276.83 5.38772 277.272 5.51913C277.045 6.22396 276.722 6.79738 276.292 7.25133C275.862 7.70529 275.277 8.11146 274.524 8.4579C276.185 8.41011 277.463 7.992 278.383 7.1916C279.303 6.3912 279.828 5.33994 279.972 4.01391Z" fill="#E8F5FF"/>
</svg>
