<svg width="265" height="26" viewBox="0 0 265 26" fill="none" xmlns="http://www.w3.org/2000/svg">
<path fill-rule="evenodd" clip-rule="evenodd" d="M10.1221 5.1334L8.59473 7.22763L7.83104 8.27474H23.053V25.9224L16.2575 23.9048L17.5648 22.8832V18.2223H12.1284V25.2967H6.76965V9.69218C4.82806 12.2716 2.75705 14.8894 0.543643 17.5455L0 17.0858C2.93826 13.4209 5.94124 9.43679 9.02188 5.12064H0.828408V4.36723H9.57847C10.2645 3.37119 10.7952 2.61778 11.1576 2.11977C11.2214 2.02992 11.2899 1.93534 11.3627 1.83491L11.3627 1.83487L11.3628 1.83484L11.3629 1.83465L11.3629 1.83461L11.363 1.83457L11.363 1.83454C11.497 1.64956 11.6455 1.44474 11.8048 1.21311C12.0637 0.855564 12.3355 0.459708 12.6462 0L13.5393 0.191542L13.4669 0.297455C12.6794 1.45047 11.7445 2.81909 10.6269 4.38H25.0852L24.7875 5.1334H10.1221ZM12.1414 9.02816V12.8591H17.5778V9.02816H12.1414ZM17.5648 17.4689V13.6125H12.1284V17.4689H17.5648ZM49.6761 18.3881H43.696L41.9874 22.8958H35.8391L44.4597 1.54492H48.7312C49.1842 1.54492 49.5467 1.62154 49.8185 1.77478C50.0903 1.92801 50.2845 2.1834 50.4139 2.54095L57.533 22.8958H51.1776L49.6761 18.3881ZM45.4694 13.6889H48.1099L46.8802 9.98567L45.4694 13.6889ZM60.3416 1.14844V22.9207H66.0239V1.14844H60.3416ZM75.9132 18.7601C75.9132 20.6373 75.279 22.2335 74.0234 23.5488C72.7679 24.864 70.8781 25.6813 68.354 26.0005C69.3895 25.4131 70.1791 24.7619 70.7486 24.0596C71.3052 23.3572 71.6935 22.5144 71.9136 21.5312C71.1369 21.3907 70.4897 21.0076 69.9849 20.4074C69.4801 19.7945 69.2212 19.1049 69.2212 18.3132C69.2212 17.4193 69.5319 16.6531 70.1532 16.0147C70.7745 15.3762 71.5382 15.0442 72.4443 15.0059H72.5219L73.0397 15.0314C73.6351 15.1208 74.1529 15.3251 74.58 15.6316C75.0072 15.9508 75.3308 16.3722 75.5508 16.9085C75.732 17.2789 75.8356 17.7003 75.8744 18.1472C75.8873 18.2877 75.9003 18.492 75.9003 18.7601H75.9132ZM102.41 25.1708V17.292L102.423 17.2792L104.571 16.845L104.468 16.0661L102.423 16.4747V13.4483H103.613L103.859 12.6693H102.5V7.08898H99.0701C99.2642 6.59096 99.4843 5.97802 99.7172 5.26292H104.39L104.636 4.50951H99.9891L101.245 0.94677L97.0379 0.193359L95.4587 4.50951H93.3359V5.26292H95.1869C94.7983 6.35302 94.1478 8.09491 93.2459 10.5097L93.0641 10.9965C92.8829 11.5328 92.7923 11.9542 92.7923 12.2352C92.7923 12.6183 92.9217 12.9247 93.1935 13.129C93.4654 13.3334 93.9054 13.4355 94.5267 13.4355H97.6203V17.4069L92.7017 18.3774L92.9217 19.1819L97.6203 18.2497V25.1708H102.41ZM97.0638 12.6693L98.4229 8.91504V12.6693H97.0638ZM118.688 23.0638L118.693 23.0511V23.0638H118.688ZM113.036 23.0638H118.688L118.421 23.8045H102.513V23.0511H107.328V15.0828H104.61V14.3294H105.529L102.513 11.3285C105.374 9.1832 108.571 6.53989 112.105 3.41132H104.351V2.65791H115.962C116.505 2.65791 116.933 2.7856 117.256 3.06654C117.58 3.3347 117.735 3.66671 117.735 4.06257C117.735 4.50951 117.528 4.91814 117.114 5.30123C115.586 6.65481 113.994 7.99563 112.312 9.29814C110.642 10.6006 108.441 12.2862 105.723 14.3422H116.648L116.402 15.0956H113.036V23.0638ZM117.929 11.3413C117.929 10.7283 117.722 10.2176 117.295 9.79615C116.868 9.38752 116.35 9.17044 115.729 9.17044C115.108 9.17044 114.59 9.37475 114.163 9.79615C113.735 10.2176 113.528 10.7283 113.528 11.3413C113.528 11.9542 113.735 12.465 114.163 12.8864C114.59 13.295 115.108 13.5121 115.729 13.5121C116.35 13.5121 116.868 13.3078 117.295 12.8864C117.709 12.465 117.929 11.9542 117.929 11.3413ZM139.413 14.8385C139.154 15.0939 138.844 15.2216 138.455 15.2216C138.145 15.2216 137.86 15.1195 137.588 14.9024V25.0926H132.799V10.931C131.984 13.7531 131.09 16.4858 130.133 19.1419L129.485 18.6311C130.65 15.311 131.751 11.7355 132.799 7.9046V7.36828H130.327V6.61487H132.799V0.472656H137.588V6.61487H139.905L139.659 7.36828H137.588V12.9231C137.86 12.706 138.145 12.6038 138.455 12.6038C138.831 12.6038 139.154 12.7315 139.413 12.9869C139.672 13.2423 139.789 13.5616 139.789 13.9064C139.789 14.2511 139.659 14.5704 139.413 14.8258V14.8385ZM153.419 20.7764C153.833 21.1851 154.04 21.6831 154.04 22.2833C154.04 22.8834 153.833 23.3687 153.419 23.7901C153.004 24.1987 152.5 24.403 151.891 24.403C151.516 24.403 151.166 24.3136 150.856 24.1476C150.545 23.9816 150.299 23.7518 150.092 23.4581H140.604C139.892 23.4581 139.374 23.3304 139.025 23.0877C138.675 22.8324 138.507 22.4876 138.507 22.0406C138.507 21.5937 138.701 21.0446 139.077 20.4572C140.384 18.4523 142.054 15.7707 144.112 12.3868L144.902 11.0715L149.445 12.5783C146.494 17.6351 144.5 21.0063 143.465 22.6919H149.768C149.755 22.6025 149.743 22.4748 149.743 22.2833C149.743 21.6958 149.95 21.1978 150.364 20.7764C150.778 20.355 151.283 20.1635 151.891 20.1635C152.5 20.1635 152.991 20.3678 153.419 20.7764ZM139.167 12.3229C140.255 10.6373 141.225 9.07941 142.08 7.64921C142.934 6.21901 143.84 4.59726 144.798 2.8095L145.639 3.00105C144.423 5.18466 143.413 6.95965 142.597 8.35155C141.782 9.73067 140.837 11.2375 139.776 12.8465L139.18 12.3357L139.167 12.3229ZM152.28 13.8297C150.144 10.6118 148.099 6.98519 146.131 2.97551L148.72 2.00502C150.584 4.76327 152.966 7.64921 155.865 10.6884L152.28 13.8297ZM190.914 9.24194C190.914 8.87162 190.837 8.59068 190.694 8.41191V8.39915C190.552 8.22037 190.28 8.11821 189.905 8.10544H167.861V12.8302H172.754V8.85884H185.776V12.5876H190.914V9.24194ZM168.379 4.46608H173.57L173.583 4.49162L173.932 7.51804L174.799 7.35203L174.45 4.47885H178.605V7.64573H179.42V4.47885H182.928L182.436 7.21157L187.057 7.85005L187.795 4.46608H190.888L191.186 3.73821H187.95L188.572 0.813958L183.705 0.0605469L183.057 3.73821H179.42V0.175474H178.605V3.73821H174.333L173.932 0.520256L173.117 0.647951L173.492 3.73821H168.379V4.46608ZM188.792 13.507H186.617H181.996V10.4551H176.637V13.507H169.764V22.3564H174.877V14.2604H176.65V25.4467H182.009V14.2604H183.743V20.5559L182.708 21.4625L188.792 22.7012V13.507ZM228.268 17.1751H218.922V25.6797L212.075 23.4322L213.758 23.113V17.1878H202.911V16.46H213.758V13.9954H213.887L213.835 13.9699L214.625 13.0632C216.217 11.135 217.214 9.90912 217.589 9.38556H209.629V8.63216H221.912C222.314 8.63216 222.624 8.73431 222.857 8.92585C223.09 9.1174 223.207 9.3728 223.207 9.67927C223.207 9.9602 223.103 10.2284 222.883 10.4838C221.343 12.2204 220.022 13.6506 218.909 14.7744V16.46H228.565L228.268 17.1878V17.1751ZM209.124 10.9307H204.451V5.37589H218.78C219.997 3.71583 221.071 2.13239 222.016 0.625567L222.728 1.02143C221.86 2.41332 220.864 3.86906 219.738 5.36311H227.245C227.685 5.36311 227.983 5.43973 228.151 5.60574C228.319 5.77175 228.41 6.03991 228.41 6.43577V10.8541H223.686V6.10376H209.137V10.9052L209.124 10.9307ZM208.528 4.37985C208.127 3.99676 207.933 3.52428 207.933 2.97519C207.933 2.42609 208.127 1.94084 208.528 1.55775C208.93 1.16189 209.408 0.970348 209.965 0.970348C210.522 0.970348 211.001 1.16189 211.389 1.55775C211.777 1.95361 211.971 2.42609 211.971 2.97519C211.971 3.52428 211.777 3.99676 211.389 4.37985C211.001 4.76294 210.522 4.95448 209.965 4.95448C209.408 4.95448 208.917 4.76294 208.528 4.37985ZM214.081 3.40936C213.693 3.02627 213.499 2.55379 213.499 2.00469C213.499 1.4556 213.693 0.983117 214.081 0.600027C214.47 0.216937 214.948 0.0253906 215.505 0.0253906C216.062 0.0253906 216.541 0.216937 216.929 0.600027C217.317 0.983117 217.511 1.4556 217.511 2.00469C217.511 2.55379 217.317 3.02627 216.929 3.40936C216.541 3.79245 216.062 3.98399 215.505 3.98399C214.948 3.98399 214.47 3.79245 214.081 3.40936ZM264.702 24.12L265 23.3666H264.987H255.965V16.4199H261.428L261.699 15.6665H255.965V8.7198H263.55L263.848 7.96638H255.965V0.994141H250.606V7.96638H245.338L247.241 3.2416L246.426 3.11391C245.52 5.42522 244.691 7.4556 243.953 9.21781C243.216 10.98 242.361 12.8699 241.403 14.9131L241.999 15.4494C242.879 13.6233 243.889 11.3887 245.015 8.7198H250.619V15.6665H244.911V16.4199H250.619V23.3666H240.484V24.12H264.702Z" fill="#BCDDF9"/>
</svg>
