<svg width="262" height="26" viewBox="0 0 262 26" fill="none" xmlns="http://www.w3.org/2000/svg">
<path fill-rule="evenodd" clip-rule="evenodd" d="M9.97194 5.13341L8.46723 7.22763L7.71487 8.27475H22.711V25.9224L16.0163 23.9048L17.3043 22.8832V18.2223H11.9485V25.2967H6.66922V9.69218C4.75644 12.2717 2.71614 14.8894 0.535578 17.5455L0 17.0858C2.89467 13.4209 5.8531 9.43679 8.88804 5.12064H0.803366V4.36723H9.42362C10.0995 3.37119 10.6223 2.61778 10.9793 2.11977C11.0421 2.02993 11.1097 1.93535 11.1814 1.83492L11.1814 1.8349C11.3135 1.64983 11.4599 1.44489 11.6169 1.21312C11.872 0.855567 12.1398 0.459708 12.4458 0L13.3257 0.191545L13.2545 0.29735L13.2544 0.297413L13.2544 0.297486C12.4785 1.45049 11.5575 2.8191 10.4565 4.38H24.7003L24.407 5.13341H9.97194ZM11.9485 9.02816V12.8591H17.3043V9.02816H11.9485ZM17.3043 17.4689V13.6125H11.9485V17.4689H17.3043ZM48.9366 18.3899H43.0453L41.362 22.8975H35.3049L43.7976 1.54666H48.0057C48.452 1.54666 48.8091 1.62327 49.0769 1.77651C49.3447 1.92975 49.536 2.18514 49.6635 2.54269L56.677 22.8975H50.4158L48.9366 18.3899ZM44.7795 13.6906H47.3809L46.1695 9.98741L44.7795 13.6906ZM59.4315 1.14888V22.9212H65.0296V1.14888H59.4315ZM74.7719 18.7596C74.7719 20.6367 74.1471 22.2329 72.9102 23.5482C71.6732 24.8635 69.8115 25.6808 67.3249 26C68.345 25.4126 69.1229 24.7613 69.6839 24.059C70.2323 23.3567 70.6148 22.5139 70.8316 21.5306C70.0665 21.3901 69.4289 21.0071 68.9316 20.4069C68.4343 19.7939 68.1792 19.1044 68.1792 18.3127C68.1792 17.4188 68.4853 16.6526 69.0974 16.0141C69.7094 15.3756 70.4618 15.0436 71.3544 15.0053H71.4309L71.941 15.0309C72.5276 15.1202 73.0377 15.3246 73.4585 15.631C73.8793 15.9503 74.1981 16.3717 74.4149 16.908C74.5934 17.2783 74.6954 17.6997 74.7337 18.1467C74.7464 18.2871 74.7592 18.4914 74.7592 18.7596H74.7719ZM100.888 25.17V17.2911L100.9 17.2784L103.017 16.8442L102.915 16.0652L100.9 16.4739V13.4475H102.074L102.316 12.6685H100.977V7.08816H97.5977C97.789 6.59014 98.0058 5.9772 98.2353 5.2621H102.839L103.081 4.50869H98.5031L99.74 0.945949L95.5957 0.192539L94.04 4.50869H91.9487V5.2621H93.7722C93.3898 6.35102 92.7499 8.0903 91.8629 10.501L91.8618 10.5039L91.8592 10.5112L91.8586 10.5128L91.6809 10.9957C91.5024 11.532 91.4131 11.9534 91.4131 12.2343C91.4131 12.6174 91.5406 12.9239 91.8084 13.1282C92.0762 13.3325 92.5097 13.4347 93.1218 13.4347H96.1695V17.4061L91.3238 18.3766L91.5406 19.181L96.1695 18.2489V25.17H100.888ZM95.6085 12.6685L96.9474 8.91422V12.6685H95.6085ZM116.925 23.063L116.93 23.0503V23.063H116.925ZM111.357 23.063H116.925L116.662 23.8037H100.99V23.0503H105.733V15.082H103.056V14.3286H103.961L100.99 11.3277C103.808 9.18239 106.958 6.53906 110.439 3.41049H102.8V2.65708H114.239C114.774 2.65708 115.195 2.78478 115.514 3.06572C115.833 3.33388 115.986 3.66589 115.986 4.06175C115.986 4.50869 115.782 4.91732 115.374 5.30041C113.869 6.65399 112.301 7.99481 110.643 9.29731C108.998 10.5998 106.83 12.2854 104.152 14.3413H114.915L114.672 15.0947H111.357V23.063ZM116.164 11.3405C116.164 10.7275 115.96 10.2167 115.54 9.79533C115.119 9.3867 114.609 9.16962 113.997 9.16962C113.385 9.16962 112.874 9.37393 112.454 9.79533C112.033 10.2167 111.829 10.7275 111.829 11.3405C111.829 11.9534 112.033 12.4642 112.454 12.8856C112.874 13.2942 113.385 13.5113 113.997 13.5113C114.609 13.5113 115.119 13.307 115.54 12.8856C115.948 12.4642 116.164 11.9534 116.164 11.3405ZM137.34 14.825C137.085 15.0804 136.779 15.2081 136.396 15.2081C136.09 15.2081 135.81 15.1059 135.542 14.8889V25.0791H130.824V10.9175C130.021 13.7396 129.141 16.4723 128.197 19.1284L127.559 18.6176C128.707 15.2975 129.791 11.722 130.824 7.89108V7.35475H128.388V6.60134H130.824V0.45913H135.542V6.60134H137.825L137.582 7.35475H135.542V12.9096C135.81 12.6925 136.09 12.5903 136.396 12.5903C136.766 12.5903 137.085 12.718 137.34 12.9734C137.595 13.2288 137.71 13.548 137.71 13.8928C137.71 14.2376 137.582 14.5568 137.34 14.8122V14.825ZM151.125 20.7757C151.533 21.1843 151.737 21.6823 151.737 22.2825C151.737 22.8827 151.533 23.3679 151.125 23.7893C150.717 24.198 150.219 24.4023 149.62 24.4023C149.25 24.4023 148.906 24.3129 148.6 24.1469C148.294 23.9809 148.052 23.751 147.848 23.4573H138.5C137.799 23.4573 137.289 23.3296 136.945 23.087C136.6 22.8316 136.435 22.4868 136.435 22.0399C136.435 21.5929 136.626 21.0438 136.996 20.4564C138.284 18.4516 139.929 15.77 141.956 12.386L142.734 11.0707L147.21 12.5775C144.303 17.6343 142.339 21.0055 141.319 22.6911H147.529C147.516 22.6017 147.503 22.474 147.503 22.2825C147.503 21.6951 147.707 21.1971 148.115 20.7757C148.523 20.3543 149.021 20.1627 149.62 20.1627C150.219 20.1627 150.704 20.367 151.125 20.7757ZM137.098 12.3222C138.169 10.6366 139.125 9.07866 139.967 7.64845C140.809 6.21825 141.701 4.5965 142.645 2.80875L143.474 3.00029C142.275 5.18391 141.28 6.95889 140.477 8.35079C139.674 9.72991 138.743 11.2367 137.697 12.8457L137.111 12.3349L137.098 12.3222ZM150.003 13.829C147.899 10.611 145.884 6.98443 143.946 2.97475L146.496 2.00426C148.332 4.76251 150.678 7.64845 153.535 10.6876L150.003 13.829ZM170.579 25.5777V3.37119C171.332 2.24746 172.02 1.23866 172.645 0.344782L171.944 0C170.222 2.54116 168.756 4.64816 167.583 6.32099C166.41 7.98105 165.134 9.73049 163.757 11.531L164.293 12.144L165.976 9.92204V25.5777H170.579ZM188.208 6.98866L188.208 6.98648L188.215 6.96453C188.32 6.63234 188.422 6.31107 188.521 6.00175H188.534H189.388L189.631 5.24834H181.89C182.528 3.49889 183.012 2.15807 183.331 1.22589L183.65 0.370319L182.847 0.229854C181.903 2.94979 180.908 5.63143 179.875 8.30029H179.85V8.32583L179.442 9.32186C179.149 10.0753 178.83 10.8542 178.473 11.6587L179.085 12.2206L180.296 9.37294C180.743 10.4711 181.253 11.6076 181.801 12.808L181.316 14.3148L179.952 18.5799V12.974H177.465V7.53411H179.531L179.773 6.7807H177.465V0.932185H173.232V6.7807H170.72V7.53411H173.232V12.974H171.089V21.7212H178.881L177.708 25.1307L182.528 24.4539C183 23.1386 183.676 21.1338 184.568 18.4522C185.78 20.7763 187.157 23.1003 188.713 25.4244L189.35 24.8626C187.807 22.6406 186.315 20.1761 184.874 17.4561C185.703 14.9405 186.392 12.7697 186.94 10.9691C187.246 10.037 187.527 9.15586 187.782 8.32583C187.928 7.87144 188.067 7.43236 188.201 7.01069L188.205 6.99737L188.208 6.98866ZM174.941 13.7146H175.846V20.904H174.941V13.7146ZM183.825 6.00175H181.584C181.189 7.0744 180.883 7.89166 180.641 8.44075C180.959 9.20693 181.444 10.3307 182.082 11.7864C182.489 10.4606 183.074 8.5366 183.825 6.00175ZM211.61 15.2746C211.291 15.5938 210.908 15.7598 210.462 15.7598C209.927 15.7598 209.493 15.5428 209.174 15.1214V25.2605H204.405V11.15C204.226 11.5842 204.099 11.9034 204.035 12.1205C203.869 12.4908 203.487 13.4358 202.875 14.9553C202.263 16.4622 201.587 17.9945 200.86 19.5524L200.273 18.965C201.702 15.7598 203.002 12.6568 204.188 9.6304H201V8.87699H204.43V2.95186L201.434 3.5648L201.192 2.95186C204.418 2.24953 207.861 1.40673 211.495 0.397922L211.712 1.15133L209.2 1.82813V8.87699H212.286L212.018 9.6304H209.2V13.1165C209.518 12.7079 209.952 12.5036 210.488 12.5036C210.934 12.5036 211.317 12.6696 211.635 12.9888C211.954 13.3081 212.12 13.6912 212.12 14.1381C212.12 14.585 211.954 14.9681 211.635 15.2874L211.61 15.2746ZM225.764 14.7893L223.622 15.3001V25.4648H218.343V16.5132L211.431 18.1222V17.3944L218.343 15.7854V0.372382H223.622V14.5595L225.764 14.0487V14.7893ZM213.025 12.2993C212.668 11.9417 212.49 11.5075 212.49 11.0095C212.49 10.5115 212.668 10.0901 213.025 9.73255C213.382 9.38777 213.816 9.20899 214.313 9.20899C214.811 9.20899 215.231 9.38777 215.588 9.73255C215.933 10.0773 216.111 10.5115 216.111 11.0095C216.111 11.5075 215.933 11.9417 215.588 12.2993C215.244 12.6568 214.811 12.8356 214.313 12.8356C213.816 12.8356 213.382 12.6568 213.025 12.2993ZM214.632 6.39967C214.288 6.05489 214.122 5.64626 214.122 5.13547C214.122 4.62468 214.288 4.2416 214.632 3.88404C214.976 3.53926 215.384 3.36049 215.894 3.36049C216.404 3.36049 216.787 3.53926 217.131 3.88404C217.476 4.22883 217.641 4.65022 217.641 5.13547C217.641 5.62072 217.476 6.05489 217.131 6.39967C216.787 6.74445 216.379 6.91046 215.894 6.91046C215.41 6.91046 214.976 6.74445 214.632 6.39967ZM246.991 9.75737H240.105L240.118 9.7446C241.074 7.34391 241.827 5.50507 242.362 4.21533H247.374L247.616 3.46192H237.198V4.21533H241.508C241.01 5.50507 240.284 7.34391 239.314 9.7446H239.123V10.1788C238.065 12.7327 237.083 15.044 236.178 17.0999L236.713 17.6363C237.351 16.2061 238.154 14.38 239.123 12.1453V20.4584H246.991V9.75737ZM243.395 19.6794H242.49V10.5108H243.395V19.6794ZM259.169 25.2087V12.1708H261.719H261.732L262 11.4174H259.182V3.05329H260.444L260.712 2.29988H247.59V3.05329H250.077L249.35 11.4174H247.017V12.1708H249.261L248.088 25.1448L248.968 25.3364L250.115 12.1708H253.89V25.2087H259.169ZM253.89 3.05329V11.4174H250.166L250.944 3.05329H253.89Z" fill="#BCDDF9"/>
</svg>
