<svg width="261" height="26" viewBox="0 0 261 26" fill="none" xmlns="http://www.w3.org/2000/svg">
<path fill-rule="evenodd" clip-rule="evenodd" d="M9.98588 5.13341L8.47906 7.22763L7.72565 8.27475H22.7428V25.9224L16.0387 23.9048L17.3284 22.8833V18.2223H11.9652V25.2967H6.67854V9.69218C4.76309 12.2717 2.71994 14.8894 0.536326 17.5455L0 17.0858C2.89872 13.4209 5.86128 9.43679 8.90046 5.12064H0.817259V4.36723H9.44956C10.1263 3.37119 10.6499 2.61778 11.0075 2.11977C11.0703 2.02994 11.1379 1.93538 11.2097 1.83497L11.2098 1.8349L11.2098 1.83484L11.2099 1.83468C11.3422 1.64967 11.4887 1.4448 11.6459 1.21312C11.9013 0.855568 12.1695 0.459708 12.476 0L13.3571 0.191545L13.2858 0.297249C12.5088 1.45031 11.5865 2.819 10.4839 4.38H24.7476L24.4539 5.13341H9.98588ZM11.978 9.02816V12.8591H17.3412V9.02816H11.978ZM17.3412 17.4689V13.6125H11.978V17.4689H17.3412ZM49.0144 18.375H43.1148L41.4292 22.8827H35.3636L43.8555 1.54454H48.0694C48.5164 1.54454 48.8739 1.62116 49.1421 1.77439C49.4103 1.92763 49.6018 2.18302 49.7295 2.54057L56.7528 22.8954H50.4829L49.0016 18.3877L49.0144 18.375ZM44.8515 13.6885H47.4565L46.2434 9.98529L44.8515 13.6885ZM59.5238 1.1383V22.9106H65.1297V1.1383H59.5238ZM74.8854 18.7596C74.8854 20.6367 74.2597 22.2329 73.021 23.5482C71.7824 24.8635 69.918 25.6808 67.4279 26C68.4495 25.4126 69.2284 24.7613 69.7903 24.059C70.3394 23.3567 70.7225 22.5139 70.9396 21.5306C70.1734 21.3901 69.5349 21.0071 69.0369 20.4069C68.5389 19.7939 68.2835 19.1044 68.2835 18.3127C68.2835 17.4188 68.5899 16.6526 69.2029 16.0141C69.8158 15.3756 70.5692 15.0436 71.4631 15.0053H71.5397L72.0505 15.0309C72.6379 15.1202 73.1487 15.3246 73.5701 15.631C73.9915 15.9503 74.3108 16.3717 74.5278 16.908C74.7066 17.2783 74.8088 17.6997 74.8471 18.1467C74.8598 18.2871 74.8726 18.4914 74.8726 18.7596H74.8854ZM101.025 25.1573V17.2784L101.038 17.2657L103.158 16.8315L103.056 16.0525L101.038 16.4612V13.4348H102.213L102.453 12.6645L104.103 14.3286H103.196V15.0821H105.878V23.0503H101.127V23.8037H116.821L117.085 23.0631H117.089V23.0503L117.085 23.0631H111.509V15.0948H114.829L115.072 14.3414H104.294C106.976 12.2855 109.147 10.5999 110.794 9.29739C112.454 7.99488 114.025 6.65407 115.531 5.30048C115.94 4.91739 116.144 4.50876 116.144 4.06182C116.144 3.66596 115.991 3.33395 115.672 3.06579C115.353 2.78486 114.931 2.65716 114.395 2.65716H102.941V3.41057H110.59C107.103 6.53914 103.949 9.18246 101.127 11.3278L102.444 12.6558H101.115V7.07547H97.7306C97.9221 6.57745 98.1392 5.9645 98.369 5.2494H102.979L103.222 4.49599H98.6372L99.8759 0.933254L95.7257 0.179844L94.1678 4.49599H92.0736V5.2494H93.8997C93.5165 6.33898 92.8751 8.07972 91.9861 10.4927L91.9845 10.4971L91.8054 10.983C91.6266 11.5193 91.5373 11.9407 91.5373 12.2216C91.5373 12.6047 91.665 12.9112 91.9331 13.1155C92.2013 13.3198 92.6355 13.422 93.2484 13.422H96.3004V17.3934L91.4479 18.3639L91.665 19.1683L96.3004 18.2362V25.1573H101.025ZM95.7513 12.6686L97.0921 8.9143V12.6686H95.7513ZM116.336 11.3278C116.336 10.7148 116.132 10.204 115.71 9.78264C115.289 9.37401 114.778 9.15692 114.165 9.15692C113.552 9.15692 113.041 9.36124 112.62 9.78264C112.199 10.204 111.994 10.7148 111.994 11.3278C111.994 11.9407 112.199 12.4515 112.62 12.8729C113.041 13.2815 113.552 13.4986 114.165 13.4986C114.778 13.4986 115.289 13.2943 115.71 12.8729C116.119 12.4515 116.336 11.9407 116.336 11.3278ZM137.525 14.8249C137.27 15.0803 136.963 15.208 136.58 15.208C136.274 15.208 135.993 15.1059 135.725 14.8888V25.079H131V10.9174C130.195 13.7395 129.314 16.4722 128.369 19.1283L127.731 18.6175C128.88 15.2974 129.965 11.7219 131 7.891V7.35468H128.561V6.60127H131V0.471825H135.725V6.61404H138.01L137.768 7.36745H135.725V12.9223C135.993 12.7052 136.274 12.603 136.58 12.603C136.951 12.603 137.27 12.7307 137.525 12.9861C137.781 13.2415 137.895 13.5607 137.895 13.9055C137.895 14.2503 137.768 14.5695 137.525 14.8249ZM151.342 20.7628C151.751 21.1715 151.955 21.6695 151.955 22.2697C151.955 22.8698 151.751 23.3551 151.342 23.7765C150.933 24.1851 150.435 24.3894 149.835 24.3894C149.465 24.3894 149.12 24.3 148.814 24.134C148.507 23.968 148.264 23.7382 148.06 23.4445H138.7C137.998 23.4445 137.487 23.3168 137.142 23.0741C136.797 22.8187 136.631 22.474 136.631 22.027C136.631 21.5801 136.823 21.031 137.193 20.4436C138.483 18.4388 140.13 15.7571 142.161 12.3732L142.939 11.0579L147.422 12.5647C144.51 17.6215 142.544 20.9927 141.522 22.6783H147.741C147.728 22.5889 147.715 22.4612 147.715 22.2697C147.715 21.6822 147.92 21.1842 148.328 20.7628C148.737 20.3414 149.235 20.1499 149.835 20.1499C150.435 20.1499 150.921 20.3542 151.342 20.7628ZM137.283 12.3221C138.355 10.6365 139.313 9.07858 140.156 7.64838C140.998 6.21818 141.892 4.59643 142.837 2.80868L143.667 3.00022C142.467 5.18383 141.471 6.95882 140.666 8.35071C139.862 9.72984 138.93 11.2367 137.883 12.8456L137.295 12.3349L137.283 12.3221ZM150.218 13.8289C148.111 10.6109 146.094 6.98436 144.153 2.97468L146.707 2.00419C148.545 4.76243 150.895 7.64838 153.755 10.6876L150.218 13.8289ZM173.067 19.3962L172.825 18.7322L172.837 18.7194L171.037 19.4984V8.40155H164.192V9.15496H166.044V21.7075L165.316 22.0268L165.584 22.8057L173.067 19.3962ZM167.193 3.65123C167.193 4.14925 167.372 4.58341 167.729 4.94096C168.087 5.29852 168.521 5.47729 169.019 5.47729C169.517 5.47729 169.951 5.29852 170.296 4.94096C170.641 4.58341 170.82 4.14925 170.82 3.65123C170.82 3.15321 170.654 2.71904 170.296 2.37426C169.939 2.02948 169.517 1.8507 169.019 1.8507C168.521 1.8507 168.087 2.02948 167.729 2.37426C167.372 2.73181 167.193 3.15321 167.193 3.65123ZM181.755 16.2038H188.914L188.646 16.9572H181.457C180.652 19.0642 179.592 21.7075 178.264 24.9L173.22 25.3852C174.561 22.3333 175.736 19.5239 176.732 16.97H171.854V16.2166H177C177.843 14.0585 178.635 11.8749 179.388 9.67851H184.164C183.45 11.6543 182.647 13.8336 181.755 16.2038ZM189.476 8.64417C189.515 8.46539 189.527 8.29939 189.527 8.29939C189.527 7.90353 189.272 7.71198 188.748 7.71198H182.747V4.14925H187.816L188.084 3.39583H182.747V0.152338H177.818V3.38306H173.361V4.13648H177.818V7.69921H172.02V8.45262H185.109C184.943 9.42312 184.675 10.815 184.305 12.6411L188.404 13.1519C188.506 12.7688 188.71 11.926 189.017 10.5979C189.106 10.151 189.259 9.49974 189.476 8.64417ZM173.833 12.5645C173.386 12.5645 173.003 12.7305 172.697 13.0369C172.378 13.3434 172.224 13.7265 172.224 14.1734C172.224 14.6204 172.378 14.9907 172.697 15.3099C173.003 15.6292 173.386 15.7824 173.833 15.7824C174.28 15.7824 174.651 15.6164 174.97 15.3099C175.289 15.0035 175.442 14.6204 175.442 14.1734C175.442 13.7265 175.289 13.3562 174.97 13.0369C174.663 12.7177 174.28 12.5645 173.833 12.5645ZM174.638 10.9555C174.638 11.3641 174.791 11.7217 175.098 12.0154C175.404 12.3091 175.762 12.4623 176.17 12.4623C176.579 12.4623 176.936 12.3091 177.23 12.0154C177.524 11.7217 177.677 11.3896 177.677 10.9555C177.677 10.5213 177.524 10.1638 177.23 9.87006C176.936 9.57635 176.579 9.42312 176.17 9.42312C175.762 9.42312 175.404 9.57635 175.098 9.87006C174.791 10.1638 174.638 10.5469 174.638 10.9555ZM187.535 23.0228C187.535 22.4226 187.331 21.9246 186.91 21.516C186.488 21.1074 185.99 20.9031 185.39 20.9031C184.79 20.9031 184.292 21.0946 183.883 21.516C183.474 21.9374 183.27 22.4226 183.27 23.0228C183.27 23.623 183.474 24.121 183.883 24.5424C184.305 24.951 184.79 25.1681 185.39 25.1681C185.99 25.1681 186.488 24.9638 186.91 24.5424C187.318 24.121 187.535 23.623 187.535 23.0228ZM210.551 18.0814L210.793 18.7198L202.314 22.5763L202.046 21.7973L203.144 21.3121V9.15535H200.705V8.40194H205.583V8.42748H208.367V19.0518L210.538 18.0814H210.551ZM204.651 4.60935C204.294 4.23903 204.115 3.80486 204.115 3.2813C204.115 2.75775 204.294 2.32358 204.664 1.96603C205.034 1.60848 205.468 1.4297 205.966 1.4297C206.464 1.4297 206.924 1.60848 207.294 1.96603C207.665 2.32358 207.844 2.75775 207.844 3.2813C207.844 3.80486 207.665 4.23903 207.294 4.60935C206.924 4.97967 206.49 5.15844 205.966 5.15844C205.443 5.15844 205.009 4.97967 204.651 4.60935ZM209.108 11.7093L208.648 11.1985C210.129 9.44905 211.521 7.75069 212.824 6.1034C214.113 4.45611 215.556 2.57897 217.127 0.446436L217.881 0.765677L217.076 1.83833C218.315 2.8599 219.63 3.84317 221.035 4.78812C222.439 5.73308 224.112 6.80573 226.066 8.00608L223.793 11.7348C222.056 10.3812 220.524 9.10427 219.183 7.92946C217.842 6.75465 216.54 5.516 215.263 4.22626C213.169 6.92066 211.125 9.42351 209.121 11.7093H209.108ZM216.884 23.5595H224.955L224.738 24.313H211.457V9.74276H216.872V16.6128C218.851 15.3997 220.728 14.0461 222.503 12.5649L222.963 13.1778C221.137 14.6974 219.106 16.1276 216.872 17.4684V23.5595H216.884ZM259.871 25.3851L260.408 24.7083H260.42C256.985 22.065 253.767 19.1918 250.766 16.1015C253.346 12.7686 255.67 9.66561 257.739 6.7669H260.254L260.548 6.01349H237.946V6.7669H241.892C243.628 9.09098 245.327 11.2235 247.012 13.1773C244.446 16.574 241.355 20.4304 237.703 24.7338L243.462 24.9254C245.569 22.5119 247.829 19.792 250.243 16.7528C253.129 19.7409 256.334 22.6141 259.871 25.3851ZM251.584 6.77967C250.447 8.47803 249.081 10.3935 247.485 12.5388C245.722 10.5595 244.152 8.64404 242.76 6.77967H251.584ZM246.91 2.82107C246.91 3.44678 247.14 3.98311 247.587 4.43005C248.034 4.88976 248.57 5.10684 249.196 5.10684C249.822 5.10684 250.358 4.87699 250.805 4.43005C251.252 3.98311 251.482 3.44678 251.482 2.82107C251.482 2.19536 251.252 1.65903 250.805 1.21209C250.358 0.765154 249.822 0.535299 249.196 0.535299C248.57 0.535299 248.034 0.765154 247.587 1.21209C247.127 1.65903 246.91 2.19536 246.91 2.82107Z" fill="#BCDDF9"/>
</svg>
