<?xml version="1.0" encoding="UTF-8"?>
<svg width="24px" height="24px" viewBox="0 0 24 24" version="1.1" xmlns="http://www.w3.org/2000/svg" xmlns:xlink="http://www.w3.org/1999/xlink">
    <title>icon/Avatar/defalt</title>
    <defs>
        <circle id="path-1" cx="11" cy="11" r="11"></circle>
    </defs>
    <g id="icon/Avatar/defalt" stroke="none" stroke-width="1" fill="none" fill-rule="evenodd">
        <g id="主讲人" transform="translate(1.000000, 1.000000)">
            <mask id="mask-2" fill="white">
                <use xlink:href="#path-1"></use>
            </mask>
            <use id="蒙版" fill="#E8EBEF" opacity="0.600000024" xlink:href="#path-1"></use>
            <rect id="矩形" fill="#000000" fill-rule="nonzero" opacity="0" mask="url(#mask-2)" x="2.2" y="2.75" width="17.6" height="17.6"></rect>
            <path d="M11,11.9166667 C13.39826,11.9166667 15.3541667,9.96004037 15.3541667,7.5625 C15.3541667,5.16383771 13.39826,3.20833333 11,3.20833333 C8.60174001,3.20833333 6.64583333,5.16383771 6.64583333,7.56137808 C6.64583333,9.96004037 8.60174001,11.9166667 11,11.9166667 Z" id="路径" fill="#A9B7CC" opacity="0.512272426" mask="url(#mask-2)"></path>
            <path d="M10.725,13.75 C15.2069585,13.75 19.791756,15.5618382 19.8,17.8581782 L19.8,22.231727 C19.8,23.0582809 18.9958598,23.733756 18.0147568,23.733756 L3.98654443,23.733756 C3.0012602,23.7319522 2.20286187,23.0607024 2.2,22.231727 L2.2,17.8581782 C2.20866422,15.5654927 6.24304149,13.75 10.725,13.75 Z" id="路径" fill="#A9B7CC" opacity="0.512272426" mask="url(#mask-2)"></path>
        </g>
    </g>
</svg>