<svg width="16" height="16" viewBox="0 0 16 16" fill="none" xmlns="http://www.w3.org/2000/svg">
<path fill-rule="evenodd" clip-rule="evenodd" d="M8 1C11.866 1 15 4.13401 15 8V14C15 14.5523 14.5523 15 14 15H8C4.13401 15 1 11.866 1 8C1 4.13401 4.13401 1 8 1ZM0 8C0 3.58172 3.58172 0 8 0C12.4183 0 16 3.58172 16 8V14C16 15.1046 15.1046 16 14 16H8C3.58172 16 0 12.4183 0 8ZM6.475 5H7.591L10.066 11H9.013L7.051 6.053H7.015L5.44242 10H6.80005V11H5.044H4.80005H4L6.475 5ZM12 5H11V11H12V5Z" fill="white" fill-opacity="0.85"/>
</svg>
