<svg xmlns="http://www.w3.org/2000/svg" xmlns:xlink="http://www.w3.org/1999/xlink" fill="none" version="1.1" width="101" height="101" viewBox="0 0 101 101"><defs><filter id="master_svg0_8_0335" filterUnits="objectBoundingBox" color-interpolation-filters="sRGB" x="-0.28169014084507044" y="-0.22535211267605634" width="1.5633802816901408" height="1.5633802816901408"><feFlood flood-opacity="0" result="BackgroundImageFix"/><feColorMatrix in="SourceAlpha" type="matrix" values="0 0 0 0 0 0 0 0 0 0 0 0 0 0 0 0 0 0 127 0"/><feOffset dy="4" dx="0"/><feGaussianBlur stdDeviation="5"/><feColorMatrix type="matrix" values="0 0 0 0 0 0 0 0 0 0 0 0 0 0 0 0 0 0 0.30000001192092896 0"/><feBlend mode="normal" in2="BackgroundImageFix" result="effect1_dropShadow"/><feBlend mode="normal" in="SourceGraphic" in2="effect1_dropShadow" result="shape"/></filter></defs><g filter="url(#master_svg0_8_0335)"><g><rect x="15" y="11" width="71" height="71" rx="35.5" fill="#E5E6EB" fill-opacity="1"/></g><g><path d="M49.84,32.54L48.08,27.73Q47.95,27.41,47.81,26.97Q47.67,26.53,47.53,26.02Q47.4,26.53,47.260000000000005,26.975Q47.120000000000005,27.42,46.989999999999995,27.75L45.239999999999995,32.54L49.84,32.54ZM54.59,38L52.51,38Q52.16,38,51.94,37.825Q51.72,37.65,51.61,37.39L50.53,34.44L44.54,34.44L43.46,37.39Q43.379999999999995,37.620000000000005,43.15,37.81Q42.92,38,42.58,38L40.480000000000004,38L46.17,23.54L48.91,23.54L54.59,38ZM58.79,38L56.09,38L56.09,23.54L58.79,23.54L58.79,38ZM28.064999999999998,60.34Q28.485,60.85,28.98,61.06Q29.475,61.27,30.025,61.27Q30.595,61.27,31.05,61.065Q31.505000000000003,60.86,31.825,60.425Q32.144999999999996,59.99,32.315,59.315Q32.485,58.64,32.485,57.7Q32.485,56.01,31.925,55.255Q31.365000000000002,54.5,30.314999999999998,54.5Q29.605,54.5,29.075,54.825Q28.545,55.15,28.064999999999998,55.74L28.064999999999998,60.34ZM28.064999999999998,54Q28.685000000000002,53.35,29.439999999999998,52.965Q30.195,52.58,31.165,52.58Q32.055,52.58,32.769999999999996,52.93Q33.485,53.28,33.99,53.935Q34.495000000000005,54.59,34.765,55.52Q35.035,56.45,35.035,57.61Q35.035,58.86,34.725,59.88Q34.415,60.9,33.84,61.625Q33.265,62.35,32.455,62.75Q31.645,63.15,30.655,63.15Q30.175,63.15,29.785,63.055Q29.395,62.96,29.064999999999998,62.79Q28.735,62.62,28.46,62.375Q28.185000000000002,62.13,27.935000000000002,61.83L27.825,62.52Q27.765,62.78,27.619999999999997,62.89Q27.475,63,27.225,63L25.595,63L25.595,48.14L28.064999999999998,48.14L28.064999999999998,54ZM43.555,56.69Q43.555,56.21,43.42,55.785Q43.285,55.36,43.015,55.04Q42.745000000000005,54.72,42.33,54.535Q41.915,54.35,41.364999999999995,54.35Q40.295,54.35,39.68,54.96Q39.065,55.57,38.894999999999996,56.69L43.555,56.69ZM38.845,58.18Q38.905,58.97,39.125,59.545Q39.345,60.12,39.705,60.495Q40.065,60.87,40.56,61.055Q41.055,61.24,41.655,61.24Q42.254999999999995,61.24,42.69,61.1Q43.125,60.96,43.45,60.79Q43.775,60.62,44.019999999999996,60.48Q44.265,60.34,44.495000000000005,60.34Q44.805,60.34,44.955,60.57L45.665,61.47Q45.254999999999995,61.95,44.745000000000005,62.275Q44.235,62.6,43.68,62.795Q43.125,62.99,42.55,63.07Q41.975,63.15,41.435,63.15Q40.364999999999995,63.15,39.445,62.795Q38.525,62.44,37.845,61.745Q37.165,61.05,36.775,60.025Q36.385000000000005,59,36.385000000000005,57.65Q36.385000000000005,56.6,36.725,55.675Q37.065,54.75,37.7,54.065Q38.335,53.38,39.25,52.98Q40.165,52.58,41.315,52.58Q42.285,52.58,43.105000000000004,52.89Q43.925,53.2,44.515,53.795Q45.105000000000004,54.39,45.44,55.255Q45.775,56.12,45.775,57.23Q45.775,57.79,45.655,57.985Q45.535,58.18,45.195,58.18L38.845,58.18ZM53.045,58.62Q51.975,58.67,51.245,58.805Q50.515,58.94,50.075,59.15Q49.635000000000005,59.36,49.445,59.64Q49.254999999999995,59.92,49.254999999999995,60.25Q49.254999999999995,60.9,49.64,61.18Q50.025,61.46,50.645,61.46Q51.405,61.46,51.96,61.185Q52.515,60.91,53.045,60.35L53.045,58.62ZM47.385000000000005,54.17Q49.155,52.55,51.645,52.55Q52.545,52.55,53.255,52.845Q53.965,53.14,54.455,53.665Q54.945,54.19,55.2,54.92Q55.455,55.65,55.455,56.52L55.455,63L54.335,63Q53.985,63,53.795,62.895Q53.605,62.79,53.495,62.47L53.275,61.73Q52.885,62.08,52.515,62.345Q52.145,62.61,51.745,62.79Q51.345,62.97,50.89,63.065Q50.435,63.16,49.885000000000005,63.16Q49.235,63.16,48.685,62.985Q48.135000000000005,62.81,47.735,62.46Q47.335,62.11,47.114999999999995,61.59Q46.894999999999996,61.07,46.894999999999996,60.38Q46.894999999999996,59.99,47.025,59.605Q47.155,59.22,47.45,58.87Q47.745000000000005,58.52,48.215,58.21Q48.685,57.9,49.370000000000005,57.67Q50.055,57.44,50.965,57.295Q51.875,57.15,53.045,57.12L53.045,56.52Q53.045,55.49,52.605,54.995Q52.165,54.5,51.335,54.5Q50.735,54.5,50.34,54.64Q49.945,54.78,49.644999999999996,54.955Q49.345,55.13,49.1,55.27Q48.855000000000004,55.41,48.555,55.41Q48.295,55.41,48.114999999999995,55.275Q47.935,55.14,47.825,54.96L47.385000000000005,54.17ZM60.085,54Q60.395,53.69,60.74,53.425Q61.085,53.16,61.47,52.975Q61.855,52.79,62.295,52.685Q62.735,52.58,63.255,52.58Q64.095,52.58,64.745,52.865Q65.39500000000001,53.15,65.83,53.665Q66.265,54.18,66.49000000000001,54.895Q66.715,55.61,66.715,56.47L66.715,63L64.245,63L64.245,56.47Q64.245,55.53,63.815,55.015Q63.385,54.5,62.505,54.5Q61.865,54.5,61.305,54.79Q60.745,55.08,60.245,55.58L60.245,63L57.775,63L57.775,52.74L59.285,52.74Q59.765,52.74,59.915,53.19L60.085,54ZM75.315,54.74Q75.215,54.9,75.10499999999999,54.965Q74.995,55.03,74.825,55.03Q74.64500000000001,55.03,74.44,54.93Q74.235,54.83,73.965,54.705Q73.695,54.58,73.35,54.48Q73.005,54.38,72.535,54.38Q71.805,54.38,71.39,54.69Q70.975,55,70.975,55.5Q70.975,55.83,71.19,56.055Q71.405,56.28,71.75999999999999,56.45Q72.11500000000001,56.62,72.565,56.755Q73.015,56.89,73.47999999999999,57.05Q73.945,57.21,74.39500000000001,57.415Q74.845,57.62,75.2,57.935Q75.555,58.25,75.77000000000001,58.69Q75.985,59.13,75.985,59.75Q75.985,60.49,75.72,61.115Q75.455,61.74,74.935,62.195Q74.41499999999999,62.65,73.65,62.905Q72.88499999999999,63.16,71.88499999999999,63.16Q71.35499999999999,63.16,70.85,63.065Q70.345,62.97,69.88,62.8Q69.41499999999999,62.63,69.02000000000001,62.4Q68.625,62.17,68.325,61.9L68.89500000000001,60.96Q69.005,60.79,69.155,60.7Q69.305,60.61,69.535,60.61Q69.765,60.61,69.97,60.74Q70.175,60.87,70.445,61.02Q70.715,61.17,71.08,61.3Q71.445,61.43,72.005,61.43Q72.445,61.43,72.75999999999999,61.325Q73.075,61.22,73.28,61.05Q73.485,60.88,73.58,60.655Q73.675,60.43,73.675,60.19Q73.675,59.83,73.46000000000001,59.6Q73.245,59.37,72.89,59.2Q72.535,59.03,72.08,58.895Q71.625,58.76,71.15,58.6Q70.675,58.44,70.22,58.225Q69.765,58.01,69.41,57.68Q69.055,57.35,68.84,56.87Q68.625,56.39,68.625,55.71Q68.625,55.08,68.875,54.51Q69.125,53.94,69.61,53.515Q70.095,53.09,70.82,52.835Q71.545,52.58,72.495,52.58Q73.555,52.58,74.425,52.93Q75.295,53.28,75.875,53.85L75.315,54.74Z" fill="#1D2229" fill-opacity="1"/></g></g></svg>