<svg xmlns="http://www.w3.org/2000/svg" xmlns:xlink="http://www.w3.org/1999/xlink" fill="none" version="1.1" width="101" height="101" viewBox="0 0 101 101"><defs><filter id="master_svg0_8_0421" filterUnits="objectBoundingBox" color-interpolation-filters="sRGB" x="-0.28169014084507044" y="-0.22535211267605634" width="1.5633802816901408" height="1.5633802816901408"><feFlood flood-opacity="0" result="BackgroundImageFix"/><feColorMatrix in="SourceAlpha" type="matrix" values="0 0 0 0 0 0 0 0 0 0 0 0 0 0 0 0 0 0 127 0"/><feOffset dy="4" dx="0"/><feGaussianBlur stdDeviation="5"/><feColorMatrix type="matrix" values="0 0 0 0 0 0 0 0 0 0 0 0 0 0 0 0 0 0 0.30000001192092896 0"/><feBlend mode="normal" in2="BackgroundImageFix" result="effect1_dropShadow"/><feBlend mode="normal" in="SourceGraphic" in2="effect1_dropShadow" result="shape"/></filter><linearGradient x1="-9.313230187046884e-10" y1="0.5000004768371582" x2="1" y2="0.5000004768371582" id="master_svg1_4_4628"><stop offset="0%" stop-color="#558EDC" stop-opacity="1"/><stop offset="100%" stop-color="#DC9CE3" stop-opacity="1"/></linearGradient></defs><g filter="url(#master_svg0_8_0421)"><g><rect x="15" y="11" width="71" height="71" rx="35.5" fill="url(#master_svg1_4_4628)" fill-opacity="1"/></g><g><path d="M49.84,34.54L48.08,29.73Q47.95,29.41,47.81,28.97Q47.67,28.53,47.53,28.02Q47.4,28.53,47.260000000000005,28.975Q47.120000000000005,29.42,46.989999999999995,29.75L45.239999999999995,34.54L49.84,34.54ZM54.59,40L52.51,40Q52.16,40,51.94,39.825Q51.72,39.65,51.61,39.39L50.53,36.44L44.54,36.44L43.46,39.39Q43.379999999999995,39.620000000000005,43.15,39.81Q42.92,40,42.58,40L40.480000000000004,40L46.17,25.54L48.91,25.54L54.59,40ZM58.79,40L56.09,40L56.09,25.54L58.79,25.54L58.79,40ZM28.064999999999998,62.34Q28.485,62.85,28.98,63.06Q29.475,63.27,30.025,63.27Q30.595,63.27,31.05,63.065Q31.505000000000003,62.86,31.825,62.425Q32.144999999999996,61.99,32.315,61.315Q32.485,60.64,32.485,59.7Q32.485,58.01,31.925,57.255Q31.365000000000002,56.5,30.314999999999998,56.5Q29.605,56.5,29.075,56.825Q28.545,57.15,28.064999999999998,57.74L28.064999999999998,62.34ZM28.064999999999998,56Q28.685000000000002,55.35,29.439999999999998,54.965Q30.195,54.58,31.165,54.58Q32.055,54.58,32.769999999999996,54.93Q33.485,55.28,33.99,55.935Q34.495000000000005,56.59,34.765,57.52Q35.035,58.45,35.035,59.61Q35.035,60.86,34.725,61.88Q34.415,62.9,33.84,63.625Q33.265,64.35,32.455,64.75Q31.645,65.15,30.655,65.15Q30.175,65.15,29.785,65.055Q29.395,64.96000000000001,29.064999999999998,64.78999999999999Q28.735,64.62,28.46,64.375Q28.185000000000002,64.13,27.935000000000002,63.83L27.825,64.52000000000001Q27.765,64.78,27.619999999999997,64.89Q27.475,65,27.225,65L25.595,65L25.595,50.14L28.064999999999998,50.14L28.064999999999998,56ZM43.555,58.69Q43.555,58.21,43.42,57.785Q43.285,57.36,43.015,57.04Q42.745000000000005,56.72,42.33,56.535Q41.915,56.35,41.364999999999995,56.35Q40.295,56.35,39.68,56.96Q39.065,57.57,38.894999999999996,58.69L43.555,58.69ZM38.845,60.18Q38.905,60.97,39.125,61.545Q39.345,62.12,39.705,62.495Q40.065,62.87,40.56,63.055Q41.055,63.24,41.655,63.24Q42.254999999999995,63.24,42.69,63.1Q43.125,62.96,43.45,62.79Q43.775,62.62,44.019999999999996,62.48Q44.265,62.34,44.495000000000005,62.34Q44.805,62.34,44.955,62.57L45.665,63.47Q45.254999999999995,63.95,44.745000000000005,64.275Q44.235,64.6,43.68,64.795Q43.125,64.99000000000001,42.55,65.07Q41.975,65.15,41.435,65.15Q40.364999999999995,65.15,39.445,64.795Q38.525,64.44,37.845,63.745Q37.165,63.05,36.775,62.025Q36.385000000000005,61,36.385000000000005,59.65Q36.385000000000005,58.6,36.725,57.675Q37.065,56.75,37.7,56.065Q38.335,55.38,39.25,54.98Q40.165,54.58,41.315,54.58Q42.285,54.58,43.105000000000004,54.89Q43.925,55.2,44.515,55.795Q45.105000000000004,56.39,45.44,57.255Q45.775,58.12,45.775,59.23Q45.775,59.79,45.655,59.985Q45.535,60.18,45.195,60.18L38.845,60.18ZM53.045,60.62Q51.975,60.67,51.245,60.805Q50.515,60.94,50.075,61.15Q49.635000000000005,61.36,49.445,61.64Q49.254999999999995,61.92,49.254999999999995,62.25Q49.254999999999995,62.9,49.64,63.18Q50.025,63.46,50.645,63.46Q51.405,63.46,51.96,63.185Q52.515,62.91,53.045,62.35L53.045,60.62ZM47.385000000000005,56.17Q49.155,54.55,51.645,54.55Q52.545,54.55,53.255,54.845Q53.965,55.14,54.455,55.665Q54.945,56.19,55.2,56.92Q55.455,57.65,55.455,58.52L55.455,65L54.335,65Q53.985,65,53.795,64.89500000000001Q53.605,64.78999999999999,53.495,64.47L53.275,63.73Q52.885,64.08,52.515,64.345Q52.145,64.61,51.745,64.78999999999999Q51.345,64.97,50.89,65.065Q50.435,65.16,49.885000000000005,65.16Q49.235,65.16,48.685,64.985Q48.135000000000005,64.81,47.735,64.46000000000001Q47.335,64.11,47.114999999999995,63.59Q46.894999999999996,63.07,46.894999999999996,62.38Q46.894999999999996,61.99,47.025,61.605Q47.155,61.22,47.45,60.87Q47.745000000000005,60.52,48.215,60.21Q48.685,59.9,49.370000000000005,59.67Q50.055,59.44,50.965,59.295Q51.875,59.15,53.045,59.12L53.045,58.52Q53.045,57.49,52.605,56.995Q52.165,56.5,51.335,56.5Q50.735,56.5,50.34,56.64Q49.945,56.78,49.644999999999996,56.955Q49.345,57.13,49.1,57.27Q48.855000000000004,57.41,48.555,57.41Q48.295,57.41,48.114999999999995,57.275Q47.935,57.14,47.825,56.96L47.385000000000005,56.17ZM60.085,56Q60.395,55.69,60.74,55.425Q61.085,55.16,61.47,54.975Q61.855,54.79,62.295,54.685Q62.735,54.58,63.255,54.58Q64.095,54.58,64.745,54.865Q65.39500000000001,55.15,65.83,55.665Q66.265,56.18,66.49000000000001,56.895Q66.715,57.61,66.715,58.47L66.715,65L64.245,65L64.245,58.47Q64.245,57.53,63.815,57.015Q63.385,56.5,62.505,56.5Q61.865,56.5,61.305,56.79Q60.745,57.08,60.245,57.58L60.245,65L57.775,65L57.775,54.74L59.285,54.74Q59.765,54.74,59.915,55.19L60.085,56ZM75.315,56.74Q75.215,56.9,75.10499999999999,56.965Q74.995,57.03,74.825,57.03Q74.64500000000001,57.03,74.44,56.93Q74.235,56.83,73.965,56.705Q73.695,56.58,73.35,56.48Q73.005,56.38,72.535,56.38Q71.805,56.38,71.39,56.69Q70.975,57,70.975,57.5Q70.975,57.83,71.19,58.055Q71.405,58.28,71.75999999999999,58.45Q72.11500000000001,58.62,72.565,58.755Q73.015,58.89,73.47999999999999,59.05Q73.945,59.21,74.39500000000001,59.415Q74.845,59.62,75.2,59.935Q75.555,60.25,75.77000000000001,60.69Q75.985,61.13,75.985,61.75Q75.985,62.49,75.72,63.115Q75.455,63.74,74.935,64.195Q74.41499999999999,64.65,73.65,64.905Q72.88499999999999,65.16,71.88499999999999,65.16Q71.35499999999999,65.16,70.85,65.065Q70.345,64.97,69.88,64.8Q69.41499999999999,64.63,69.02000000000001,64.4Q68.625,64.17,68.325,63.9L68.89500000000001,62.96Q69.005,62.79,69.155,62.7Q69.305,62.61,69.535,62.61Q69.765,62.61,69.97,62.74Q70.175,62.87,70.445,63.02Q70.715,63.17,71.08,63.3Q71.445,63.43,72.005,63.43Q72.445,63.43,72.75999999999999,63.325Q73.075,63.22,73.28,63.05Q73.485,62.88,73.58,62.655Q73.675,62.43,73.675,62.19Q73.675,61.83,73.46000000000001,61.6Q73.245,61.37,72.89,61.2Q72.535,61.03,72.08,60.895Q71.625,60.76,71.15,60.6Q70.675,60.44,70.22,60.225Q69.765,60.01,69.41,59.68Q69.055,59.35,68.84,58.87Q68.625,58.39,68.625,57.71Q68.625,57.08,68.875,56.51Q69.125,55.94,69.61,55.515Q70.095,55.09,70.82,54.835Q71.545,54.58,72.495,54.58Q73.555,54.58,74.425,54.93Q75.295,55.28,75.875,55.85L75.315,56.74Z" fill="#FFFFFF" fill-opacity="1"/></g></g></svg>