<svg xmlns="http://www.w3.org/2000/svg" xmlns:xlink="http://www.w3.org/1999/xlink" fill="none" version="1.1" width="101" height="101" viewBox="0 0 101 101"><defs><filter id="master_svg0_6_0568" filterUnits="objectBoundingBox" color-interpolation-filters="sRGB" x="-0.28169014084507044" y="-0.22535211267605634" width="1.5633802816901408" height="1.5633802816901408"><feFlood flood-opacity="0" result="BackgroundImageFix"/><feColorMatrix in="SourceAlpha" type="matrix" values="0 0 0 0 0 0 0 0 0 0 0 0 0 0 0 0 0 0 127 0"/><feOffset dy="4" dx="0"/><feGaussianBlur stdDeviation="5"/><feColorMatrix type="matrix" values="0 0 0 0 0 0 0 0 0 0 0 0 0 0 0 0 0 0 0.30000001192092896 0"/><feBlend mode="normal" in2="BackgroundImageFix" result="effect1_dropShadow"/><feBlend mode="normal" in="SourceGraphic" in2="effect1_dropShadow" result="shape"/></filter></defs><g filter="url(#master_svg0_6_0568)"><g><rect x="15" y="11" width="71" height="71" rx="35.5" fill="#E5E6EB" fill-opacity="1"/></g><g><path d="M38.1,49.448L35.988,43.676Q35.832,43.292,35.664,42.764Q35.496,42.236,35.328,41.624Q35.172,42.236,35.004,42.769999999999996Q34.836,43.304,34.68,43.7L32.58,49.448L38.1,49.448ZM43.8,56L41.304,56Q40.884,56,40.62,55.79Q40.356,55.58,40.224000000000004,55.268L38.928,51.728L31.740000000000002,51.728L30.444,55.268Q30.348,55.544,30.072,55.772Q29.796,56,29.387999999999998,56L26.868,56L33.696,38.648001L36.984,38.648001L43.8,56ZM48.84,56L45.6,56L45.6,38.648001L48.84,38.648001L48.84,56ZM52.4869,36.67212L72.9476,36.67212L72.9476,39.31512L52.4869,39.31512L52.4869,36.67212ZM51.9323,54.7055L73.6305,54.7055L73.6305,57.3669L51.9323,57.3669L51.9323,54.7055ZM66.36410000000001,49.5429L69.6251,50.2617Q69.10759999999999,51.3444,68.529,52.4431Q67.9504,53.5415,67.3849,54.5375Q66.8197,55.533100000000005,66.3,56.2929L63.8385,55.5661Q64.3155,54.7449,64.7899,53.703900000000004Q65.26429999999999,52.6625,65.6782,51.5709Q66.0926,50.478899999999996,66.36410000000001,49.5429ZM56.0955,50.248599999999996L58.778999999999996,49.5189Q59.1413,50.2227,59.4728,51.0279Q59.8046,51.8326,60.0589,52.6059Q60.3135,53.3787,60.4253,53.9893L57.5629,54.8416Q57.469899999999996,54.2499,57.2434,53.455600000000004Q57.0173,52.661,56.7161,51.8161Q56.415400000000005,50.9709,56.0955,50.248599999999996ZM57.5246,43.809870000000004L57.5246,46.86312L67.6973,46.86312L67.6973,43.809870000000004L57.5246,43.809870000000004ZM54.5396,41.12412L70.88329999999999,41.12412L70.88329999999999,49.5249L54.5396,49.5249L54.5396,41.12412Z" fill="#1D2229" fill-opacity="1"/></g></g></svg>