<svg width="80" height="80" viewBox="0 0 80 80" fill="none" xmlns="http://www.w3.org/2000/svg">
<rect opacity="0.01" width="80" height="80" fill="black"/>
<path fill-rule="evenodd" clip-rule="evenodd" d="M4.28577 4.85742C4.28577 3.75285 5.1812 2.85742 6.28577 2.85742H68.0001C69.1046 2.85742 70.0001 3.75285 70.0001 4.85742V49.4289C70.0001 50.5334 69.1046 51.4289 68.0001 51.4289H24.2216L14.6596 61.1317C14.0334 61.7671 12.9516 61.3267 12.9473 60.4346L12.9042 51.4289H6.28577C5.1812 51.4289 4.28577 50.5334 4.28577 49.4289V4.85742Z" fill="#E8EBEF"/>
<path fill-rule="evenodd" clip-rule="evenodd" d="M7.14282 5.71387H67.1428V48.571H22.8888L15.7416 55.7139L15.8012 48.571H7.14282V5.71387Z" fill="#F6F7F8"/>
<rect x="13" y="15" width="35" height="3" rx="1" fill="#C0C6D1"/>
<rect x="13" y="23" width="20" height="3" rx="1" fill="#C0C6D1"/>
<path fill-rule="evenodd" clip-rule="evenodd" d="M75.7144 35C75.7144 33.8954 74.8189 33 73.7144 33H34.8572C33.7526 33 32.8572 33.8954 32.8572 35V61.218C32.8572 62.3226 33.7526 63.218 34.8572 63.218H60.7625L67.4591 71.0863C68.0607 71.793 69.2168 71.3704 69.2207 70.4423L69.2505 63.218H73.7144C74.8189 63.218 75.7144 62.3226 75.7144 61.218V35Z" fill="#73B4FA"/>
<circle cx="55" cy="48" r="2" fill="white"/>
<circle cx="45" cy="48" r="2" fill="white"/>
<circle cx="65" cy="48" r="2" fill="white"/>
</svg>
