<svg t="1633664160472" class="icon" viewBox="0 0 1024 1024" version="1.1" xmlns="http://www.w3.org/2000/svg" p-id="5771" width="200" height="200"><path d="M201.142857 256h786.285714a36.571429 36.571429 0 0 1 36.571429 36.571429v679.314285a18.285714 18.285714 0 0 1-32.548571 11.428572L877.641143 841.142857H201.142857a36.571429 36.571429 0 0 1-36.571428-36.571428V292.571429a36.571429 36.571429 0 0 1 36.571428-36.571429z" fill="#F6F7F8" p-id="5772"></path><path d="M256 310.857143m36.571429 0l603.428571 0q36.571429 0 36.571429 36.571428l0 310.857143q0 36.571429-36.571429 36.571429l-603.428571 0q-36.571429 0-36.571429-36.571429l0-310.857143q0-36.571429 36.571429-36.571428Z" fill="#C0C6D1" p-id="5773"></path><path d="M822.857143 36.571429H36.571429a36.571429 36.571429 0 0 0-36.571429 36.571428v679.314286a18.285714 18.285714 0 0 0 32.548571 11.428571L146.358857 621.714286H822.857143a36.571429 36.571429 0 0 0 36.571428-36.571429V73.142857a36.571429 36.571429 0 0 0-36.571428-36.571428z" fill="#E8EBEF" p-id="5774"></path><path d="M457.142857 438.857143a18.285714 18.285714 0 0 0 0 36.571428h182.857143a18.285714 18.285714 0 0 0 0-36.571428H457.142857z m0-146.285714a18.285714 18.285714 0 0 0 0 36.571428h292.571429a18.285714 18.285714 0 0 0 0-36.571428H457.142857z m0-146.285715a18.285714 18.285714 0 0 0 0 36.571429h347.428572a18.285714 18.285714 0 0 0 0-36.571429H457.142857z" fill="#FFFFFF" p-id="5775"></path><path d="M219.428571 292.571429m-164.571428 0a164.571429 164.571429 0 1 0 329.142857 0 164.571429 164.571429 0 1 0-329.142857 0Z" fill="#C0C6D1" p-id="5776"></path><path d="M219.428571 256m-164.571428 0a164.571429 164.571429 0 1 0 329.142857 0 164.571429 164.571429 0 1 0-329.142857 0Z" fill="#5596F2" p-id="5777"></path><path d="M314.605714 271.341714l-34.523428-13.458285s-6.582857-2.56-9.142857-5.065143c-1.645714-1.627429-1.517714-5.430857-0.073143-10.313143 1.462857-4.864 19.163429-24.649143 19.163428-42.624 0-27.776-18.249143-50.285714-40.777143-50.285714-4.352 0-8.557714 0.841143-12.489142 2.413714 4.516571 3.090286 8.667429 6.857143 12.379428 11.264h0.109714c6.692571 0 13.165714 3.419429 18.212572 9.654857 5.723429 7.076571 8.886857 16.64 8.886857 26.953143 0 8.246857-6.875429 19.181714-11.629714 26.386286l-0.987429 1.517714c-2.998857 4.534857-4.973714 7.497143-5.961143 10.806857a39.771429 39.771429 0 0 0-1.609143 8.082286c-0.548571 6.619429 1.188571 11.958857 5.193143 15.890285 4.114286 4.059429 11.008 6.985143 13.769143 8.064l34.523429 13.458286a14.445714 14.445714 0 0 0 0.347428 0.128c2.304 0.822857 3.913143 3.053714 3.913143 4.534857v3.382857a4.973714 4.973714 0 0 1-1.627428 0.237715h-11.099429c3.291429 4.022857 5.668571 8.704 6.893714 13.659428h4.205715c8.448 0 15.305143-5.156571 15.305142-13.604571v-3.657143c0-7.753143-5.705143-14.811429-12.982857-17.426286z m-33.938285 22.619429l-39.058286-15.232s-7.460571-2.889143-10.349714-5.723429c-1.865143-1.828571-1.718857-6.144-0.073143-11.666285 1.645714-5.504 21.668571-27.904 21.668571-48.237715 0-31.433143-20.662857-56.905143-46.134857-56.905143-25.472 0-46.134857 25.472-46.134857 56.905143 0 19.474286 17.846857 42.715429 20.059428 46.939429 2.194286 4.205714 1.664 10.642286-0.073142 12.598857-2.614857 2.925714-12.16 5.851429-12.16 5.851429l-35.218286 15.725714c-8.228571 2.925714-14.683429 10.697143-14.683429 19.456v4.150857c0 9.563429 7.771429 15.396571 17.298286 15.396571h142.244571c9.545143 0 17.298286-5.851429 17.298286-15.396571v-4.150857c0-8.758857-6.436571-16.749714-14.683428-19.712z" fill="#FFFFFF" p-id="5778"></path></svg>