<svg xmlns="http://www.w3.org/2000/svg" width="24" height="24" viewBox="0 0 24 24" fill="none">
<path d="M19.8 4H18.2C18.09 4 18 4.0973 18 4.21622V19.7838C18 19.9027 18.09 20 18.2 20H19.8C19.91 20 20 19.9027 20 19.7838V4.21622C20 4.0973 19.91 4 19.8 4Z" fill="#4E5969"/>
<path d="M4 2.67798V4.61727C4 4.87173 4.1125 5.11013 4.30536 5.27352L12.3196 11.9994L4.30536 18.7253C4.1125 18.8887 4 19.1271 4 19.3816V21.3208C4 21.503 4.21161 21.6021 4.3509 21.4842L15.6518 11.9994L4.3509 2.51459C4.31985 2.48819 4.28188 2.47125 4.24149 2.46579C4.20111 2.46033 4.16 2.46657 4.12306 2.48377C4.08611 2.50097 4.05488 2.52842 4.03307 2.56284C4.01125 2.59727 3.99978 2.63723 4 2.67798Z" fill="#4E5969"/>
</svg>