<svg xmlns="http://www.w3.org/2000/svg" width="24" height="24" viewBox="0 0 24 24" fill="none">
  <path d="M22.7151 3.43025H7.07227C6.95441 3.43025 6.85798 3.52667 6.85798 3.64453V5.14453C6.85798 5.26239 6.95441 5.35882 7.07227 5.35882H22.7151C22.833 5.35882 22.9294 5.26239 22.9294 5.14453V3.64453C22.9294 3.52667 22.833 3.43025 22.7151 3.43025ZM22.7151 11.0374H7.07227C6.95441 11.0374 6.85798 11.1338 6.85798 11.2517V12.7517C6.85798 12.8695 6.95441 12.966 7.07227 12.966H22.7151C22.833 12.966 22.9294 12.8695 22.9294 12.7517V11.2517C22.9294 11.1338 22.833 11.0374 22.7151 11.0374ZM22.7151 18.6445H7.07227C6.95441 18.6445 6.85798 18.741 6.85798 18.8588V20.3588C6.85798 20.4767 6.95441 20.5731 7.07227 20.5731H22.7151C22.833 20.5731 22.9294 20.4767 22.9294 20.3588V18.8588C22.9294 18.741 22.833 18.6445 22.7151 18.6445ZM1.07227 4.39453C1.07227 4.59151 1.11106 4.78657 1.18645 4.96856C1.26183 5.15054 1.37232 5.3159 1.51161 5.45519C1.65089 5.59448 1.81625 5.70497 1.99824 5.78035C2.18023 5.85573 2.37528 5.89453 2.57227 5.89453C2.76925 5.89453 2.9643 5.85573 3.14629 5.78035C3.32828 5.70497 3.49364 5.59448 3.63293 5.45519C3.77221 5.3159 3.8827 5.15054 3.95809 4.96856C4.03347 4.78657 4.07227 4.59151 4.07227 4.39453C4.07227 4.19755 4.03347 4.00249 3.95809 3.82051C3.8827 3.63852 3.77221 3.47316 3.63293 3.33387C3.49364 3.19458 3.32828 3.08409 3.14629 3.00871C2.9643 2.93333 2.76925 2.89453 2.57227 2.89453C2.37528 2.89453 2.18023 2.93333 1.99824 3.00871C1.81625 3.08409 1.65089 3.19458 1.51161 3.33387C1.37232 3.47316 1.26183 3.63852 1.18645 3.82051C1.11106 4.00249 1.07227 4.19755 1.07227 4.39453ZM1.07227 12.0017C1.07227 12.1987 1.11106 12.3937 1.18645 12.5757C1.26183 12.7577 1.37232 12.923 1.51161 13.0623C1.65089 13.2016 1.81625 13.3121 1.99824 13.3875C2.18023 13.4629 2.37528 13.5017 2.57227 13.5017C2.76925 13.5017 2.9643 13.4629 3.14629 13.3875C3.32828 13.3121 3.49364 13.2016 3.63293 13.0623C3.77221 12.923 3.8827 12.7577 3.95809 12.5757C4.03347 12.3937 4.07227 12.1987 4.07227 12.0017C4.07227 11.8047 4.03347 11.6096 3.95809 11.4276C3.8827 11.2457 3.77221 11.0803 3.63293 10.941C3.49364 10.8017 3.32828 10.6912 3.14629 10.6159C2.9643 10.5405 2.76925 10.5017 2.57227 10.5017C2.37528 10.5017 2.18023 10.5405 1.99824 10.6159C1.81625 10.6912 1.65089 10.8017 1.51161 10.941C1.37232 11.0803 1.26183 11.2457 1.18645 11.4276C1.11106 11.6096 1.07227 11.8047 1.07227 12.0017ZM1.07227 19.6088C1.07227 19.8058 1.11106 20.0009 1.18645 20.1828C1.26183 20.3648 1.37232 20.5302 1.51161 20.6695C1.65089 20.8088 1.81625 20.9193 1.99824 20.9946C2.18023 21.07 2.37528 21.1088 2.57227 21.1088C2.76925 21.1088 2.9643 21.07 3.14629 20.9946C3.32828 20.9193 3.49364 20.8088 3.63293 20.6695C3.77221 20.5302 3.8827 20.3648 3.95809 20.1828C4.03347 20.0009 4.07227 19.8058 4.07227 19.6088C4.07227 19.4118 4.03347 19.2168 3.95809 19.0348C3.8827 18.8528 3.77221 18.6874 3.63293 18.5482C3.49364 18.4089 3.32828 18.2984 3.14629 18.223C2.9643 18.1476 2.76925 18.1088 2.57227 18.1088C2.37528 18.1088 2.18023 18.1476 1.99824 18.223C1.81625 18.2984 1.65089 18.4089 1.51161 18.5482C1.37232 18.6874 1.26183 18.8528 1.18645 19.0348C1.11106 19.2168 1.07227 19.4118 1.07227 19.6088Z" fill="#4E5969"/>
</svg>