<svg xmlns="http://www.w3.org/2000/svg" width="24" height="24" viewBox="0 0 24 24" fill="none">
<path d="M4.2 4H5.8C5.91 4 6 4.0973 6 4.21622V19.7838C6 19.9027 5.91 20 5.8 20H4.2C4.09 20 4 19.9027 4 19.7838V4.21622C4 4.0973 4.09 4 4.2 4Z" fill="#4E5969"/>
<path d="M20 2.67798V4.61727C20 4.87173 19.8875 5.11013 19.6946 5.27352L11.6804 11.9994L19.6946 18.7253C19.8875 18.8887 20 19.1271 20 19.3816V21.3208C20 21.503 19.7884 21.6021 19.6491 21.4842L8.34821 11.9994L19.6491 2.51459C19.6802 2.48819 19.7181 2.47125 19.7585 2.46579C19.7989 2.46033 19.84 2.46657 19.8769 2.48377C19.9139 2.50097 19.9451 2.52842 19.9669 2.56284C19.9887 2.59727 20.0002 2.63723 20 2.67798Z" fill="#4E5969"/>
</svg>