<svg
  xmlns="http://www.w3.org/2000/svg"
  width="20"
  height="20"
  viewBox="0 0 20 20"
  fill="none"
>
  <path
    d="M13.3671 8.13214C13.3968 8.05495 13.471 8.00403 13.5537 8.00403H15.0151C15.0978 8.00403 15.172 8.05495 15.2018 8.13214L18.8977 17.7281C18.9482 17.8592 18.8515 18 18.7111 18H17.5044C17.4204 18 17.3453 17.9475 17.3165 17.8685L16.4743 15.5556C16.4456 15.4766 16.3705 15.424 16.2864 15.424H12.2684C12.1844 15.424 12.1093 15.4766 12.0805 15.5556L11.2383 17.8685C11.2096 17.9475 11.1345 18 11.0504 18H9.85776C9.71736 18 9.62066 17.8592 9.67112 17.7281L13.3671 8.13214ZM12.6896 13.8949C12.6415 14.0255 12.7381 14.164 12.8772 14.164H15.6784C15.8173 14.164 15.9139 14.0259 15.8663 13.8954L14.322 9.66837C14.3163 9.65255 14.3012 9.64203 14.2844 9.64203C14.2676 9.64203 14.2525 9.6525 14.2467 9.66826L12.6896 13.8949Z"
    fill="#4E5969"
  />
  <path
    d="M1 3.7C1 3.58954 1.08954 3.5 1.2 3.5H12.8C12.9105 3.5 13 3.58954 13 3.7V4.8C13 4.91046 12.9105 5 12.8 5H1.2C1.08954 5 1 4.91046 1 4.8V3.7Z"
    fill="#4E5969"
  />
  <path
    fill-rule="evenodd"
    clip-rule="evenodd"
    d="M6.7517 10.7028C8.72556 8.64962 10.1615 6.35159 10.2462 4.19994C10.2505 4.08957 10.3397 4 10.4501 4H11.5501C11.6606 4 11.7504 4.0896 11.7471 4.2C11.6639 6.94165 9.88651 9.60638 7.83304 11.7424C5.77475 13.8834 3.30441 15.6331 1.51867 16.5758C1.42099 16.6273 1.30056 16.5882 1.25031 16.4898L0.749916 15.5102C0.699669 15.4118 0.738442 15.2916 0.836053 15.2399C2.4789 14.3698 4.81139 12.7211 6.7517 10.7028Z"
    fill="#4E5969"
  />
  <path d="M4 6C5 9 7 11.5 9 13" stroke="#4E5969" stroke-width="1.5" />
  <path
    d="M6.30005 2.2C6.30005 2.08954 6.38959 2 6.50005 2H7.60005C7.71051 2 7.80005 2.08954 7.80005 2.2V3.8C7.80005 3.91046 7.71051 4 7.60005 4H6.50005C6.38959 4 6.30005 3.91046 6.30005 3.8V2.2Z"
    fill="#4E5969"
  />
</svg>