<svg width="80" height="80" viewBox="0 0 80 80" fill="none" xmlns="http://www.w3.org/2000/svg">
	<path fill-rule="evenodd" clip-rule="evenodd" d="M4.28571 4.85694C4.28571 3.75237 5.18114 2.85693 6.28571 2.85693H68C69.1046 2.85693 70 3.75236 70 4.85693V49.4284C70 50.5329 69.1046 51.4284 68 51.4284H24.2215L14.6595 61.1312C14.0333 61.7667 12.9515 61.3262 12.9473 60.4341L12.9041 51.4284H6.28571C5.18114 51.4284 4.28571 50.5329 4.28571 49.4284V4.85694Z" fill="#E8EBEF" />
	<path fill-rule="evenodd" clip-rule="evenodd" d="M7.14288 5.71436H67.1429V48.5715H22.8888L15.7416 55.7144L15.8012 48.5715H7.14288V5.71436Z" fill="#F6F7F8" />
	<rect x="13" y="15" width="35" height="3" rx="1" fill="#C0C6D1" />
	<rect x="13" y="23" width="20" height="3" rx="1" fill="#C0C6D1" />
	<path fill-rule="evenodd" clip-rule="evenodd" d="M75.7144 35C75.7144 33.8954 74.8189 33 73.7144 33H34.8572C33.7526 33 32.8572 33.8954 32.8572 35V61.218C32.8572 62.3226 33.7526 63.218 34.8572 63.218H60.7625L67.4591 71.0863C68.0607 71.793 69.2168 71.3704 69.2207 70.4423L69.2505 63.218H73.7144C74.8189 63.218 75.7144 62.3226 75.7144 61.218V35Z" fill="#73B4FA" />
	<path d="M54 39.25C49.168 39.25 45.25 43.168 45.25 48C45.25 52.832 49.168 56.75 54 56.75C58.832 56.75 62.75 52.832 62.75 48C62.75 43.168 58.832 39.25 54 39.25ZM57.75 48.4688C57.75 48.5547 57.6797 48.625 57.5938 48.625H50.4062C50.3203 48.625 50.25 48.5547 50.25 48.4688V47.5312C50.25 47.4453 50.3203 47.375 50.4062 47.375H57.5938C57.6797 47.375 57.75 47.4453 57.75 47.5312V48.4688Z" fill="white" />
</svg>
