<svg xmlns="http://www.w3.org/2000/svg" width="16" height="16" viewBox="0 0 16 16" fill="none">
<g clip-path="url(#clip0_15749_20614)">
<path fill-rule="evenodd" clip-rule="evenodd" d="M14.5711 0.854909C14.8872 0.854909 15.1426 1.11027 15.1426 1.42634V14.5692C15.1426 14.8853 14.8872 15.1406 14.5711 15.1406H8.14258C8.06401 15.1406 7.99972 15.0763 7.99972 14.9978V13.9978C7.99972 13.9192 8.06401 13.8549 8.14258 13.8549H10V2.14062H2.14258V7.85491C2.14258 7.93348 2.07829 7.99777 1.99972 7.99777H0.999719C0.921147 7.99777 0.856862 7.93348 0.856862 7.85491V1.42634C0.856862 1.11027 1.11222 0.854909 1.42829 0.854909H14.5711ZM11.4 2.14062V13.8549H13.8569V2.14062H11.4ZM5.47649 9.56216L4.54435 8.63002C4.52547 8.61104 4.51229 8.58715 4.50631 8.56105C4.50034 8.53496 4.50181 8.50771 4.51055 8.48241C4.51929 8.4571 4.53496 8.43476 4.55578 8.41793C4.57659 8.40109 4.60171 8.39043 4.62828 8.38716L7.83185 8.01216C7.92292 8.00145 8.00149 8.07823 7.99078 8.17109L7.61578 11.3747C7.60149 11.4925 7.45685 11.5425 7.37292 11.4586L6.43721 10.5229L1.86221 15.0979C1.80685 15.1532 1.71578 15.1532 1.66042 15.0979L0.903277 14.3407C0.84792 14.2854 0.84792 14.1943 0.903277 14.1389L5.47649 9.56216Z" fill="white" fill-opacity="0.85"/>
</g>
<defs>
<clipPath id="clip0_15749_20614">
<rect width="16" height="16" fill="white" transform="matrix(-1 0 0 -1 16 16)"/>
</clipPath>
</defs>
</svg>