<svg width="131" height="36" viewBox="0 0 131 36" fill="none" xmlns="http://www.w3.org/2000/svg">
<path fill-rule="evenodd" clip-rule="evenodd" d="M0 18.1991L5.50809 9.26415C6.64466 7.42017 8.63826 6.30005 10.783 6.30005C15.6687 6.30005 18.6473 11.7485 16.0578 15.9489L14.8575 17.896L21.8059 30.0975H18.3025L13.0363 20.8501L9.22406 27.034H14.8408L16.4022 30.0979H7.33579V30.0969L7.33522 30.0978L0 18.1991ZM11.3276 17.8418H11.3232L11.3253 17.8455L7.33589 24.3166L3.56452 18.199L8.07153 10.8879C8.65984 9.9335 9.67376 9.36387 10.7836 9.36387C12.4841 9.36387 13.3064 10.5322 13.5809 11.0345C13.8556 11.537 14.3969 12.8631 13.4958 14.3249L11.3276 17.8418Z" fill="#1F71E0"/>
<path fill-rule="evenodd" clip-rule="evenodd" d="M28.8252 11.4226C30.8052 11.4226 32.3166 11.7906 33.3594 12.5266C34.4154 13.2627 34.9434 14.3868 34.9434 15.8991C34.9434 17.786 34.026 19.064 32.1912 19.7332C32.442 20.041 32.7258 20.4157 33.0426 20.8573C33.3594 21.2989 33.6828 21.7807 34.0128 22.3026C34.3428 22.8111 34.6596 23.3398 34.9632 23.8884C35.2668 24.4237 35.5374 24.9524 35.775 25.4743H32.9832C32.7324 24.9925 32.4618 24.5107 32.1714 24.029C31.881 23.5338 31.584 23.0587 31.2804 22.6037C30.99 22.1353 30.6996 21.7004 30.4092 21.2989C30.1188 20.8841 29.8482 20.516 29.5974 20.1949C29.4126 20.2082 29.2542 20.2149 29.1222 20.2149C28.9902 20.2149 28.8648 20.2149 28.746 20.2149H27.5382V25.4743H25.0434V11.7638C25.6506 11.63 26.2974 11.543 26.9838 11.5029C27.6702 11.4493 28.284 11.4226 28.8252 11.4226ZM29.0034 13.6106C28.4754 13.6106 27.987 13.6307 27.5382 13.6709V18.1674H28.6272C29.2344 18.1674 29.769 18.1339 30.231 18.067C30.693 18.0001 31.0758 17.8797 31.3794 17.7057C31.6962 17.5317 31.9338 17.2975 32.0922 17.0031C32.2506 16.7087 32.3298 16.334 32.3298 15.879C32.3298 15.4507 32.2506 15.0894 32.0922 14.795C31.9338 14.5006 31.7028 14.2664 31.3992 14.0924C31.1088 13.9184 30.759 13.798 30.3498 13.7311C29.9406 13.6508 29.4918 13.6106 29.0034 13.6106ZM36.7454 20.2752C36.7454 19.3518 36.8774 18.5421 37.1414 17.8462C37.4186 17.1503 37.7816 16.5749 38.2304 16.1199C38.6792 15.6515 39.194 15.3035 39.7748 15.076C40.3556 14.8351 40.9496 14.7147 41.5568 14.7147C42.9824 14.7147 44.0912 15.163 44.8832 16.0596C45.6884 16.9563 46.091 18.2945 46.091 20.0744C46.091 20.2082 46.0844 20.3621 46.0712 20.5361C46.0712 20.6967 46.0646 20.8439 46.0514 20.9777H39.2204C39.2864 21.8208 39.5768 22.4766 40.0916 22.945C40.6196 23.4 41.3786 23.6275 42.3686 23.6275C42.9494 23.6275 43.4774 23.574 43.9526 23.4669C44.441 23.3598 44.8238 23.2461 45.101 23.1256L45.4178 25.1129C45.2858 25.1799 45.101 25.2535 44.8634 25.3338C44.639 25.4007 44.375 25.4609 44.0714 25.5144C43.781 25.5813 43.4642 25.6349 43.121 25.675C42.7778 25.7152 42.428 25.7352 42.0716 25.7352C41.1608 25.7352 40.3688 25.6014 39.6956 25.3338C39.0224 25.0527 38.468 24.6713 38.0324 24.1896C37.5968 23.6944 37.2734 23.1189 37.0622 22.4632C36.851 21.7941 36.7454 21.0647 36.7454 20.2752ZM43.6952 19.1912C43.6952 18.8566 43.649 18.5421 43.5566 18.2477C43.4642 17.9399 43.3256 17.6789 43.1408 17.4648C42.9692 17.2373 42.7514 17.0633 42.4874 16.9429C42.2366 16.8091 41.933 16.7422 41.5766 16.7422C41.207 16.7422 40.8836 16.8158 40.6064 16.963C40.3292 17.0968 40.0916 17.2775 39.8936 17.505C39.7088 17.7325 39.5636 17.9934 39.458 18.2878C39.3524 18.5823 39.2798 18.8834 39.2402 19.1912H43.6952ZM52.0044 23.768C52.7436 23.768 53.3046 23.7279 53.6874 23.6476V20.9577C53.5554 20.9175 53.364 20.8774 53.1132 20.8372C52.8624 20.7971 52.5852 20.777 52.2816 20.777C52.0176 20.777 51.747 20.7971 51.4698 20.8372C51.2058 20.8774 50.9616 20.951 50.7372 21.058C50.526 21.1651 50.3544 21.319 50.2224 21.5197C50.0904 21.7071 50.0244 21.948 50.0244 22.2424C50.0244 22.8178 50.2026 23.2193 50.559 23.4468C50.9154 23.6609 51.3972 23.768 52.0044 23.768ZM51.8064 14.7147C52.5984 14.7147 53.265 14.8151 53.8062 15.0158C54.3474 15.2165 54.7764 15.4976 55.0932 15.8589C55.4232 16.2202 55.6542 16.6619 55.7862 17.1838C55.9314 17.6923 56.004 18.2544 56.004 18.87V25.2334C55.6344 25.3137 55.0734 25.4074 54.321 25.5144C53.5818 25.6349 52.7436 25.6951 51.8064 25.6951C51.186 25.6951 50.6184 25.6349 50.1036 25.5144C49.5888 25.394 49.1466 25.1999 48.777 24.9323C48.4206 24.6646 48.1368 24.3167 47.9256 23.8884C47.7276 23.4602 47.6286 22.9316 47.6286 22.3026C47.6286 21.7004 47.7408 21.1919 47.9652 20.777C48.2028 20.3621 48.5196 20.0276 48.9156 19.7733C49.3116 19.5057 49.767 19.3183 50.2818 19.2112C50.8098 19.0908 51.3576 19.0306 51.9252 19.0306C52.1892 19.0306 52.4664 19.0506 52.7568 19.0908C53.0472 19.1176 53.3574 19.1711 53.6874 19.2514V18.8499C53.6874 18.5689 53.6544 18.3012 53.5884 18.047C53.5224 17.7927 53.4036 17.5719 53.232 17.3845C53.0736 17.1838 52.8558 17.0299 52.5786 16.9228C52.3146 16.8158 51.978 16.7622 51.5688 16.7622C51.0144 16.7622 50.5062 16.8024 50.0442 16.8827C49.5822 16.963 49.206 17.0566 48.9156 17.1637L48.6186 15.1965C48.9222 15.0894 49.3644 14.9823 49.9452 14.8753C50.526 14.7682 51.1464 14.7147 51.8064 14.7147ZM60.5489 20.1949C60.5489 21.2655 60.7997 22.1086 61.3013 22.7242C61.8029 23.3264 62.4959 23.6275 63.3803 23.6275C63.7631 23.6275 64.0865 23.6141 64.3505 23.5873C64.6277 23.5472 64.8521 23.507 65.0237 23.4669V17.4447C64.8125 17.2975 64.5287 17.1637 64.1723 17.0433C63.8291 16.9094 63.4595 16.8425 63.0635 16.8425C62.1923 16.8425 61.5521 17.1436 61.1429 17.7458C60.7469 18.3481 60.5489 19.1644 60.5489 20.1949ZM67.4195 25.1531C66.9443 25.3003 66.3437 25.4341 65.6177 25.5546C64.9049 25.675 64.1525 25.7352 63.3605 25.7352C62.5421 25.7352 61.8095 25.6081 61.1627 25.3538C60.5159 25.0996 59.9615 24.7382 59.4995 24.2698C59.0507 23.7881 58.7009 23.2126 58.4501 22.5435C58.2125 21.861 58.0937 21.0982 58.0937 20.2551C58.0937 19.4254 58.1927 18.6759 58.3907 18.0068C58.6019 17.3243 58.9055 16.7422 59.3015 16.2604C59.6975 15.7786 60.1793 15.4106 60.7469 15.1563C61.3145 14.8887 61.9679 14.7548 62.7071 14.7548C63.2087 14.7548 63.6509 14.8151 64.0337 14.9355C64.4165 15.056 64.7465 15.1898 65.0237 15.337L65.0284 9.9244L67.4195 9.89697V25.1531ZM74.1924 11.4226C76.1856 11.4226 77.7102 11.7906 78.7662 12.5266C79.8354 13.2627 80.37 14.4136 80.37 15.9793C80.37 16.7957 80.2248 17.4983 79.9344 18.0871C79.6572 18.6626 79.248 19.1376 78.7068 19.5123C78.1656 19.8737 77.5056 20.1413 76.7268 20.3153C75.948 20.4893 75.057 20.5763 74.0538 20.5763H72.8064V25.4743H70.3116V11.7638C70.8924 11.63 71.5326 11.543 72.2322 11.5029C72.945 11.4493 73.5984 11.4226 74.1924 11.4226ZM74.3706 13.6106C73.737 13.6106 73.2156 13.6307 72.8064 13.6709V18.4083H74.0142C75.2154 18.4083 76.1394 18.241 76.7862 17.9064C77.433 17.5585 77.7564 16.9094 77.7564 15.9593C77.7564 15.5043 77.6706 15.1229 77.499 14.8151C77.3274 14.5073 77.0898 14.2664 76.7862 14.0924C76.4826 13.9184 76.1196 13.798 75.6972 13.7311C75.288 13.6508 74.8458 13.6106 74.3706 13.6106ZM85.5737 23.768C86.3129 23.768 86.8739 23.7279 87.2567 23.6476V20.9577C87.1247 20.9175 86.9333 20.8774 86.6825 20.8372C86.4317 20.7971 86.1545 20.777 85.8509 20.777C85.5869 20.777 85.3163 20.7971 85.0391 20.8372C84.7751 20.8774 84.5309 20.951 84.3065 21.058C84.0953 21.1651 83.9237 21.319 83.7917 21.5197C83.6597 21.7071 83.5937 21.948 83.5937 22.2424C83.5937 22.8178 83.7719 23.2193 84.1283 23.4468C84.4847 23.6609 84.9665 23.768 85.5737 23.768ZM85.3757 14.7147C86.1677 14.7147 86.8343 14.8151 87.3755 15.0158C87.9167 15.2165 88.3457 15.4976 88.6625 15.8589C88.9925 16.2202 89.2235 16.6619 89.3555 17.1838C89.5007 17.6923 89.5733 18.2544 89.5733 18.87V25.2334C89.2037 25.3137 88.6427 25.4074 87.8903 25.5144C87.1511 25.6349 86.3129 25.6951 85.3757 25.6951C84.7553 25.6951 84.1877 25.6349 83.6729 25.5144C83.1581 25.394 82.7159 25.1999 82.3463 24.9323C81.9899 24.6646 81.7061 24.3167 81.4949 23.8884C81.2969 23.4602 81.1979 22.9316 81.1979 22.3026C81.1979 21.7004 81.3101 21.1919 81.5345 20.777C81.7721 20.3621 82.0889 20.0276 82.4849 19.7733C82.8809 19.5057 83.3363 19.3183 83.8511 19.2112C84.3791 19.0908 84.9269 19.0306 85.4945 19.0306C85.7585 19.0306 86.0357 19.0506 86.3261 19.0908C86.6165 19.1176 86.9267 19.1711 87.2567 19.2514V18.8499C87.2567 18.5689 87.2237 18.3012 87.1577 18.047C87.0917 17.7927 86.9729 17.5719 86.8013 17.3845C86.6429 17.1838 86.4251 17.0299 86.1479 16.9228C85.8839 16.8158 85.5473 16.7622 85.1381 16.7622C84.5837 16.7622 84.0755 16.8024 83.6135 16.8827C83.1515 16.963 82.7753 17.0566 82.4849 17.1637L82.1879 15.1965C82.4915 15.0894 82.9337 14.9823 83.5145 14.8753C84.0953 14.7682 84.7157 14.7147 85.3757 14.7147ZM99.1078 20.2752C99.1078 19.1912 98.8636 18.3481 98.3752 17.7458C97.9 17.1436 97.1278 16.8425 96.0586 16.8425C95.8342 16.8425 95.5966 16.8559 95.3458 16.8827C95.1082 16.8961 94.8706 16.9362 94.633 17.0031V23.0052C94.8442 23.1524 95.1214 23.2929 95.4646 23.4267C95.821 23.5472 96.1972 23.6074 96.5932 23.6074C97.4644 23.6074 98.098 23.3063 98.494 22.7041C98.9032 22.1019 99.1078 21.2922 99.1078 20.2752ZM101.563 20.235C101.563 21.038 101.457 21.774 101.246 22.4431C101.048 23.1123 100.758 23.6877 100.375 24.1695C99.9922 24.6512 99.5104 25.026 98.9296 25.2936C98.362 25.5613 97.7152 25.6951 96.9892 25.6951C96.5008 25.6951 96.052 25.6349 95.6428 25.5144C95.2336 25.394 94.897 25.2602 94.633 25.1129V29.1879H92.2372V15.3169C92.7256 15.1831 93.3262 15.056 94.039 14.9355C94.7518 14.8151 95.5042 14.7548 96.2962 14.7548C97.1146 14.7548 97.8472 14.882 98.494 15.1362C99.1408 15.3905 99.6886 15.7585 100.137 16.2403C100.599 16.7087 100.949 17.2841 101.187 17.9667C101.438 18.6358 101.563 19.3919 101.563 20.235ZM103.188 20.2752C103.188 19.3518 103.32 18.5421 103.584 17.8462C103.861 17.1503 104.224 16.5749 104.673 16.1199C105.122 15.6515 105.637 15.3035 106.217 15.076C106.798 14.8351 107.392 14.7147 107.999 14.7147C109.425 14.7147 110.534 15.163 111.326 16.0596C112.131 16.9563 112.534 18.2945 112.534 20.0744C112.534 20.2082 112.527 20.3621 112.514 20.5361C112.514 20.6967 112.507 20.8439 112.494 20.9777H105.663C105.729 21.8208 106.019 22.4766 106.534 22.945C107.062 23.4 107.821 23.6275 108.811 23.6275C109.392 23.6275 110.143 23.5823 110.618 23.4753C111.107 23.3682 111.708 23.2163 111.985 23.0959V25.0494C111.853 25.1163 111.544 25.2535 111.306 25.3338C111.082 25.4007 110.818 25.4609 110.514 25.5144C110.224 25.5813 109.907 25.6349 109.564 25.675C109.22 25.7152 108.871 25.7352 108.514 25.7352C107.603 25.7352 106.811 25.6014 106.138 25.3338C105.465 25.0527 104.911 24.6713 104.475 24.1896C104.039 23.6944 103.716 23.1189 103.505 22.4632C103.294 21.7941 103.188 21.0647 103.188 20.2752ZM110.138 19.1912C110.138 18.8566 110.092 18.5421 109.999 18.2477C109.907 17.9399 109.768 17.6789 109.583 17.4648C109.412 17.2373 109.194 17.0633 108.93 16.9429C108.679 16.8091 108.376 16.7422 108.019 16.7422C107.65 16.7422 107.326 16.8158 107.049 16.963C106.772 17.0968 106.534 17.2775 106.336 17.505C106.151 17.7325 106.006 17.9934 105.901 18.2878C105.795 18.5823 105.722 18.8834 105.683 19.1912H110.138ZM121.12 17.1858C120.922 17.1189 120.387 16.9897 120.031 16.9228C119.683 16.8425 119.127 16.8425 118.665 16.8425C118.401 16.8425 118.117 16.8693 117.813 16.9228C117.523 16.9763 117.318 17.0232 117.199 17.0633V25.4743H114.804V15.4775C115.266 15.3035 115.84 15.1429 116.526 14.9957C117.226 14.8351 117.998 14.7548 118.843 14.7548C119.001 14.7548 119.186 14.7682 119.397 14.795C119.608 14.8084 119.82 14.8351 120.031 14.8753C120.242 14.9021 120.447 14.9422 120.645 14.9957C120.843 15.0359 121.001 15.076 121.12 15.1162V17.1858Z" fill="#1D2229"/>
</svg>
