<svg width="80" height="80" viewBox="0 0 80 80" fill="none" xmlns="http://www.w3.org/2000/svg">
<rect opacity="0.01" width="80" height="80" fill="black"/>
<path d="M23.75 5H10C7.79086 5 6 6.79086 6 9V22.75M43.25 5H57C59.2091 5 61 6.79086 61 9V22.75M61 41.25V56C61 58.2091 59.2091 60 57 60H43.25M23.75 60H10C7.79086 60 6 58.2091 6 56V42.25" stroke="#E5E6EB" stroke-width="3"/>
<path d="M25.668 31V31.9375C25.668 33.2266 25.5 34.3828 25.1641 35.4062C24.8281 36.4297 24.3477 37.3008 23.7227 38.0195C23.1055 38.7383 22.3633 39.2891 21.4961 39.6719C20.6289 40.0469 19.668 40.2344 18.6133 40.2344C17.5664 40.2344 16.6094 40.0469 15.7422 39.6719C14.8828 39.2891 14.1367 38.7383 13.5039 38.0195C12.8711 37.3008 12.3789 36.4297 12.0273 35.4062C11.6836 34.3828 11.5117 33.2266 11.5117 31.9375V31C11.5117 29.7109 11.6836 28.5586 12.0273 27.543C12.3711 26.5195 12.8555 25.6484 13.4805 24.9297C14.1133 24.2031 14.8594 23.6523 15.7188 23.2773C16.5859 22.8945 17.543 22.7031 18.5898 22.7031C19.6445 22.7031 20.6055 22.8945 21.4727 23.2773C22.3398 23.6523 23.0859 24.2031 23.7109 24.9297C24.3359 25.6484 24.8164 26.5195 25.1523 27.543C25.4961 28.5586 25.668 29.7109 25.668 31ZM22.7266 31.9375V30.9766C22.7266 30.0234 22.6328 29.1836 22.4453 28.457C22.2656 27.7227 21.9961 27.1094 21.6367 26.6172C21.2852 26.1172 20.8516 25.7422 20.3359 25.4922C19.8203 25.2344 19.2383 25.1055 18.5898 25.1055C17.9414 25.1055 17.3633 25.2344 16.8555 25.4922C16.3477 25.7422 15.9141 26.1172 15.5547 26.6172C15.2031 27.1094 14.9336 27.7227 14.7461 28.457C14.5586 29.1836 14.4648 30.0234 14.4648 30.9766V31.9375C14.4648 32.8906 14.5586 33.7344 14.7461 34.4688C14.9336 35.2031 15.207 35.8242 15.5664 36.332C15.9336 36.832 16.3711 37.2109 16.8789 37.4688C17.3867 37.7188 17.9648 37.8438 18.6133 37.8438C19.2695 37.8438 19.8516 37.7188 20.3594 37.4688C20.8672 37.2109 21.2969 36.832 21.6484 36.332C22 35.8242 22.2656 35.2031 22.4453 34.4688C22.6328 33.7344 22.7266 32.8906 22.7266 31.9375ZM38.6875 34.4453H41.6172C41.5234 35.5625 41.2109 36.5586 40.6797 37.4336C40.1484 38.3008 39.4023 38.9844 38.4414 39.4844C37.4805 39.9844 36.3125 40.2344 34.9375 40.2344C33.8828 40.2344 32.9336 40.0469 32.0898 39.6719C31.2461 39.2891 30.5234 38.75 29.9219 38.0547C29.3203 37.3516 28.8594 36.5039 28.5391 35.5117C28.2266 34.5195 28.0703 33.4102 28.0703 32.1836V30.7656C28.0703 29.5391 28.2305 28.4297 28.5508 27.4375C28.8789 26.4453 29.3477 25.5977 29.957 24.8945C30.5664 24.1836 31.2969 23.6406 32.1484 23.2656C33.0078 22.8906 33.9727 22.7031 35.043 22.7031C36.4023 22.7031 37.5508 22.9531 38.4883 23.4531C39.4258 23.9531 40.1523 24.6445 40.668 25.5273C41.1914 26.4102 41.5117 27.4219 41.6289 28.5625H38.6992C38.6211 27.8281 38.4492 27.1992 38.1836 26.6758C37.9258 26.1523 37.543 25.7539 37.0352 25.4805C36.5273 25.1992 35.8633 25.0586 35.043 25.0586C34.3711 25.0586 33.7852 25.1836 33.2852 25.4336C32.7852 25.6836 32.3672 26.0508 32.0312 26.5352C31.6953 27.0195 31.4414 27.6172 31.2695 28.3281C31.1055 29.0312 31.0234 29.8359 31.0234 30.7422V32.1836C31.0234 33.043 31.0977 33.8242 31.2461 34.5273C31.4023 35.2227 31.6367 35.8203 31.9492 36.3203C32.2695 36.8203 32.6758 37.207 33.168 37.4805C33.6602 37.7539 34.25 37.8906 34.9375 37.8906C35.7734 37.8906 36.4492 37.7578 36.9648 37.4922C37.4883 37.2266 37.8828 36.8398 38.1484 36.332C38.4219 35.8164 38.6016 35.1875 38.6875 34.4453ZM44.2891 22.9375H50.3242C51.6211 22.9375 52.7266 23.1328 53.6406 23.5234C54.5547 23.9141 55.2539 24.4922 55.7383 25.2578C56.2305 26.0156 56.4766 26.9531 56.4766 28.0703C56.4766 28.9219 56.3203 29.6719 56.0078 30.3203C55.6953 30.9688 55.2539 31.5156 54.6836 31.9609C54.1133 32.3984 53.4336 32.7383 52.6445 32.9805L51.7539 33.4141H46.3281L46.3047 31.082H50.3711C51.0742 31.082 51.6602 30.957 52.1289 30.707C52.5977 30.457 52.9492 30.1172 53.1836 29.6875C53.4258 29.25 53.5469 28.7578 53.5469 28.2109C53.5469 27.6172 53.4297 27.1016 53.1953 26.6641C52.9688 26.2188 52.6172 25.8789 52.1406 25.6445C51.6641 25.4023 51.0586 25.2812 50.3242 25.2812H47.2305V40H44.2891V22.9375ZM54.0273 40L50.0195 32.3359L53.1016 32.3242L57.168 39.8477V40H54.0273Z" fill="#E5E6EB"/>
<path fill-rule="evenodd" clip-rule="evenodd" d="M75.7148 37C75.7148 35.8954 74.8194 35 73.7148 35H34.8577C33.7531 35 32.8577 35.8954 32.8577 37V63.218C32.8577 64.3226 33.7531 65.218 34.8577 65.218H60.763L67.4596 73.0863C68.0611 73.793 69.2173 73.3704 69.2211 72.4423L69.251 65.218H73.7148C74.8194 65.218 75.7148 64.3226 75.7148 63.218V37Z" fill="#73B4FA"/>
<path d="M54 41.25C49.168 41.25 45.25 45.168 45.25 50C45.25 54.832 49.168 58.75 54 58.75C58.832 58.75 62.75 54.832 62.75 50C62.75 45.168 58.832 41.25 54 41.25ZM57.75 50.4688C57.75 50.5547 57.6797 50.625 57.5938 50.625H50.4062C50.3203 50.625 50.25 50.5547 50.25 50.4688V49.5312C50.25 49.4453 50.3203 49.375 50.4062 49.375H57.5938C57.6797 49.375 57.75 49.4453 57.75 49.5312V50.4688Z" fill="white"/>
</svg>
