<svg width="80" height="80" viewBox="0 0 80 80" fill="none" xmlns="http://www.w3.org/2000/svg">
<g id="Group 2869">
<path id="Union" fill-rule="evenodd" clip-rule="evenodd" d="M64.5529 7.10508C64.214 6.42778 63.5217 6 62.7643 6H17.2357C16.4783 6 15.786 6.42778 15.4471 7.10508L4.56574 28.8528C4.22021 29.5434 4.30312 30.3712 4.77874 30.9796L38.5301 74.1496C39.2888 75.12 40.7243 75.1921 41.5407 74.2697C51.9473 62.5119 71.3355 36.3172 75.2863 30.954C75.7311 30.3503 75.789 29.5618 75.4535 28.8912L64.5529 7.10508Z" fill="url(#paint0_linear_14091_44512)"/>
<g id="VIP">
<path id="Subtract" fill-rule="evenodd" clip-rule="evenodd" d="M21.3452 25C21.0283 25 20.8373 25.351 21.0093 25.6172L39.16 53.6947C39.554 54.3042 40.4456 54.3042 40.8396 53.6947L58.9903 25.6172C59.1623 25.351 58.9713 25 58.6543 25H47.6994C47.5637 25 47.4372 25.0688 47.3635 25.1828L39.9998 36.5739L32.6361 25.1828C32.5624 25.0688 32.4359 25 32.3002 25H21.3452Z" fill="url(#paint1_linear_14091_44512)"/>
<path id="Subtract_2" fill-rule="evenodd" clip-rule="evenodd" d="M47.6802 25C47.5451 25 47.4192 25.0681 47.3453 25.1812L33.9648 45.6543L39.1598 53.6947C39.5538 54.3042 40.4454 54.3042 40.8394 53.6947L58.9901 25.6172C59.1621 25.351 58.9711 25 58.6542 25H47.6802Z" fill="white"/>
</g>
</g>
<defs>
<linearGradient id="paint0_linear_14091_44512" x1="12.5" y1="11" x2="56.5" y2="52" gradientUnits="userSpaceOnUse">
<stop stop-color="#B2C1FF"/>
<stop offset="1" stop-color="#5A77EB"/>
</linearGradient>
<linearGradient id="paint1_linear_14091_44512" x1="39.9997" y1="22.5" x2="39.9997" y2="54.1519" gradientUnits="userSpaceOnUse">
<stop stop-color="white"/>
<stop offset="1" stop-color="white" stop-opacity="0"/>
</linearGradient>
</defs>
</svg>
