<svg xmlns="http://www.w3.org/2000/svg" width="16" height="16" viewBox="0 0 16 16" fill="none">
<path fill-rule="evenodd" clip-rule="evenodd" d="M11.5652 1.05367C11.815 1.05368 12.0265 1.23813 12.0605 1.48567L12.0652 1.55367V3.887H10.8663V2.25002H2.26377V9.86617H3.00449V11.0537H1.56519C1.31533 11.0537 1.10383 10.8692 1.06985 10.6217L1.06519 10.5537V1.55367C1.0652 1.30381 1.24965 1.09231 1.49719 1.05833L1.56519 1.05367H11.5652ZM14.3639 5.00063C14.6365 5.00063 14.8575 5.22448 14.8575 5.50063V14.5006C14.8575 14.7768 14.6365 15.0006 14.3639 15.0006H4.35108C4.07847 15.0006 3.85748 14.7768 3.85748 14.5006V5.50063C3.85748 5.22448 4.07847 5.00063 4.35108 5.00063H14.3639ZM9.42671 10.6489C8.37737 10.6489 7.52671 9.79827 7.52671 8.74893H6.32671C6.32671 10.461 7.71463 11.8489 9.42671 11.8489C11.1388 11.8489 12.5267 10.461 12.5267 8.74893H11.3267C11.3267 9.79827 10.4761 10.6489 9.42671 10.6489Z" fill="url(#paint0_linear_18_258)"/>
<defs>
<linearGradient id="paint0_linear_18_258" x1="10.3425" y1="10.7986" x2="-4.22539" y2="-5.68856" gradientUnits="userSpaceOnUse">
<stop stop-color="#1F71E0"/>
<stop offset="0.669311" stop-color="#ED8FF7"/>
</linearGradient>
</defs>
</svg>