<svg xmlns="http://www.w3.org/2000/svg" width="16" height="16" viewBox="0 0 16 16" fill="none">
<g clip-path="url(#clip0_24_2867)">
<path d="M13.5753 11.3579C13.1284 10.9106 12.6061 10.5455 12.0325 10.2794C12.8414 9.624 13.3575 8.624 13.3575 7.50258C13.3575 5.524 11.7075 3.90079 9.7289 3.93115C7.78068 3.9615 6.21104 5.549 6.21104 7.50258C6.21104 8.624 6.7289 9.624 7.53604 10.2794C6.9623 10.5453 6.44 10.9104 5.99318 11.3579C5.01818 12.3347 4.46461 13.624 4.4289 14.999C4.42842 15.0181 4.43176 15.037 4.43873 15.0548C4.44569 15.0725 4.45614 15.0887 4.46945 15.1023C4.48277 15.116 4.49868 15.1268 4.51625 15.1342C4.53382 15.1416 4.55269 15.1454 4.57175 15.1454H5.57175C5.64854 15.1454 5.71282 15.0847 5.71461 15.0079C5.74854 13.9722 6.16818 13.0026 6.90568 12.2669C7.28307 11.8875 7.73197 11.5867 8.22638 11.3819C8.72079 11.1772 9.25091 11.0725 9.78604 11.074C10.8735 11.074 11.8968 11.4972 12.6664 12.2669C13.4021 13.0026 13.8218 13.9722 13.8575 15.0079C13.8593 15.0847 13.9235 15.1454 14.0003 15.1454H15.0003C15.0194 15.1454 15.0383 15.1416 15.0558 15.1342C15.0734 15.1268 15.0893 15.116 15.1026 15.1023C15.1159 15.0887 15.1264 15.0725 15.1333 15.0548C15.1403 15.037 15.1437 15.0181 15.1432 14.999C15.1075 13.624 14.5539 12.3347 13.5753 11.3579ZM5.31282 7.974C5.29675 7.81865 5.28782 7.6615 5.28782 7.50258C5.28782 7.21865 5.31461 6.94186 5.36461 6.67222C5.37711 6.60793 5.34318 6.54186 5.28425 6.51508C5.0414 6.40615 4.81818 6.25615 4.62532 6.06686C4.39807 5.84652 4.21925 5.58122 4.10026 5.2879C3.98127 4.99458 3.92473 4.67968 3.93425 4.36329C3.95032 3.79008 4.18068 3.24543 4.58247 2.83472C5.02354 2.38293 5.61639 2.1365 6.24675 2.14365C6.8164 2.149 7.3664 2.36865 7.78247 2.75793C7.92354 2.89008 8.04497 3.0365 8.14675 3.19365C8.18247 3.249 8.25211 3.27222 8.31282 3.25079C8.62711 3.14186 8.95925 3.06508 9.30032 3.02936C9.40032 3.01865 9.45747 2.9115 9.41282 2.82222C8.83247 1.674 7.64675 0.881146 6.27532 0.859718C4.29497 0.829361 2.64497 2.45258 2.64497 4.42936C2.64497 5.55079 3.16104 6.55079 3.96997 7.20615C3.40211 7.46865 2.8789 7.83115 2.42532 8.28472C1.44675 9.2615 0.893181 10.5508 0.857467 11.9276C0.85699 11.9466 0.860333 11.9656 0.867298 11.9833C0.874264 12.0011 0.884711 12.0173 0.898024 12.0309C0.911338 12.0446 0.927248 12.0554 0.944817 12.0628C0.962386 12.0702 0.981259 12.074 1.00032 12.074H2.00211C2.0789 12.074 2.14318 12.0133 2.14497 11.9365C2.1789 10.9008 2.59854 9.93115 3.33604 9.19543C3.86104 8.67043 4.5039 8.30615 5.20568 8.12936C5.27532 8.1115 5.32175 8.04543 5.31282 7.974Z" fill="url(#paint0_linear_24_2867)"/>
</g>
<defs>
<linearGradient id="paint0_linear_24_2867" x1="10.4667" y1="10.8412" x2="-4.43413" y2="-6.21145" gradientUnits="userSpaceOnUse">
<stop stop-color="#1F71E0"/>
<stop offset="0.669311" stop-color="#ED8FF7"/>
</linearGradient>
<clipPath id="clip0_24_2867">
<rect width="16" height="16" fill="white"/>
</clipPath>
</defs>
</svg>