<svg xmlns="http://www.w3.org/2000/svg" width="16" height="16" viewBox="0 0 16 16" fill="none">
<path d="M10.5625 9.73438C10.2688 9.73438 10.0312 9.97188 10.0312 10.2656C10.0312 10.5594 10.2688 10.7969 10.5625 10.7969C10.8562 10.7969 11.0938 10.5594 11.0938 10.2656C11.0938 9.97188 10.8562 9.73438 10.5625 9.73438ZM13.75 2.625H10.4375C10.4375 2.14219 10.0453 1.75 9.5625 1.75H8.3125C7.82969 1.75 7.4375 2.14219 7.4375 2.625H4.125C3.84844 2.625 3.625 2.84844 3.625 3.125V6.25H2.25C1.97344 6.25 1.75 6.47344 1.75 6.75V13.75C1.75 14.0266 1.97344 14.25 2.25 14.25H7.5C7.77656 14.25 8 14.0266 8 13.75V13.5H13.75C14.0266 13.5 14.25 13.2766 14.25 13V3.125C14.25 2.84844 14.0266 2.625 13.75 2.625ZM7 13.25H2.75V9.625H7V13.25ZM7 8.625H2.75V7.25H7V8.625ZM7.3125 4.375V3.625H8.4375V2.75H9.4375V3.625H10.5625V4.375H7.3125ZM10.125 7V7.875C10.125 7.94375 10.0688 8 10 8H9.25C9.18125 8 9.125 7.94375 9.125 7.875V7C9.125 6.93125 9.18125 6.875 9.25 6.875H10C10.0688 6.875 10.125 6.93125 10.125 7ZM10.5625 11.7031C9.76875 11.7031 9.125 11.0594 9.125 10.2656C9.125 9.47188 9.76875 8.82812 10.5625 8.82812C11.3562 8.82812 12 9.47188 12 10.2656C12 11.0594 11.3562 11.7031 10.5625 11.7031ZM12 7.875C12 7.94375 11.9438 8 11.875 8H11.125C11.0562 8 11 7.94375 11 7.875V6.375C11 6.30625 11.0562 6.25 11.125 6.25H11.875C11.9438 6.25 12 6.30625 12 6.375V7.875ZM10.5625 8.82812C9.76875 8.82812 9.125 9.47188 9.125 10.2656C9.125 11.0594 9.76875 11.7031 10.5625 11.7031C11.3562 11.7031 12 11.0594 12 10.2656C12 9.47188 11.3562 8.82812 10.5625 8.82812ZM10.5625 10.7969C10.2688 10.7969 10.0312 10.5594 10.0312 10.2656C10.0312 9.97188 10.2688 9.73438 10.5625 9.73438C10.8562 9.73438 11.0938 9.97188 11.0938 10.2656C11.0938 10.5594 10.8562 10.7969 10.5625 10.7969Z" fill="url(#paint0_linear_20_273)"/>
<defs>
<linearGradient id="paint0_linear_20_273" x1="10.1581" y1="10.4839" x2="-2.87974" y2="-4.43702" gradientUnits="userSpaceOnUse">
<stop stop-color="#1F71E0"/>
<stop offset="0.669311" stop-color="#ED8FF7"/>
</linearGradient>
</defs>
</svg>