<svg xmlns="http://www.w3.org/2000/svg" width="16" height="16" viewBox="0 0 16 16" fill="none">
<path fill-rule="evenodd" clip-rule="evenodd" d="M2.28544 5.71205H1.28544C1.20686 5.71205 1.14258 5.64777 1.14258 5.5692V2.35491C1.14258 1.68348 1.68544 1.14062 2.35686 1.14062H5.57115C5.64972 1.14062 5.71401 1.20491 5.71401 1.28348V2.28348C5.71401 2.36205 5.64972 2.42634 5.57115 2.42634H2.42829V5.5692C2.42829 5.64777 2.36401 5.71205 2.28544 5.71205ZM13.5712 2.42634H10.4283C10.3497 2.42634 10.2854 2.36205 10.2854 2.28348V1.28348C10.2854 1.20491 10.3497 1.14062 10.4283 1.14062H13.6426C14.314 1.14062 14.8569 1.68348 14.8569 2.35491V5.5692C14.8569 5.64777 14.7926 5.71205 14.714 5.71205H13.714C13.6354 5.71205 13.5712 5.64777 13.5712 5.5692V2.42634ZM2.42829 13.5692H5.57115C5.64972 13.5692 5.71401 13.6335 5.71401 13.7121V14.7121C5.71401 14.7906 5.64972 14.8549 5.57115 14.8549H2.35686C1.68544 14.8549 1.14258 14.3121 1.14258 13.6406V10.4263C1.14258 10.3478 1.20686 10.2835 1.28544 10.2835H2.28544C2.36401 10.2835 2.42829 10.3478 2.42829 10.4263V13.5692ZM13.714 10.2835H14.714C14.7926 10.2835 14.8569 10.3478 14.8569 10.4263V13.6406C14.8569 14.3121 14.314 14.8549 13.6426 14.8549H10.4283C10.3497 14.8549 10.2854 14.7906 10.2854 14.7121V13.7121C10.2854 13.6335 10.3497 13.5692 10.4283 13.5692H13.5712V10.4263C13.5712 10.3478 13.6354 10.2835 13.714 10.2835ZM5.57119 12.4444H4.36037C4.28345 12.4444 4.22077 12.3818 4.22219 12.3063C4.22219 12.2906 4.22362 12.2749 4.22931 12.2607L7.19798 3.64957C7.21649 3.59259 7.2692 3.55556 7.32903 3.55556H8.78629C8.81513 3.55595 8.84316 3.56517 8.86659 3.58198C8.89002 3.59879 8.90774 3.62238 8.91735 3.64957L11.8817 12.2607C11.8878 12.2779 11.8904 12.2961 11.8894 12.3143C11.8884 12.3326 11.8837 12.3504 11.8758 12.3668C11.8679 12.3832 11.8567 12.3979 11.8431 12.41C11.8294 12.4221 11.8135 12.4314 11.7963 12.4373C11.782 12.4416 11.7664 12.4444 11.7507 12.4444H10.4815C10.4202 12.4444 10.3675 12.4046 10.349 12.3476L9.59114 9.98291H6.46863L5.70367 12.3476C5.68515 12.406 5.63102 12.4444 5.57119 12.4444ZM8.06407 5.09259H8.00567L6.79911 8.85043H9.2578L8.06407 5.09259Z" fill="url(#paint0_linear_24_2926)"/>
<defs>
<linearGradient id="paint0_linear_24_2926" x1="10.3674" y1="10.723" x2="-3.93691" y2="-5.64742" gradientUnits="userSpaceOnUse">
<stop stop-color="#1F71E0"/>
<stop offset="0.669311" stop-color="#ED8FF7"/>
</linearGradient>
</defs>
</svg>