<svg xmlns="http://www.w3.org/2000/svg" width="16" height="16" viewBox="0 0 16 16" fill="none">
<path fill-rule="evenodd" clip-rule="evenodd" d="M12.6271 2.20958C12.3514 1.96488 12.0489 1.74565 11.7204 1.556C8.67008 -0.205133 4.53164 1.25214 2.47699 4.8109C1.1033 7.1902 1.00883 9.90647 2.0087 11.9719C3.68083 11.4078 5.51546 10.1164 7.05232 7.4545C8.66416 4.6627 10.6472 3.04562 12.6271 2.20958ZM3.37627 13.7925C3.65115 14.0361 3.9526 14.2545 4.27989 14.4434C7.33026 16.2046 11.4687 14.7473 13.5234 11.1885C14.8963 8.81052 14.9914 6.09592 13.9933 4.0309C12.3206 4.59478 10.4853 5.88614 8.9479 8.54892C7.33688 11.3393 5.35509 12.9561 3.37627 13.7925Z" fill="url(#paint0_linear_24_2941)"/>
<defs>
<linearGradient id="paint0_linear_24_2941" x1="8.42874" y1="11.6617" x2="2.5476" y2="-9.47178" gradientUnits="userSpaceOnUse">
<stop stop-color="#1F71E0"/>
<stop offset="0.669311" stop-color="#ED8FF7"/>
</linearGradient>
</defs>
</svg>
