<svg xmlns="http://www.w3.org/2000/svg" width="16" height="16" viewBox="0 0 16 16" fill="none">
<path d="M5.4375 10.5641C3.90625 9.67812 2.875 8.02187 2.875 6.125C2.875 3.29531 5.17031 1 8 1C10.8297 1 13.125 3.29531 13.125 6.125C13.125 8.02187 12.0938 9.67812 10.5625 10.5641V12.375C10.5625 12.6516 10.3391 12.875 10.0625 12.875H5.9375C5.66094 12.875 5.4375 12.6516 5.4375 12.375V10.5641ZM6.125 13.875H9.875C9.94375 13.875 10 13.9312 10 14V14.5C10 14.7766 9.77656 15 9.5 15H6.5C6.22344 15 6 14.7766 6 14.5V14C6 13.9312 6.05625 13.875 6.125 13.875Z" fill="url(#paint0_linear_26_391)"/>
<defs>
<linearGradient id="paint0_linear_26_391" x1="9.76963" y1="10.782" x2="-4.73831" y2="-1.37407" gradientUnits="userSpaceOnUse">
<stop stop-color="#1F71E0"/>
<stop offset="0.669311" stop-color="#ED8FF7"/>
</linearGradient>
</defs>
</svg>