<svg xmlns="http://www.w3.org/2000/svg" width="16" height="16" viewBox="0 0 16 16" fill="none">
<path fill-rule="evenodd" clip-rule="evenodd" d="M1.5 1.35C1.5 1.1567 1.66629 1 1.87143 1H14.1286C14.3337 1 14.5 1.1567 14.5 1.35V14.65C14.5 14.8433 14.3337 15 14.1286 15H1.87143C1.66629 15 1.5 14.8433 1.5 14.65V1.35ZM5.168 5.96C5.016 5.56 4.616 4.928 4.288 4.464L5.016 4C5.36 4.432 5.776 5.032 5.96 5.424L5.168 5.96ZM6.448 9.94978C5.33258 10.8899 5.11259 11.0996 4.992 11.288C4.904 11.088 4.648 10.744 4.496 10.608C4.672 10.456 4.904 10.144 4.904 9.72V7.256H4V6.336H4.904H5.536H5.832V9.35767L6.304 8.968C6.35095 9.10457 6.41839 9.27074 6.48809 9.424H8.328V8.816H6.896V7.984H8.328V7.36H9.28V7.984H10.8V8.816H9.28V9.424H11.344V10.264H9.28V11.408H8.328V10.264H6.448V9.94978ZM6.472 5.04V4.208H10.144H10.32L10.472 4.168L11.096 4.512C10.7598 5.20031 10.2687 5.78485 9.67734 6.2733C10.2337 6.54386 10.8642 6.74977 11.544 6.88C11.344 7.064 11.08 7.44 10.952 7.688C10.1867 7.50015 9.49397 7.21397 8.88834 6.83539C8.16878 7.27829 7.35888 7.61259 6.528 7.848C6.432 7.608 6.208 7.224 6.032 7.024C6.75781 6.85979 7.47553 6.59851 8.11265 6.25786C7.71182 5.90373 7.36607 5.49689 7.0819 5.04H6.472ZM8.03926 5.04C8.26897 5.31498 8.54562 5.5668 8.86165 5.79213C9.1774 5.56345 9.4576 5.31166 9.68906 5.04H8.03926Z" fill="url(#paint0_linear_24_2878)"/>
<defs>
<linearGradient id="paint0_linear_24_2878" x1="10.2444" y1="10.782" x2="-4.46385" y2="-4.84833" gradientUnits="userSpaceOnUse">
<stop stop-color="#1F71E0"/>
<stop offset="0.669311" stop-color="#ED8FF7"/>
</linearGradient>
</defs>
</svg>
