<svg xmlns="http://www.w3.org/2000/svg" width="16" height="16" viewBox="0 0 16 16" fill="none">
<path fill-rule="evenodd" clip-rule="evenodd" d="M13.5 4.86406C13.5 4.73125 13.4469 4.60469 13.3531 4.51094L9.99063 1.14688C9.89688 1.05313 9.76875 1 9.63594 1H3C2.72344 1 2.5 1.22344 2.5 1.5V14.5C2.5 14.7766 2.72344 15 3 15H13C13.2766 15 13.5 14.7766 13.5 14.5V4.86406ZM9.40625 2.15313L12.3469 5.09375H9.40625V2.15313ZM7.93726 12.6978C7.91777 12.6883 7.9007 12.6745 7.88734 12.6575L5.88734 10.1253C5.81412 10.0325 5.88019 9.89496 5.99984 9.89496H7.31948V5.85389C7.31948 5.77531 7.38376 5.71103 7.46234 5.71103H8.53376C8.61234 5.71103 8.67662 5.77531 8.67662 5.85389V9.89674H9.99984C10.1195 9.89674 10.1855 10.0342 10.1123 10.1271L8.11234 12.6575C8.09897 12.6745 8.0819 12.6883 8.06241 12.6978C8.04291 12.7073 8.02152 12.7123 7.99984 12.7123C7.97815 12.7123 7.95676 12.7073 7.93726 12.6978Z" fill="url(#paint0_linear_24_2918)"/>
<defs>
<linearGradient id="paint0_linear_24_2918" x1="9.89911" y1="10.782" x2="-4.75356" y2="-2.39368" gradientUnits="userSpaceOnUse">
<stop stop-color="#1F71E0"/>
<stop offset="0.669311" stop-color="#ED8FF7"/>
</linearGradient>
</defs>
</svg>
