<svg xmlns="http://www.w3.org/2000/svg" width="16" height="16" viewBox="0 0 16 16" fill="none">
<path fill-rule="evenodd" clip-rule="evenodd" d="M2.33333 0L2.96355 1.70312L4.66667 2.33333L2.96355 2.96355L2.33333 4.66667L1.70312 2.96355L0 2.33333L1.70312 1.70312L2.33333 0ZM8.61645 1.55147C8.77266 1.39526 9.02593 1.39526 9.18214 1.55147L14.2733 6.64264C14.4295 6.79885 14.4295 7.05212 14.2733 7.20833L12.482 8.99967C12.3527 9.12896 12.1569 9.15124 12.0047 9.0665L9.75024 13.3816C9.58985 13.6885 9.28204 13.8907 8.93661 13.9158L2.51096 14.3842C2.43796 14.3895 2.36644 14.3869 2.29717 14.3772L6.96645 9.7079L6.11792 8.85937L1.44811 13.5292C1.43822 13.4595 1.43555 13.3876 1.4409 13.3142L1.90928 6.88851C1.93446 6.54308 2.13659 6.23527 2.44357 6.07488L6.75851 3.8205C6.6735 3.66824 6.6957 3.47222 6.82511 3.34281L8.61645 1.55147ZM12.2679 11.3281H12.2667L10.9333 15.3281H12.1333L12.8673 13.1264L13.6012 15.3281H14.8012H16.0012V11.3281H14.8012V15.3281L13.4679 11.3281H13.4667H12.2679Z" fill="url(#paint0_linear_26_352)"/>
<defs>
<linearGradient id="paint0_linear_26_352" x1="10.7631" y1="10.71" x2="-5.11827" y2="-8.26336" gradientUnits="userSpaceOnUse">
<stop stop-color="#1F71E0"/>
<stop offset="0.669311" stop-color="#ED8FF7"/>
</linearGradient>
</defs>
</svg>