<svg xmlns="http://www.w3.org/2000/svg" width="16" height="16" viewBox="0 0 16 16" fill="none">
	<path fill-rule="evenodd" clip-rule="evenodd" d="M9.03348 0.914062C8.92813 0.914062 8.82098 0.942634 8.72277 1.00871L3.39241 5.14621H0.46384C0.306697 5.14621 0.178125 5.27478 0.178125 5.43192V10.5748C0.178125 10.7319 0.306697 10.8605 0.46384 10.8605H3.39241L8.72277 14.998C8.82098 15.0623 8.92991 15.0926 9.03348 15.0926C9.3317 15.0926 9.6067 14.8551 9.6067 14.5194V1.48728C9.6067 1.15156 9.3317 0.914062 9.03348 0.914062ZM8.32098 13.1998L4.09598 9.78371L3.77455 9.57478H1.46384V6.43192H3.77455L4.0942 6.22299L8.32098 2.80692V13.1998ZM11.7139 7.99992C11.7139 7.23719 11.4605 6.53502 11.0326 5.97115C10.9658 5.88316 10.975 5.75724 11.0589 5.68539L11.7273 5.11292C11.8112 5.04106 11.9378 5.05056 12.006 5.13746C12.6246 5.92576 12.9939 6.92042 12.9939 7.99992C12.9939 9.07942 12.6246 10.0741 12.006 10.8624C11.9378 10.9493 11.8112 10.9588 11.7273 10.8869L11.0589 10.3145C10.975 10.2426 10.9658 10.1167 11.0326 10.0287C11.4605 9.46482 11.7139 8.76265 11.7139 7.99992ZM12.6291 2.57513C13.8386 4.05513 14.5635 5.94485 14.5635 8.0054C14.5635 10.066 13.8386 11.9557 12.6291 13.4357C12.5592 13.5212 12.5688 13.6473 12.6527 13.7192L13.321 14.2916C13.4049 14.3635 13.5313 14.3539 13.6015 14.2685C15.002 12.565 15.8435 10.3827 15.8435 8.0054C15.8435 5.62809 15.002 3.44576 13.6015 1.74226C13.5313 1.65694 13.4049 1.64731 13.321 1.71917L12.6527 2.29164C12.5688 2.36349 12.5592 2.4896 12.6291 2.57513Z" fill="#ABB2BA" />
</svg>
